<?xml version="1.0" encoding="UTF-8"?>
<svg id="Layer_1" xmlns="http://www.w3.org/2000/svg" version="1.1" viewBox="0 0 396.48 183.7">
  <!-- Generator: Adobe Illustrator 30.0.0, SVG Export Plug-In . SVG Version: 2.1.1 Build 123)  -->
  <defs>
    <style>
      .st0 {
        fill: #fff;
      }

      .st1 {
        fill: #231f20;
      }

      .st2 {
        fill: #32ff00;
      }
    </style>
  </defs>
  <rect class="st2" x=".15" y="140.4" width="316.14" height="43.3" transform="translate(316.43 324.1) rotate(-180)"/>
  <rect class="st1" x="0" y="0" width="314.81" height="43.1" transform="translate(314.81 43.1) rotate(-180)"/>
  <rect class="st1" x="0" y="46.8" width="396.48" height="43.1" transform="translate(396.48 136.7) rotate(-180)"/>
  <rect class="st1" x="0" y="93.6" width="384.39" height="43.1" transform="translate(384.39 230.3) rotate(-180)"/>
  <g>
    <g>
      <path class="st1" d="M13.67,22.34v-9.13h3.98v16.3h-3.85v-2.37c-1.24,1.83-2.95,2.75-5.12,2.75-1.75,0-3.13-.51-4.15-1.53-1.02-1.02-1.53-2.47-1.53-4.34v-10.8h3.98v10.14c0,2.06,1.02,3.1,3.06,3.1,1.01,0,1.87-.36,2.57-1.09.71-.73,1.06-1.73,1.06-3.02Z"/>
      <path class="st1" d="M26.91,29.95c-4.76,0-7.24-1.87-7.45-5.62h3.88c.1,1.01.44,1.73,1,2.15.56.42,1.44.63,2.64.63,2.15,0,3.22-.65,3.22-1.96,0-.59-.23-1.04-.69-1.36-.46-.32-1.29-.58-2.5-.79l-1.86-.32c-3.56-.59-5.34-2.23-5.34-4.93,0-1.54.59-2.74,1.77-3.62,1.18-.87,2.84-1.31,4.99-1.31,4.65,0,7.05,1.84,7.2,5.53h-3.76c-.04-.97-.35-1.66-.92-2.07s-1.41-.62-2.53-.62c-1.9,0-2.84.63-2.84,1.89,0,.55.21.97.63,1.28.42.31,1.12.54,2.08.71l2.05.32c1.98.36,3.42.93,4.31,1.71.89.78,1.34,1.86,1.34,3.25,0,1.64-.63,2.91-1.9,3.79s-3.04,1.33-5.34,1.33Z"/>
      <path class="st1" d="M39.86,29.51h-3.98V13.21h3.98v16.3ZM39.82,11.1h-3.92v-3.73h3.92v3.73Z"/>
      <path class="st1" d="M51.64,12.83c1.77,0,3.16.51,4.18,1.53,1.02,1.02,1.53,2.47,1.53,4.34v10.8h-3.98v-10.14c0-2.06-1.02-3.1-3.06-3.1-1.01,0-1.87.36-2.57,1.09s-1.06,1.73-1.06,3.02v9.13h-3.98V13.21h3.85v2.34c1.24-1.81,2.94-2.72,5.08-2.72Z"/>
      <path class="st1" d="M71.94,15.45v-2.24h3.85v15.76c0,2.21-.7,3.95-2.1,5.21-1.4,1.26-3.38,1.9-5.95,1.9-2.27,0-4.06-.51-5.35-1.52s-2.01-2.4-2.13-4.17h3.92c.19,1.75,1.4,2.62,3.63,2.62,1.31,0,2.3-.34,2.98-1.01.68-.67,1.03-1.65,1.03-2.94v-2.05c-1.18,1.62-2.84,2.43-4.99,2.43s-3.99-.77-5.34-2.31c-1.35-1.49-2.02-3.5-2.02-6s.67-4.54,2.02-6.03c1.33-1.52,3.09-2.27,5.31-2.27s4.01.87,5.15,2.62ZM67.71,26.16c1.33,0,2.36-.44,3.1-1.33.74-.88,1.11-2.12,1.11-3.7s-.37-2.81-1.11-3.69c-.74-.88-1.77-1.33-3.1-1.33s-2.3.45-3.05,1.34c-.75.9-1.12,2.13-1.12,3.71s.37,2.78,1.12,3.66c.75.88,1.76,1.33,3.05,1.33Z"/>
      <path class="st1" d="M94.4,17.32l1.33-4.11h4.17l-6.28,17.62c-.67,1.85-1.52,3.13-2.53,3.82-1.03.72-2.53,1.07-4.48,1.07-.65,0-1.23-.03-1.74-.09v-3.13h1.52c.86,0,1.53-.24,1.99-.73.46-.48.69-1.12.69-1.9s-.25-1.87-.76-3.28l-4.74-13.39h4.3l1.33,4.07c.93,2.91,1.79,5.94,2.59,9.1.63-2.38,1.51-5.4,2.62-9.06Z"/>
      <path class="st1" d="M113.95,27.55c-1.52,1.56-3.52,2.34-6,2.34s-4.48-.78-6-2.34c-1.54-1.54-2.31-3.6-2.31-6.19s.77-4.65,2.31-6.19c1.52-1.56,3.52-2.34,6-2.34s4.48.77,6,2.31c1.52,1.54,2.27,3.61,2.27,6.22s-.76,4.63-2.27,6.19ZM104.84,25.25c.75.91,1.78,1.36,3.11,1.36s2.36-.46,3.11-1.37c.75-.92,1.12-2.21,1.12-3.87s-.37-2.95-1.12-3.87c-.75-.92-1.78-1.37-3.11-1.37s-2.36.45-3.11,1.36c-.75.91-1.12,2.2-1.12,3.88s.37,2.98,1.12,3.88Z"/>
      <path class="st1" d="M128.6,22.34v-9.13h3.98v16.3h-3.85v-2.37c-1.24,1.83-2.95,2.75-5.12,2.75-1.75,0-3.13-.51-4.15-1.53-1.02-1.02-1.53-2.47-1.53-4.34v-10.8h3.98v10.14c0,2.06,1.02,3.1,3.06,3.1,1.01,0,1.87-.36,2.57-1.09.71-.73,1.06-1.73,1.06-3.02Z"/>
      <path class="st1" d="M144.14,12.96c.36,0,.68.02.98.06v3.66h-1.01c-1.52,0-2.68.38-3.49,1.15-.81.77-1.22,1.9-1.22,3.4v8.27h-3.98V13.21h3.85v2.91c.9-2.1,2.53-3.16,4.86-3.16Z"/>
      <path class="st1" d="M162.55,12.83c2.23,0,4.01.77,5.34,2.31,1.31,1.56,1.96,3.63,1.96,6.22s-.65,4.63-1.96,6.19c-1.33,1.56-3.11,2.34-5.34,2.34s-3.9-.83-5.05-2.5v8.31h-3.98V13.21h3.82v2.34c1.18-1.81,2.92-2.72,5.21-2.72ZM158.54,25.25c.72.91,1.74,1.36,3.06,1.36s2.34-.47,3.1-1.42c.74-.93,1.11-2.24,1.11-3.95s-.36-2.93-1.09-3.81c-.73-.87-1.76-1.31-3.11-1.31s-2.36.45-3.1,1.36c-.74.91-1.1,2.2-1.1,3.88s.38,3,1.14,3.88Z"/>
      <path class="st1" d="M180.9,12.83c1.77,0,3.16.51,4.18,1.53,1.02,1.02,1.53,2.47,1.53,4.34v10.8h-3.98v-10.14c0-2.06-1.02-3.1-3.06-3.1-1.01,0-1.87.36-2.57,1.09s-1.06,1.73-1.06,3.02v9.13h-3.98V7.02h3.98v8.37c1.24-1.71,2.89-2.56,4.96-2.56Z"/>
      <path class="st1" d="M203.04,27.55c-1.52,1.56-3.52,2.34-6,2.34s-4.48-.78-6-2.34c-1.54-1.54-2.31-3.6-2.31-6.19s.77-4.65,2.31-6.19c1.52-1.56,3.52-2.34,6-2.34s4.48.77,6,2.31c1.52,1.54,2.27,3.61,2.27,6.22s-.76,4.63-2.27,6.19ZM193.93,25.25c.75.91,1.78,1.36,3.11,1.36s2.36-.46,3.11-1.37c.75-.92,1.12-2.21,1.12-3.87s-.37-2.95-1.12-3.87c-.75-.92-1.78-1.37-3.11-1.37s-2.36.45-3.11,1.36c-.75.91-1.12,2.2-1.12,3.88s.37,2.98,1.12,3.88Z"/>
      <path class="st1" d="M216.37,12.83c1.77,0,3.16.51,4.18,1.53,1.02,1.02,1.53,2.47,1.53,4.34v10.8h-3.98v-10.14c0-2.06-1.02-3.1-3.06-3.1-1.01,0-1.87.36-2.57,1.09s-1.06,1.73-1.06,3.02v9.13h-3.98V13.21h3.85v2.34c1.24-1.81,2.94-2.72,5.08-2.72Z"/>
      <path class="st1" d="M240.31,21.64v.95h-12.19c.15,1.39.58,2.44,1.31,3.14s1.7,1.06,2.92,1.06c1.81,0,3.05-.78,3.73-2.34h3.82c-.42,1.66-1.31,2.98-2.65,3.96-1.35.98-2.99,1.47-4.93,1.47-2.42,0-4.38-.78-5.87-2.34s-2.24-3.62-2.24-6.19.74-4.63,2.21-6.19c1.49-1.56,3.44-2.34,5.84-2.34s4.42.81,5.87,2.43c1.45,1.62,2.18,3.75,2.18,6.38ZM232.22,15.93c-2.34,0-3.7,1.29-4.07,3.88h8.18c-.17-1.2-.61-2.15-1.33-2.84s-1.64-1.04-2.78-1.04Z"/>
      <path class="st1" d="M257.87,12.83c1.77,0,3.16.51,4.18,1.53,1.02,1.02,1.53,2.47,1.53,4.34v10.8h-3.98v-10.14c0-2.06-1.02-3.1-3.06-3.1-1.01,0-1.87.36-2.57,1.09s-1.06,1.73-1.06,3.02v9.13h-3.98V7.02h3.98v8.37c1.24-1.71,2.89-2.56,4.96-2.56Z"/>
      <path class="st1" d="M276.6,22.34v-9.13h3.98v16.3h-3.85v-2.37c-1.24,1.83-2.95,2.75-5.12,2.75-1.75,0-3.13-.51-4.15-1.53-1.02-1.02-1.53-2.47-1.53-4.34v-10.8h3.98v10.14c0,2.06,1.02,3.1,3.06,3.1,1.01,0,1.87-.36,2.57-1.09.71-.73,1.06-1.73,1.06-3.02Z"/>
      <path class="st1" d="M292.36,12.83c1.77,0,3.16.51,4.18,1.53,1.02,1.02,1.53,2.47,1.53,4.34v10.8h-3.98v-10.14c0-2.06-1.02-3.1-3.06-3.1-1.01,0-1.87.36-2.57,1.09-.71.73-1.06,1.73-1.06,3.02v9.13h-3.98V7.02h3.98v8.37c1.24-1.71,2.89-2.56,4.96-2.56Z"/>
      <path class="st1" d="M305.15,29.51h-4.64v-4.52h4.64v4.52Z"/>
      <path class="st1" d="M311.81,29.51h-4.64v-4.52h4.64v4.52Z"/>
    </g>
    <rect class="st1" y="4.02" width="314.81" height="35.06"/>
    <g>
      <path class="st0" d="M13.67,22.34v-9.13h3.98v16.3h-3.85v-2.37c-1.24,1.83-2.95,2.75-5.12,2.75-1.75,0-3.13-.51-4.15-1.53-1.02-1.02-1.53-2.47-1.53-4.34v-10.8h3.98v10.14c0,2.06,1.02,3.1,3.06,3.1,1.01,0,1.87-.36,2.57-1.09.71-.73,1.06-1.73,1.06-3.02Z"/>
      <path class="st0" d="M26.91,29.95c-4.76,0-7.24-1.87-7.45-5.62h3.88c.1,1.01.44,1.73,1,2.15.56.42,1.44.63,2.64.63,2.15,0,3.22-.65,3.22-1.96,0-.59-.23-1.04-.69-1.36-.46-.32-1.29-.58-2.5-.79l-1.86-.32c-3.56-.59-5.34-2.23-5.34-4.93,0-1.54.59-2.74,1.77-3.62,1.18-.87,2.84-1.31,4.99-1.31,4.65,0,7.05,1.84,7.2,5.53h-3.76c-.04-.97-.35-1.66-.92-2.07s-1.41-.62-2.53-.62c-1.9,0-2.84.63-2.84,1.89,0,.55.21.97.63,1.28.42.31,1.12.54,2.08.71l2.05.32c1.98.36,3.42.93,4.31,1.71.89.78,1.34,1.86,1.34,3.25,0,1.64-.63,2.91-1.9,3.79s-3.04,1.33-5.34,1.33Z"/>
      <path class="st0" d="M39.86,29.51h-3.98V13.21h3.98v16.3ZM39.82,11.1h-3.92v-3.73h3.92v3.73Z"/>
      <path class="st0" d="M51.64,12.83c1.77,0,3.16.51,4.18,1.53,1.02,1.02,1.53,2.47,1.53,4.34v10.8h-3.98v-10.14c0-2.06-1.02-3.1-3.06-3.1-1.01,0-1.87.36-2.57,1.09s-1.06,1.73-1.06,3.02v9.13h-3.98V13.21h3.85v2.34c1.24-1.81,2.94-2.72,5.08-2.72Z"/>
      <path class="st0" d="M71.94,15.45v-2.24h3.85v15.76c0,2.21-.7,3.95-2.1,5.21-1.4,1.26-3.38,1.9-5.95,1.9-2.27,0-4.06-.51-5.35-1.52s-2.01-2.4-2.13-4.17h3.92c.19,1.75,1.4,2.62,3.63,2.62,1.31,0,2.3-.34,2.98-1.01.68-.67,1.03-1.65,1.03-2.94v-2.05c-1.18,1.62-2.84,2.43-4.99,2.43s-3.99-.77-5.34-2.31c-1.35-1.49-2.02-3.5-2.02-6s.67-4.54,2.02-6.03c1.33-1.52,3.09-2.27,5.31-2.27s4.01.87,5.15,2.62ZM67.71,26.16c1.33,0,2.36-.44,3.1-1.33.74-.88,1.11-2.12,1.11-3.7s-.37-2.81-1.11-3.69c-.74-.88-1.77-1.33-3.1-1.33s-2.3.45-3.05,1.34c-.75.9-1.12,2.13-1.12,3.71s.37,2.78,1.12,3.66c.75.88,1.76,1.33,3.05,1.33Z"/>
      <path class="st0" d="M94.4,17.32l1.33-4.11h4.17l-6.28,17.62c-.67,1.85-1.52,3.13-2.53,3.82-1.03.72-2.53,1.07-4.48,1.07-.65,0-1.23-.03-1.74-.09v-3.13h1.52c.86,0,1.53-.24,1.99-.73.46-.48.69-1.12.69-1.9s-.25-1.87-.76-3.28l-4.74-13.39h4.3l1.33,4.07c.93,2.91,1.79,5.94,2.59,9.1.63-2.38,1.51-5.4,2.62-9.06Z"/>
      <path class="st0" d="M113.95,27.55c-1.52,1.56-3.52,2.34-6,2.34s-4.48-.78-6-2.34c-1.54-1.54-2.31-3.6-2.31-6.19s.77-4.65,2.31-6.19c1.52-1.56,3.52-2.34,6-2.34s4.48.77,6,2.31c1.52,1.54,2.27,3.61,2.27,6.22s-.76,4.63-2.27,6.19ZM104.84,25.25c.75.91,1.78,1.36,3.11,1.36s2.36-.46,3.11-1.37c.75-.92,1.12-2.21,1.12-3.87s-.37-2.95-1.12-3.87c-.75-.92-1.78-1.37-3.11-1.37s-2.36.45-3.11,1.36c-.75.91-1.12,2.2-1.12,3.88s.37,2.98,1.12,3.88Z"/>
      <path class="st0" d="M128.6,22.34v-9.13h3.98v16.3h-3.85v-2.37c-1.24,1.83-2.95,2.75-5.12,2.75-1.75,0-3.13-.51-4.15-1.53-1.02-1.02-1.53-2.47-1.53-4.34v-10.8h3.98v10.14c0,2.06,1.02,3.1,3.06,3.1,1.01,0,1.87-.36,2.57-1.09.71-.73,1.06-1.73,1.06-3.02Z"/>
      <path class="st0" d="M144.14,12.96c.36,0,.68.02.98.06v3.66h-1.01c-1.52,0-2.68.38-3.49,1.15-.81.77-1.22,1.9-1.22,3.4v8.27h-3.98V13.21h3.85v2.91c.9-2.1,2.53-3.16,4.86-3.16Z"/>
      <path class="st0" d="M162.55,12.83c2.23,0,4.01.77,5.34,2.31,1.31,1.56,1.96,3.63,1.96,6.22s-.65,4.63-1.96,6.19c-1.33,1.56-3.11,2.34-5.34,2.34s-3.9-.83-5.05-2.5v8.31h-3.98V13.21h3.82v2.34c1.18-1.81,2.92-2.72,5.21-2.72ZM158.54,25.25c.72.91,1.74,1.36,3.06,1.36s2.34-.47,3.1-1.42c.74-.93,1.11-2.24,1.11-3.95s-.36-2.93-1.09-3.81c-.73-.87-1.76-1.31-3.11-1.31s-2.36.45-3.1,1.36c-.74.91-1.1,2.2-1.1,3.88s.38,3,1.14,3.88Z"/>
      <path class="st0" d="M180.9,12.83c1.77,0,3.16.51,4.18,1.53,1.02,1.02,1.53,2.47,1.53,4.34v10.8h-3.98v-10.14c0-2.06-1.02-3.1-3.06-3.1-1.01,0-1.87.36-2.57,1.09s-1.06,1.73-1.06,3.02v9.13h-3.98V7.02h3.98v8.37c1.24-1.71,2.89-2.56,4.96-2.56Z"/>
      <path class="st0" d="M203.04,27.55c-1.52,1.56-3.52,2.34-6,2.34s-4.48-.78-6-2.34c-1.54-1.54-2.31-3.6-2.31-6.19s.77-4.65,2.31-6.19c1.52-1.56,3.52-2.34,6-2.34s4.48.77,6,2.31c1.52,1.54,2.27,3.61,2.27,6.22s-.76,4.63-2.27,6.19ZM193.93,25.25c.75.91,1.78,1.36,3.11,1.36s2.36-.46,3.11-1.37c.75-.92,1.12-2.21,1.12-3.87s-.37-2.95-1.12-3.87c-.75-.92-1.78-1.37-3.11-1.37s-2.36.45-3.11,1.36c-.75.91-1.12,2.2-1.12,3.88s.37,2.98,1.12,3.88Z"/>
      <path class="st0" d="M216.37,12.83c1.77,0,3.16.51,4.18,1.53,1.02,1.02,1.53,2.47,1.53,4.34v10.8h-3.98v-10.14c0-2.06-1.02-3.1-3.06-3.1-1.01,0-1.87.36-2.57,1.09s-1.06,1.73-1.06,3.02v9.13h-3.98V13.21h3.85v2.34c1.24-1.81,2.94-2.72,5.08-2.72Z"/>
      <path class="st0" d="M240.31,21.64v.95h-12.19c.15,1.39.58,2.44,1.31,3.14s1.7,1.06,2.92,1.06c1.81,0,3.05-.78,3.73-2.34h3.82c-.42,1.66-1.31,2.98-2.65,3.96-1.35.98-2.99,1.47-4.93,1.47-2.42,0-4.38-.78-5.87-2.34s-2.24-3.62-2.24-6.19.74-4.63,2.21-6.19c1.49-1.56,3.44-2.34,5.84-2.34s4.42.81,5.87,2.43c1.45,1.62,2.18,3.75,2.18,6.38ZM232.22,15.93c-2.34,0-3.7,1.29-4.07,3.88h8.18c-.17-1.2-.61-2.15-1.33-2.84s-1.64-1.04-2.78-1.04Z"/>
      <path class="st0" d="M257.87,12.83c1.77,0,3.16.51,4.18,1.53,1.02,1.02,1.53,2.47,1.53,4.34v10.8h-3.98v-10.14c0-2.06-1.02-3.1-3.06-3.1-1.01,0-1.87.36-2.57,1.09s-1.06,1.73-1.06,3.02v9.13h-3.98V7.02h3.98v8.37c1.24-1.71,2.89-2.56,4.96-2.56Z"/>
      <path class="st0" d="M276.6,22.34v-9.13h3.98v16.3h-3.85v-2.37c-1.24,1.83-2.95,2.75-5.12,2.75-1.75,0-3.13-.51-4.15-1.53-1.02-1.02-1.53-2.47-1.53-4.34v-10.8h3.98v10.14c0,2.06,1.02,3.1,3.06,3.1,1.01,0,1.87-.36,2.57-1.09.71-.73,1.06-1.73,1.06-3.02Z"/>
      <path class="st0" d="M292.36,12.83c1.77,0,3.16.51,4.18,1.53,1.02,1.02,1.53,2.47,1.53,4.34v10.8h-3.98v-10.14c0-2.06-1.02-3.1-3.06-3.1-1.01,0-1.87.36-2.57,1.09-.71.73-1.06,1.73-1.06,3.02v9.13h-3.98V7.02h3.98v8.37c1.24-1.71,2.89-2.56,4.96-2.56Z"/>
      <path class="st0" d="M305.15,29.51h-4.64v-4.52h4.64v4.52Z"/>
      <path class="st0" d="M311.81,29.51h-4.64v-4.52h4.64v4.52Z"/>
    </g>
  </g>
  <g>
    <g>
      <path class="st1" d="M22.8,66.33l1.83-6.1h4.26l-5.37,16.3h-4.17l-2.05-6.7c-.78-2.74-1.24-4.36-1.39-4.86-.06.23-.52,1.85-1.36,4.86l-2.02,6.7h-4.17l-5.37-16.3h4.26l1.83,6.1c.46,1.45,1,3.34,1.61,5.65.59-2.34,1.11-4.23,1.55-5.69l1.8-6.06h3.79l1.8,6.06c.44,1.45.96,3.35,1.55,5.69.55-2.08,1.08-3.97,1.61-5.65Z"/>
      <path class="st1" d="M44.78,68.67v.95h-12.19c.15,1.39.58,2.44,1.31,3.14s1.7,1.06,2.92,1.06c1.81,0,3.05-.78,3.73-2.34h3.82c-.42,1.66-1.31,2.98-2.65,3.96-1.35.98-2.99,1.47-4.93,1.47-2.42,0-4.38-.78-5.87-2.34s-2.24-3.62-2.24-6.19.74-4.63,2.21-6.19c1.49-1.56,3.44-2.34,5.84-2.34s4.42.81,5.87,2.43c1.45,1.62,2.18,3.75,2.18,6.38ZM36.7,62.95c-2.34,0-3.7,1.29-4.07,3.88h8.18c-.17-1.2-.61-2.15-1.33-2.84s-1.64-1.04-2.78-1.04Z"/>
      <path class="st1" d="M50.94,76.53h-3.98v-22.49h3.98v22.49Z"/>
      <path class="st1" d="M57.76,76.53h-3.98v-22.49h3.98v22.49Z"/>
      <path class="st1" d="M71.03,76.53h-3.98v-16.3h3.98v16.3ZM71,58.12h-3.92v-3.73h3.92v3.73Z"/>
      <path class="st1" d="M82.59,57.11h-1.39c-1.37,0-2.05.65-2.05,1.96v1.17h3.35v3.03h-3.35v13.26h-3.95v-13.26h-2.53v-3.03h2.53v-1.23c0-1.58.44-2.82,1.33-3.71s2.22-1.34,4.01-1.34c.8,0,1.48.03,2.05.09v3.06Z"/>
      <path class="st1" d="M105.61,76.53h-3.98c-.19-.34-.34-1-.44-1.99-1.1,1.58-2.84,2.37-5.24,2.37-1.79,0-3.22-.43-4.28-1.29-1.06-.86-1.59-2.06-1.59-3.6,0-2.97,2.08-4.66,6.25-5.08l2.46-.22c.82-.1,1.41-.3,1.77-.58.36-.28.54-.71.54-1.28,0-.69-.23-1.21-.68-1.53-.45-.33-1.22-.49-2.29-.49-1.16,0-1.99.19-2.49.58s-.8,1.06-.88,2.01h-3.92c.23-3.71,2.67-5.56,7.33-5.56s6.79,1.63,6.79,4.9v8.69c0,1.43.22,2.46.66,3.1ZM96.89,74.07c1.24,0,2.25-.34,3.03-1.03.78-.68,1.17-1.67,1.17-2.95v-1.48c-.38.34-1,.56-1.86.66l-2.15.25c-1.05.13-1.81.37-2.26.74-.45.37-.68.9-.68,1.59s.24,1.24.71,1.63c.47.39,1.15.58,2.04.58Z"/>
      <path class="st1" d="M116.54,59.85c1.77,0,3.16.51,4.18,1.53,1.02,1.02,1.53,2.47,1.53,4.34v10.8h-3.98v-10.14c0-2.06-1.02-3.1-3.06-3.1-1.01,0-1.87.36-2.57,1.09s-1.06,1.73-1.06,3.02v9.13h-3.98v-16.3h3.85v2.34c1.24-1.81,2.94-2.72,5.08-2.72Z"/>
      <path class="st1" d="M133.62,64.34l1.33-4.11h4.17l-6.28,17.62c-.67,1.85-1.52,3.13-2.53,3.82-1.03.72-2.53,1.07-4.48,1.07-.65,0-1.23-.03-1.74-.09v-3.13h1.52c.86,0,1.53-.24,1.99-.73.46-.48.69-1.12.69-1.9s-.25-1.87-.76-3.28l-4.74-13.39h4.3l1.33,4.07c.93,2.91,1.79,5.94,2.59,9.1.63-2.38,1.51-5.4,2.62-9.06Z"/>
      <path class="st1" d="M153.17,74.57c-1.52,1.56-3.52,2.34-6,2.34s-4.48-.78-6-2.34c-1.54-1.54-2.31-3.6-2.31-6.19s.77-4.65,2.31-6.19c1.52-1.56,3.52-2.34,6-2.34s4.48.77,6,2.31c1.52,1.54,2.27,3.61,2.27,6.22s-.76,4.63-2.27,6.19ZM144.06,72.27c.75.91,1.78,1.36,3.11,1.36s2.36-.46,3.11-1.37c.75-.92,1.12-2.21,1.12-3.87s-.37-2.95-1.12-3.87c-.75-.92-1.78-1.37-3.11-1.37s-2.36.45-3.11,1.36c-.75.91-1.12,2.2-1.12,3.88s.37,2.98,1.12,3.88Z"/>
      <path class="st1" d="M166.5,59.85c1.77,0,3.16.51,4.18,1.53,1.02,1.02,1.53,2.47,1.53,4.34v10.8h-3.98v-10.14c0-2.06-1.02-3.1-3.06-3.1-1.01,0-1.87.36-2.57,1.09s-1.06,1.73-1.06,3.02v9.13h-3.98v-16.3h3.85v2.34c1.24-1.81,2.94-2.72,5.08-2.72Z"/>
      <path class="st1" d="M190.44,68.67v.95h-12.19c.15,1.39.58,2.44,1.31,3.14s1.7,1.06,2.92,1.06c1.81,0,3.05-.78,3.73-2.34h3.82c-.42,1.66-1.31,2.98-2.65,3.96-1.35.98-2.99,1.47-4.93,1.47-2.42,0-4.38-.78-5.87-2.34s-2.24-3.62-2.24-6.19.74-4.63,2.21-6.19c1.49-1.56,3.44-2.34,5.84-2.34s4.42.81,5.87,2.43c1.45,1.62,2.18,3.75,2.18,6.38ZM182.36,62.95c-2.34,0-3.7,1.29-4.07,3.88h8.18c-.17-1.2-.61-2.15-1.33-2.84s-1.64-1.04-2.78-1.04Z"/>
      <path class="st1" d="M213.72,76.53h-3.98c-.19-.34-.34-1-.44-1.99-1.1,1.58-2.84,2.37-5.24,2.37-1.79,0-3.22-.43-4.28-1.29-1.06-.86-1.59-2.06-1.59-3.6,0-2.97,2.08-4.66,6.25-5.08l2.46-.22c.82-.1,1.41-.3,1.77-.58.36-.28.54-.71.54-1.28,0-.69-.23-1.21-.68-1.53-.45-.33-1.22-.49-2.29-.49-1.16,0-1.99.19-2.49.58s-.8,1.06-.88,2.01h-3.92c.23-3.71,2.67-5.56,7.33-5.56s6.79,1.63,6.79,4.9v8.69c0,1.43.22,2.46.66,3.1ZM205,74.07c1.24,0,2.25-.34,3.03-1.03.78-.68,1.17-1.67,1.17-2.95v-1.48c-.38.34-1,.56-1.86.66l-2.15.25c-1.05.13-1.81.37-2.26.74-.45.37-.68.9-.68,1.59s.24,1.24.71,1.63c.47.39,1.15.58,2.04.58Z"/>
      <path class="st1" d="M222.24,76.97c-4.76,0-7.24-1.87-7.45-5.62h3.88c.1,1.01.44,1.73,1,2.15.56.42,1.44.63,2.64.63,2.15,0,3.22-.65,3.22-1.96,0-.59-.23-1.04-.69-1.36-.46-.32-1.29-.58-2.5-.79l-1.86-.32c-3.56-.59-5.34-2.23-5.34-4.93,0-1.54.59-2.74,1.77-3.62,1.18-.87,2.84-1.31,4.99-1.31,4.65,0,7.05,1.84,7.2,5.53h-3.76c-.04-.97-.35-1.66-.92-2.07s-1.41-.62-2.53-.62c-1.9,0-2.84.63-2.84,1.89,0,.55.21.97.63,1.28.42.31,1.12.54,2.08.71l2.05.32c1.98.36,3.42.93,4.31,1.71.89.78,1.34,1.86,1.34,3.25,0,1.64-.63,2.91-1.9,3.79s-3.04,1.33-5.34,1.33Z"/>
      <path class="st1" d="M246.88,76.53h-4.55l-4.74-7.58-2.46,2.46v5.12h-3.92v-22.49h3.92v12.95l6.63-6.76h4.74l-6.16,6.16,6.54,10.14Z"/>
      <path class="st1" d="M253.83,76.97c-4.76,0-7.24-1.87-7.45-5.62h3.88c.1,1.01.44,1.73,1,2.15.56.42,1.44.63,2.64.63,2.15,0,3.22-.65,3.22-1.96,0-.59-.23-1.04-.69-1.36-.46-.32-1.29-.58-2.5-.79l-1.86-.32c-3.56-.59-5.34-2.23-5.34-4.93,0-1.54.59-2.74,1.77-3.62,1.18-.87,2.84-1.31,4.99-1.31,4.65,0,7.05,1.84,7.2,5.53h-3.76c-.04-.97-.35-1.66-.92-2.07s-1.41-.62-2.53-.62c-1.9,0-2.84.63-2.84,1.89,0,.55.21.97.63,1.28.42.31,1.12.54,2.08.71l2.05.32c1.98.36,3.42.93,4.31,1.71.89.78,1.34,1.86,1.34,3.25,0,1.64-.63,2.91-1.9,3.79s-3.04,1.33-5.34,1.33Z"/>
      <path class="st1" d="M262.39,76.53v-4.52h4.64v4.86c0,2.97-1.36,4.51-4.07,4.61h-.57v-2.27l.54-.03c.97-.06,1.45-.77,1.45-2.12v-.54h-1.99Z"/>
      <path class="st1" d="M284.4,60.23v3.03h-3.22v8.81c0,.53.14.9.43,1.11s.76.32,1.44.32h1.36v3.03c-.86.08-1.56.13-2.08.13-1.77,0-3.06-.33-3.87-1-.81-.66-1.22-1.72-1.22-3.17v-9.22h-2.53v-3.03h2.53v-4.74h3.95v4.74h3.22Z"/>
      <path class="st1" d="M301.42,68.67v.95h-12.19c.15,1.39.58,2.44,1.31,3.14s1.7,1.06,2.92,1.06c1.81,0,3.05-.78,3.73-2.34h3.82c-.42,1.66-1.31,2.98-2.65,3.96-1.35.98-2.99,1.47-4.93,1.47-2.42,0-4.38-.78-5.88-2.34s-2.24-3.62-2.24-6.19.74-4.63,2.21-6.19c1.5-1.56,3.44-2.34,5.84-2.34s4.42.81,5.88,2.43c1.45,1.62,2.18,3.75,2.18,6.38ZM293.34,62.95c-2.34,0-3.7,1.29-4.07,3.88h8.18c-.17-1.2-.61-2.15-1.33-2.84s-1.64-1.04-2.78-1.04Z"/>
      <path class="st1" d="M307.58,76.53h-3.98v-22.49h3.98v22.49Z"/>
      <path class="st1" d="M314.4,76.53h-3.98v-22.49h3.98v22.49Z"/>
      <path class="st1" d="M332.18,60.23v3.03h-3.22v8.81c0,.53.14.9.43,1.11.29.21.76.32,1.44.32h1.36v3.03c-.86.08-1.56.13-2.08.13-1.77,0-3.06-.33-3.87-1-.81-.66-1.22-1.72-1.22-3.17v-9.22h-2.53v-3.03h2.53v-4.74h3.95v4.74h3.22Z"/>
      <path class="st1" d="M343.08,59.85c1.77,0,3.16.51,4.18,1.53,1.02,1.02,1.53,2.47,1.53,4.34v10.8h-3.98v-10.14c0-2.06-1.02-3.1-3.06-3.1-1.01,0-1.87.36-2.57,1.09-.71.73-1.06,1.73-1.06,3.02v9.13h-3.98v-22.49h3.98v8.37c1.24-1.71,2.9-2.56,4.96-2.56Z"/>
      <path class="st1" d="M367.02,68.67v.95h-12.19c.15,1.39.58,2.44,1.31,3.14s1.7,1.06,2.92,1.06c1.81,0,3.05-.78,3.73-2.34h3.82c-.42,1.66-1.31,2.98-2.65,3.96-1.35.98-2.99,1.47-4.93,1.47-2.42,0-4.38-.78-5.87-2.34-1.5-1.56-2.24-3.62-2.24-6.19s.74-4.63,2.21-6.19c1.5-1.56,3.44-2.34,5.84-2.34s4.42.81,5.88,2.43c1.45,1.62,2.18,3.75,2.18,6.38ZM358.93,62.95c-2.34,0-3.7,1.29-4.07,3.88h8.18c-.17-1.2-.61-2.15-1.33-2.84s-1.64-1.04-2.78-1.04Z"/>
      <path class="st1" d="M387.8,59.85c1.79,0,3.18.53,4.18,1.58,1,1.05,1.5,2.5,1.5,4.33v10.77h-3.98v-10.14c0-2.06-.94-3.1-2.81-3.1-1.01,0-1.83.36-2.45,1.09-.62.73-.93,1.78-.93,3.17v8.97h-3.95v-10.14c0-2.06-.95-3.1-2.84-3.1-.99,0-1.79.36-2.42,1.09s-.93,1.78-.93,3.17v8.97h-3.98v-16.3h3.85v2.34c1.12-1.81,2.66-2.72,4.64-2.72,2.48,0,4.17,1.01,5.05,3.03,1.22-2.02,2.91-3.03,5.05-3.03Z"/>
    </g>
    <rect class="st1" y="50.95" width="396.48" height="34.8"/>
    <g>
      <path class="st0" d="M22.8,66.33l1.83-6.1h4.26l-5.37,16.3h-4.17l-2.05-6.7c-.78-2.74-1.24-4.36-1.39-4.86-.06.23-.52,1.85-1.36,4.86l-2.02,6.7h-4.17l-5.37-16.3h4.26l1.83,6.1c.46,1.45,1,3.34,1.61,5.65.59-2.34,1.11-4.23,1.55-5.69l1.8-6.06h3.79l1.8,6.06c.44,1.45.96,3.35,1.55,5.69.55-2.08,1.08-3.97,1.61-5.65Z"/>
      <path class="st0" d="M44.78,68.67v.95h-12.19c.15,1.39.58,2.44,1.31,3.14s1.7,1.06,2.92,1.06c1.81,0,3.05-.78,3.73-2.34h3.82c-.42,1.66-1.31,2.98-2.65,3.96-1.35.98-2.99,1.47-4.93,1.47-2.42,0-4.38-.78-5.87-2.34s-2.24-3.62-2.24-6.19.74-4.63,2.21-6.19c1.49-1.56,3.44-2.34,5.84-2.34s4.42.81,5.87,2.43c1.45,1.62,2.18,3.75,2.18,6.38ZM36.7,62.95c-2.34,0-3.7,1.29-4.07,3.88h8.18c-.17-1.2-.61-2.15-1.33-2.84s-1.64-1.04-2.78-1.04Z"/>
      <path class="st0" d="M50.94,76.53h-3.98v-22.49h3.98v22.49Z"/>
      <path class="st0" d="M57.76,76.53h-3.98v-22.49h3.98v22.49Z"/>
      <path class="st0" d="M71.03,76.53h-3.98v-16.3h3.98v16.3ZM71,58.12h-3.92v-3.73h3.92v3.73Z"/>
      <path class="st0" d="M82.59,57.11h-1.39c-1.37,0-2.05.65-2.05,1.96v1.17h3.35v3.03h-3.35v13.26h-3.95v-13.26h-2.53v-3.03h2.53v-1.23c0-1.58.44-2.82,1.33-3.71s2.22-1.34,4.01-1.34c.8,0,1.48.03,2.05.09v3.06Z"/>
      <path class="st0" d="M105.61,76.53h-3.98c-.19-.34-.34-1-.44-1.99-1.1,1.58-2.84,2.37-5.24,2.37-1.79,0-3.22-.43-4.28-1.29-1.06-.86-1.59-2.06-1.59-3.6,0-2.97,2.08-4.66,6.25-5.08l2.46-.22c.82-.1,1.41-.3,1.77-.58.36-.28.54-.71.54-1.28,0-.69-.23-1.21-.68-1.53-.45-.33-1.22-.49-2.29-.49-1.16,0-1.99.19-2.49.58s-.8,1.06-.88,2.01h-3.92c.23-3.71,2.67-5.56,7.33-5.56s6.79,1.63,6.79,4.9v8.69c0,1.43.22,2.46.66,3.1ZM96.89,74.07c1.24,0,2.25-.34,3.03-1.03.78-.68,1.17-1.67,1.17-2.95v-1.48c-.38.34-1,.56-1.86.66l-2.15.25c-1.05.13-1.81.37-2.26.74-.45.37-.68.9-.68,1.59s.24,1.24.71,1.63c.47.39,1.15.58,2.04.58Z"/>
      <path class="st0" d="M116.54,59.85c1.77,0,3.16.51,4.18,1.53,1.02,1.02,1.53,2.47,1.53,4.34v10.8h-3.98v-10.14c0-2.06-1.02-3.1-3.06-3.1-1.01,0-1.87.36-2.57,1.09s-1.06,1.73-1.06,3.02v9.13h-3.98v-16.3h3.85v2.34c1.24-1.81,2.94-2.72,5.08-2.72Z"/>
      <path class="st0" d="M133.62,64.34l1.33-4.11h4.17l-6.28,17.62c-.67,1.85-1.52,3.13-2.53,3.82-1.03.72-2.53,1.07-4.48,1.07-.65,0-1.23-.03-1.74-.09v-3.13h1.52c.86,0,1.53-.24,1.99-.73.46-.48.69-1.12.69-1.9s-.25-1.87-.76-3.28l-4.74-13.39h4.3l1.33,4.07c.93,2.91,1.79,5.94,2.59,9.1.63-2.38,1.51-5.4,2.62-9.06Z"/>
      <path class="st0" d="M153.17,74.57c-1.52,1.56-3.52,2.34-6,2.34s-4.48-.78-6-2.34c-1.54-1.54-2.31-3.6-2.31-6.19s.77-4.65,2.31-6.19c1.52-1.56,3.52-2.34,6-2.34s4.48.77,6,2.31c1.52,1.54,2.27,3.61,2.27,6.22s-.76,4.63-2.27,6.19ZM144.06,72.27c.75.91,1.78,1.36,3.11,1.36s2.36-.46,3.11-1.37c.75-.92,1.12-2.21,1.12-3.87s-.37-2.95-1.12-3.87c-.75-.92-1.78-1.37-3.11-1.37s-2.36.45-3.11,1.36c-.75.91-1.12,2.2-1.12,3.88s.37,2.98,1.12,3.88Z"/>
      <path class="st0" d="M166.5,59.85c1.77,0,3.16.51,4.18,1.53,1.02,1.02,1.53,2.47,1.53,4.34v10.8h-3.98v-10.14c0-2.06-1.02-3.1-3.06-3.1-1.01,0-1.87.36-2.57,1.09s-1.06,1.73-1.06,3.02v9.13h-3.98v-16.3h3.85v2.34c1.24-1.81,2.94-2.72,5.08-2.72Z"/>
      <path class="st0" d="M190.44,68.67v.95h-12.19c.15,1.39.58,2.44,1.31,3.14s1.7,1.06,2.92,1.06c1.81,0,3.05-.78,3.73-2.34h3.82c-.42,1.66-1.31,2.98-2.65,3.96-1.35.98-2.99,1.47-4.93,1.47-2.42,0-4.38-.78-5.87-2.34s-2.24-3.62-2.24-6.19.74-4.63,2.21-6.19c1.49-1.56,3.44-2.34,5.84-2.34s4.42.81,5.87,2.43c1.45,1.62,2.18,3.75,2.18,6.38ZM182.36,62.95c-2.34,0-3.7,1.29-4.07,3.88h8.18c-.17-1.2-.61-2.15-1.33-2.84s-1.64-1.04-2.78-1.04Z"/>
      <path class="st0" d="M213.72,76.53h-3.98c-.19-.34-.34-1-.44-1.99-1.1,1.58-2.84,2.37-5.24,2.37-1.79,0-3.22-.43-4.28-1.29-1.06-.86-1.59-2.06-1.59-3.6,0-2.97,2.08-4.66,6.25-5.08l2.46-.22c.82-.1,1.41-.3,1.77-.58.36-.28.54-.71.54-1.28,0-.69-.23-1.21-.68-1.53-.45-.33-1.22-.49-2.29-.49-1.16,0-1.99.19-2.49.58s-.8,1.06-.88,2.01h-3.92c.23-3.71,2.67-5.56,7.33-5.56s6.79,1.63,6.79,4.9v8.69c0,1.43.22,2.46.66,3.1ZM205,74.07c1.24,0,2.25-.34,3.03-1.03.78-.68,1.17-1.67,1.17-2.95v-1.48c-.38.34-1,.56-1.86.66l-2.15.25c-1.05.13-1.81.37-2.26.74-.45.37-.68.9-.68,1.59s.24,1.24.71,1.63c.47.39,1.15.58,2.04.58Z"/>
      <path class="st0" d="M222.24,76.97c-4.76,0-7.24-1.87-7.45-5.62h3.88c.1,1.01.44,1.73,1,2.15.56.42,1.44.63,2.64.63,2.15,0,3.22-.65,3.22-1.96,0-.59-.23-1.04-.69-1.36-.46-.32-1.29-.58-2.5-.79l-1.86-.32c-3.56-.59-5.34-2.23-5.34-4.93,0-1.54.59-2.74,1.77-3.62,1.18-.87,2.84-1.31,4.99-1.31,4.65,0,7.05,1.84,7.2,5.53h-3.76c-.04-.97-.35-1.66-.92-2.07s-1.41-.62-2.53-.62c-1.9,0-2.84.63-2.84,1.89,0,.55.21.97.63,1.28.42.31,1.12.54,2.08.71l2.05.32c1.98.36,3.42.93,4.31,1.71.89.78,1.34,1.86,1.34,3.25,0,1.64-.63,2.91-1.9,3.79s-3.04,1.33-5.34,1.33Z"/>
      <path class="st0" d="M246.88,76.53h-4.55l-4.74-7.58-2.46,2.46v5.12h-3.92v-22.49h3.92v12.95l6.63-6.76h4.74l-6.16,6.16,6.54,10.14Z"/>
      <path class="st0" d="M253.83,76.97c-4.76,0-7.24-1.87-7.45-5.62h3.88c.1,1.01.44,1.73,1,2.15.56.42,1.44.63,2.64.63,2.15,0,3.22-.65,3.22-1.96,0-.59-.23-1.04-.69-1.36-.46-.32-1.29-.58-2.5-.79l-1.86-.32c-3.56-.59-5.34-2.23-5.34-4.93,0-1.54.59-2.74,1.77-3.62,1.18-.87,2.84-1.31,4.99-1.31,4.65,0,7.05,1.84,7.2,5.53h-3.76c-.04-.97-.35-1.66-.92-2.07s-1.41-.62-2.53-.62c-1.9,0-2.84.63-2.84,1.89,0,.55.21.97.63,1.28.42.31,1.12.54,2.08.71l2.05.32c1.98.36,3.42.93,4.31,1.71.89.78,1.34,1.86,1.34,3.25,0,1.64-.63,2.91-1.9,3.79s-3.04,1.33-5.34,1.33Z"/>
      <path class="st0" d="M262.39,76.53v-4.52h4.64v4.86c0,2.97-1.36,4.51-4.07,4.61h-.57v-2.27l.54-.03c.97-.06,1.45-.77,1.45-2.12v-.54h-1.99Z"/>
      <path class="st0" d="M284.4,60.23v3.03h-3.22v8.81c0,.53.14.9.43,1.11s.76.32,1.44.32h1.36v3.03c-.86.08-1.56.13-2.08.13-1.77,0-3.06-.33-3.87-1-.81-.66-1.22-1.72-1.22-3.17v-9.22h-2.53v-3.03h2.53v-4.74h3.95v4.74h3.22Z"/>
      <path class="st0" d="M301.42,68.67v.95h-12.19c.15,1.39.58,2.44,1.31,3.14s1.7,1.06,2.92,1.06c1.81,0,3.05-.78,3.73-2.34h3.82c-.42,1.66-1.31,2.98-2.65,3.96-1.35.98-2.99,1.47-4.93,1.47-2.42,0-4.38-.78-5.88-2.34s-2.24-3.62-2.24-6.19.74-4.63,2.21-6.19c1.5-1.56,3.44-2.34,5.84-2.34s4.42.81,5.88,2.43c1.45,1.62,2.18,3.75,2.18,6.38ZM293.34,62.95c-2.34,0-3.7,1.29-4.07,3.88h8.18c-.17-1.2-.61-2.15-1.33-2.84s-1.64-1.04-2.78-1.04Z"/>
      <path class="st0" d="M307.58,76.53h-3.98v-22.49h3.98v22.49Z"/>
      <path class="st0" d="M314.4,76.53h-3.98v-22.49h3.98v22.49Z"/>
      <path class="st0" d="M332.18,60.23v3.03h-3.22v8.81c0,.53.14.9.43,1.11.29.21.76.32,1.44.32h1.36v3.03c-.86.08-1.56.13-2.08.13-1.77,0-3.06-.33-3.87-1-.81-.66-1.22-1.72-1.22-3.17v-9.22h-2.53v-3.03h2.53v-4.74h3.95v4.74h3.22Z"/>
      <path class="st0" d="M343.08,59.85c1.77,0,3.16.51,4.18,1.53,1.02,1.02,1.53,2.47,1.53,4.34v10.8h-3.98v-10.14c0-2.06-1.02-3.1-3.06-3.1-1.01,0-1.87.36-2.57,1.09-.71.73-1.06,1.73-1.06,3.02v9.13h-3.98v-22.49h3.98v8.37c1.24-1.71,2.9-2.56,4.96-2.56Z"/>
      <path class="st0" d="M367.02,68.67v.95h-12.19c.15,1.39.58,2.44,1.31,3.14s1.7,1.06,2.92,1.06c1.81,0,3.05-.78,3.73-2.34h3.82c-.42,1.66-1.31,2.98-2.65,3.96-1.35.98-2.99,1.47-4.93,1.47-2.42,0-4.38-.78-5.87-2.34-1.5-1.56-2.24-3.62-2.24-6.19s.74-4.63,2.21-6.19c1.5-1.56,3.44-2.34,5.84-2.34s4.42.81,5.88,2.43c1.45,1.62,2.18,3.75,2.18,6.38ZM358.93,62.95c-2.34,0-3.7,1.29-4.07,3.88h8.18c-.17-1.2-.61-2.15-1.33-2.84s-1.64-1.04-2.78-1.04Z"/>
      <path class="st0" d="M387.8,59.85c1.79,0,3.18.53,4.18,1.58,1,1.05,1.5,2.5,1.5,4.33v10.77h-3.98v-10.14c0-2.06-.94-3.1-2.81-3.1-1.01,0-1.83.36-2.45,1.09-.62.73-.93,1.78-.93,3.17v8.97h-3.95v-10.14c0-2.06-.95-3.1-2.84-3.1-.99,0-1.79.36-2.42,1.09s-.93,1.78-.93,3.17v8.97h-3.98v-16.3h3.85v2.34c1.12-1.81,2.66-2.72,4.64-2.72,2.48,0,4.17,1.01,5.05,3.03,1.22-2.02,2.91-3.03,5.05-3.03Z"/>
    </g>
  </g>
  <g>
    <g>
      <path class="st1" d="M13.83,110.92l1.33-4.11h4.17l-6.28,17.62c-.67,1.85-1.52,3.13-2.53,3.82-1.03.72-2.53,1.07-4.48,1.07-.65,0-1.23-.03-1.74-.09v-3.13h1.52c.86,0,1.53-.24,1.99-.73.46-.48.69-1.12.69-1.9s-.25-1.87-.76-3.28l-4.74-13.39h4.3l1.33,4.07c.93,2.91,1.79,5.94,2.59,9.1.63-2.38,1.51-5.4,2.62-9.06Z"/>
      <path class="st1" d="M33.38,121.15c-1.52,1.56-3.52,2.34-6,2.34s-4.48-.78-6-2.34c-1.54-1.54-2.31-3.6-2.31-6.19s.77-4.65,2.31-6.19c1.52-1.56,3.52-2.34,6-2.34s4.48.77,6,2.31c1.52,1.54,2.27,3.61,2.27,6.22s-.76,4.63-2.27,6.19ZM24.27,118.85c.75.91,1.78,1.36,3.11,1.36s2.36-.46,3.11-1.37c.75-.92,1.12-2.21,1.12-3.87s-.37-2.95-1.12-3.87c-.75-.92-1.78-1.37-3.11-1.37s-2.36.45-3.11,1.36c-.75.91-1.12,2.2-1.12,3.88s.37,2.98,1.12,3.88Z"/>
      <path class="st1" d="M48.04,115.94v-9.13h3.98v16.3h-3.85v-2.37c-1.24,1.83-2.95,2.75-5.12,2.75-1.75,0-3.13-.51-4.15-1.53-1.02-1.02-1.53-2.47-1.53-4.34v-10.8h3.98v10.14c0,2.06,1.02,3.1,3.06,3.1,1.01,0,1.87-.36,2.57-1.09.71-.73,1.06-1.73,1.06-3.02Z"/>
      <path class="st1" d="M53.75,104.85v-4.23h4.36v4.58c0,2.82-1.27,4.27-3.82,4.36l-.54.03v-2.18l.51-.03c.9-.06,1.36-.74,1.36-2.02v-.51h-1.86Z"/>
      <path class="st1" d="M68.6,106.56c.36,0,.68.02.98.06v3.66h-1.01c-1.52,0-2.68.38-3.49,1.15-.81.77-1.22,1.9-1.22,3.4v8.27h-3.98v-16.3h3.85v2.91c.9-2.1,2.53-3.16,4.86-3.16Z"/>
      <path class="st1" d="M86,115.24v.95h-12.19c.15,1.39.58,2.44,1.31,3.14s1.7,1.06,2.92,1.06c1.81,0,3.05-.78,3.73-2.34h3.82c-.42,1.66-1.31,2.98-2.65,3.96-1.35.98-2.99,1.47-4.93,1.47-2.42,0-4.38-.78-5.87-2.34s-2.24-3.62-2.24-6.19.74-4.63,2.21-6.19c1.49-1.56,3.44-2.34,5.84-2.34s4.42.81,5.87,2.43c1.45,1.62,2.18,3.75,2.18,6.38ZM77.91,109.53c-2.34,0-3.7,1.29-4.07,3.88h8.18c-.17-1.2-.61-2.15-1.33-2.84s-1.64-1.04-2.78-1.04Z"/>
      <path class="st1" d="M98.6,123.11h-3.98v-22.49h3.98v22.49Z"/>
      <path class="st1" d="M115.02,121.15c-1.52,1.56-3.52,2.34-6,2.34s-4.48-.78-6-2.34c-1.54-1.54-2.31-3.6-2.31-6.19s.77-4.65,2.31-6.19c1.52-1.56,3.52-2.34,6-2.34s4.48.77,6,2.31c1.52,1.54,2.27,3.61,2.27,6.22s-.76,4.63-2.27,6.19ZM105.91,118.85c.75.91,1.78,1.36,3.11,1.36s2.36-.46,3.11-1.37c.75-.92,1.12-2.21,1.12-3.87s-.37-2.95-1.12-3.87c-.75-.92-1.78-1.37-3.11-1.37s-2.36.45-3.11,1.36c-.75.91-1.12,2.2-1.12,3.88s.37,2.98,1.12,3.88Z"/>
      <path class="st1" d="M132.99,121.15c-1.52,1.56-3.52,2.34-6,2.34s-4.48-.78-6-2.34c-1.54-1.54-2.31-3.6-2.31-6.19s.77-4.65,2.31-6.19c1.52-1.56,3.52-2.34,6-2.34s4.48.77,6,2.31c1.52,1.54,2.27,3.61,2.27,6.22s-.76,4.63-2.27,6.19ZM123.88,118.85c.75.91,1.78,1.36,3.11,1.36s2.36-.46,3.11-1.37c.75-.92,1.12-2.21,1.12-3.87s-.37-2.95-1.12-3.87c-.75-.92-1.78-1.37-3.11-1.37s-2.36.45-3.11,1.36c-.75.91-1.12,2.2-1.12,3.88s.37,2.98,1.12,3.88Z"/>
      <path class="st1" d="M153.05,123.11h-4.55l-4.74-7.58-2.46,2.46v5.12h-3.92v-22.49h3.92v12.95l6.63-6.76h4.74l-6.16,6.16,6.54,10.14Z"/>
      <path class="st1" d="M158.04,123.11h-3.98v-16.3h3.98v16.3ZM158.01,104.7h-3.92v-3.73h3.92v3.73Z"/>
      <path class="st1" d="M169.82,106.43c1.77,0,3.16.51,4.18,1.53,1.02,1.02,1.53,2.47,1.53,4.34v10.8h-3.98v-10.14c0-2.06-1.02-3.1-3.06-3.1-1.01,0-1.87.36-2.57,1.09s-1.06,1.73-1.06,3.02v9.13h-3.98v-16.3h3.85v2.34c1.24-1.81,2.94-2.72,5.08-2.72Z"/>
      <path class="st1" d="M190.13,109.05v-2.24h3.85v15.76c0,2.21-.7,3.95-2.1,5.21-1.4,1.26-3.38,1.9-5.95,1.9-2.27,0-4.06-.51-5.35-1.52s-2.01-2.4-2.13-4.17h3.92c.19,1.75,1.4,2.62,3.63,2.62,1.31,0,2.3-.34,2.98-1.01.68-.67,1.03-1.65,1.03-2.94v-2.05c-1.18,1.62-2.84,2.43-4.99,2.43s-3.99-.77-5.34-2.31c-1.35-1.49-2.02-3.5-2.02-6s.67-4.54,2.02-6.03c1.33-1.52,3.09-2.27,5.31-2.27s4.01.87,5.15,2.62ZM185.89,119.76c1.33,0,2.36-.44,3.1-1.33.74-.88,1.11-2.12,1.11-3.7s-.37-2.81-1.11-3.69c-.74-.88-1.77-1.33-3.1-1.33s-2.3.45-3.05,1.34c-.75.9-1.12,2.13-1.12,3.71s.37,2.78,1.12,3.66c.75.88,1.76,1.33,3.05,1.33Z"/>
      <path class="st1" d="M217.92,123.11h-3.98c-.19-.34-.34-1-.44-1.99-1.1,1.58-2.84,2.37-5.24,2.37-1.79,0-3.22-.43-4.28-1.29-1.06-.86-1.59-2.06-1.59-3.6,0-2.97,2.08-4.66,6.25-5.08l2.46-.22c.82-.1,1.41-.3,1.77-.58.36-.28.54-.71.54-1.28,0-.69-.23-1.21-.68-1.53-.45-.33-1.22-.49-2.29-.49-1.16,0-1.99.19-2.49.58s-.8,1.06-.88,2.01h-3.92c.23-3.71,2.67-5.56,7.33-5.56s6.79,1.63,6.79,4.9v8.69c0,1.43.22,2.46.66,3.1ZM209.2,120.65c1.24,0,2.25-.34,3.03-1.03.78-.68,1.17-1.67,1.17-2.95v-1.48c-.38.34-1,.56-1.86.66l-2.15.25c-1.05.13-1.81.37-2.26.74-.45.37-.68.9-.68,1.59s.24,1.24.71,1.63c.47.39,1.15.58,2.04.58Z"/>
      <path class="st1" d="M227.9,106.81v3.03h-3.22v8.81c0,.53.14.9.43,1.11s.76.32,1.44.32h1.36v3.03c-.86.08-1.56.13-2.08.13-1.77,0-3.06-.33-3.87-1-.81-.66-1.22-1.72-1.22-3.17v-9.22h-2.53v-3.03h2.53v-4.74h3.95v4.74h3.22Z"/>
      <path class="st1" d="M242.71,123.55c-4.76,0-7.24-1.87-7.45-5.62h3.88c.1,1.01.44,1.73,1,2.15.56.42,1.44.63,2.64.63,2.15,0,3.22-.65,3.22-1.96,0-.59-.23-1.04-.69-1.36-.46-.32-1.29-.58-2.5-.79l-1.86-.32c-3.56-.59-5.34-2.23-5.34-4.93,0-1.54.59-2.74,1.77-3.62,1.18-.87,2.84-1.31,4.99-1.31,4.65,0,7.05,1.84,7.2,5.53h-3.76c-.04-.97-.35-1.66-.92-2.07s-1.41-.62-2.53-.62c-1.9,0-2.84.63-2.84,1.89,0,.55.21.97.63,1.28.42.31,1.12.54,2.08.71l2.05.32c1.98.36,3.42.93,4.31,1.71.89.78,1.34,1.86,1.34,3.25,0,1.64-.63,2.91-1.9,3.79s-3.04,1.33-5.34,1.33Z"/>
      <path class="st1" d="M265.26,121.15c-1.52,1.56-3.52,2.34-6,2.34s-4.48-.78-6-2.34c-1.54-1.54-2.31-3.6-2.31-6.19s.77-4.65,2.31-6.19c1.52-1.56,3.52-2.34,6-2.34s4.48.77,6,2.31c1.52,1.54,2.27,3.61,2.27,6.22s-.76,4.63-2.27,6.19ZM256.15,118.85c.75.91,1.78,1.36,3.11,1.36s2.36-.46,3.11-1.37c.75-.92,1.12-2.21,1.12-3.87s-.37-2.95-1.12-3.87c-.75-.92-1.78-1.37-3.11-1.37s-2.36.45-3.11,1.36c-.75.91-1.12,2.2-1.12,3.88s.37,2.98,1.12,3.88Z"/>
      <path class="st1" d="M288.25,106.43c1.79,0,3.18.53,4.18,1.58,1,1.05,1.5,2.5,1.5,4.33v10.77h-3.98v-10.14c0-2.06-.94-3.1-2.81-3.1-1.01,0-1.83.36-2.45,1.09s-.93,1.78-.93,3.17v8.97h-3.95v-10.14c0-2.06-.95-3.1-2.84-3.1-.99,0-1.79.36-2.42,1.09s-.93,1.78-.93,3.17v8.97h-3.98v-16.3h3.85v2.34c1.12-1.81,2.66-2.72,4.64-2.72,2.48,0,4.17,1.01,5.05,3.03,1.22-2.02,2.91-3.03,5.05-3.03Z"/>
      <path class="st1" d="M312.16,115.24v.95h-12.19c.15,1.39.58,2.44,1.31,3.14s1.7,1.06,2.92,1.06c1.81,0,3.05-.78,3.73-2.34h3.82c-.42,1.66-1.31,2.98-2.65,3.96-1.35.98-2.99,1.47-4.93,1.47-2.42,0-4.38-.78-5.88-2.34s-2.24-3.62-2.24-6.19.74-4.63,2.21-6.19c1.5-1.56,3.44-2.34,5.84-2.34s4.42.81,5.88,2.43c1.45,1.62,2.18,3.75,2.18,6.38ZM304.07,109.53c-2.34,0-3.7,1.29-4.07,3.88h8.18c-.17-1.2-.61-2.15-1.33-2.84s-1.64-1.04-2.78-1.04Z"/>
      <path class="st1" d="M322.01,106.81v3.03h-3.22v8.81c0,.53.14.9.43,1.11s.76.32,1.44.32h1.36v3.03c-.86.08-1.56.13-2.08.13-1.77,0-3.06-.33-3.87-1-.81-.66-1.22-1.72-1.22-3.17v-9.22h-2.53v-3.03h2.53v-4.74h3.95v4.74h3.22Z"/>
      <path class="st1" d="M332.91,106.43c1.77,0,3.16.51,4.19,1.53,1.02,1.02,1.53,2.47,1.53,4.34v10.8h-3.98v-10.14c0-2.06-1.02-3.1-3.06-3.1-1.01,0-1.87.36-2.57,1.09s-1.06,1.73-1.06,3.02v9.13h-3.98v-22.49h3.98v8.37c1.24-1.71,2.9-2.56,4.96-2.56Z"/>
      <path class="st1" d="M345.45,123.11h-3.98v-16.3h3.98v16.3ZM345.42,104.7h-3.92v-3.73h3.92v3.73Z"/>
      <path class="st1" d="M357.23,106.43c1.77,0,3.16.51,4.18,1.53,1.02,1.02,1.53,2.47,1.53,4.34v10.8h-3.98v-10.14c0-2.06-1.02-3.1-3.06-3.1-1.01,0-1.87.36-2.57,1.09-.71.73-1.06,1.73-1.06,3.02v9.13h-3.98v-16.3h3.85v2.34c1.24-1.81,2.94-2.72,5.08-2.72Z"/>
      <path class="st1" d="M377.54,109.05v-2.24h3.85v15.76c0,2.21-.7,3.95-2.1,5.21s-3.38,1.9-5.95,1.9c-2.27,0-4.06-.51-5.35-1.52s-2.01-2.4-2.13-4.17h3.92c.19,1.75,1.4,2.62,3.63,2.62,1.31,0,2.3-.34,2.99-1.01.68-.67,1.03-1.65,1.03-2.94v-2.05c-1.18,1.62-2.84,2.43-4.99,2.43s-3.99-.77-5.34-2.31c-1.35-1.49-2.02-3.5-2.02-6s.67-4.54,2.02-6.03c1.33-1.52,3.1-2.27,5.31-2.27s4.01.87,5.15,2.62ZM373.3,119.76c1.33,0,2.36-.44,3.1-1.33.74-.88,1.11-2.12,1.11-3.7s-.37-2.81-1.11-3.69c-.74-.88-1.77-1.33-3.1-1.33s-2.3.45-3.05,1.34c-.75.9-1.12,2.13-1.12,3.71s.37,2.78,1.12,3.66c.75.88,1.76,1.33,3.05,1.33Z"/>
    </g>
    <rect class="st1" y="97.62" width="384.39" height="35.06"/>
    <g>
      <path class="st0" d="M13.83,110.92l1.33-4.11h4.17l-6.28,17.62c-.67,1.85-1.52,3.13-2.53,3.82-1.03.72-2.53,1.07-4.48,1.07-.65,0-1.23-.03-1.74-.09v-3.13h1.52c.86,0,1.53-.24,1.99-.73.46-.48.69-1.12.69-1.9s-.25-1.87-.76-3.28l-4.74-13.39h4.3l1.33,4.07c.93,2.91,1.79,5.94,2.59,9.1.63-2.38,1.51-5.4,2.62-9.06Z"/>
      <path class="st0" d="M33.38,121.15c-1.52,1.56-3.52,2.34-6,2.34s-4.48-.78-6-2.34c-1.54-1.54-2.31-3.6-2.31-6.19s.77-4.65,2.31-6.19c1.52-1.56,3.52-2.34,6-2.34s4.48.77,6,2.31c1.52,1.54,2.27,3.61,2.27,6.22s-.76,4.63-2.27,6.19ZM24.27,118.85c.75.91,1.78,1.36,3.11,1.36s2.36-.46,3.11-1.37c.75-.92,1.12-2.21,1.12-3.87s-.37-2.95-1.12-3.87c-.75-.92-1.78-1.37-3.11-1.37s-2.36.45-3.11,1.36c-.75.91-1.12,2.2-1.12,3.88s.37,2.98,1.12,3.88Z"/>
      <path class="st0" d="M48.04,115.94v-9.13h3.98v16.3h-3.85v-2.37c-1.24,1.83-2.95,2.75-5.12,2.75-1.75,0-3.13-.51-4.15-1.53-1.02-1.02-1.53-2.47-1.53-4.34v-10.8h3.98v10.14c0,2.06,1.02,3.1,3.06,3.1,1.01,0,1.87-.36,2.57-1.09.71-.73,1.06-1.73,1.06-3.02Z"/>
      <path class="st0" d="M53.75,104.85v-4.23h4.36v4.58c0,2.82-1.27,4.27-3.82,4.36l-.54.03v-2.18l.51-.03c.9-.06,1.36-.74,1.36-2.02v-.51h-1.86Z"/>
      <path class="st0" d="M68.6,106.56c.36,0,.68.02.98.06v3.66h-1.01c-1.52,0-2.68.38-3.49,1.15-.81.77-1.22,1.9-1.22,3.4v8.27h-3.98v-16.3h3.85v2.91c.9-2.1,2.53-3.16,4.86-3.16Z"/>
      <path class="st0" d="M86,115.24v.95h-12.19c.15,1.39.58,2.44,1.31,3.14s1.7,1.06,2.92,1.06c1.81,0,3.05-.78,3.73-2.34h3.82c-.42,1.66-1.31,2.98-2.65,3.96-1.35.98-2.99,1.47-4.93,1.47-2.42,0-4.38-.78-5.87-2.34s-2.24-3.62-2.24-6.19.74-4.63,2.21-6.19c1.49-1.56,3.44-2.34,5.84-2.34s4.42.81,5.87,2.43c1.45,1.62,2.18,3.75,2.18,6.38ZM77.91,109.53c-2.34,0-3.7,1.29-4.07,3.88h8.18c-.17-1.2-.61-2.15-1.33-2.84s-1.64-1.04-2.78-1.04Z"/>
      <path class="st0" d="M98.6,123.11h-3.98v-22.49h3.98v22.49Z"/>
      <path class="st0" d="M115.02,121.15c-1.52,1.56-3.52,2.34-6,2.34s-4.48-.78-6-2.34c-1.54-1.54-2.31-3.6-2.31-6.19s.77-4.65,2.31-6.19c1.52-1.56,3.52-2.34,6-2.34s4.48.77,6,2.31c1.52,1.54,2.27,3.61,2.27,6.22s-.76,4.63-2.27,6.19ZM105.91,118.85c.75.91,1.78,1.36,3.11,1.36s2.36-.46,3.11-1.37c.75-.92,1.12-2.21,1.12-3.87s-.37-2.95-1.12-3.87c-.75-.92-1.78-1.37-3.11-1.37s-2.36.45-3.11,1.36c-.75.91-1.12,2.2-1.12,3.88s.37,2.98,1.12,3.88Z"/>
      <path class="st0" d="M132.99,121.15c-1.52,1.56-3.52,2.34-6,2.34s-4.48-.78-6-2.34c-1.54-1.54-2.31-3.6-2.31-6.19s.77-4.65,2.31-6.19c1.52-1.56,3.52-2.34,6-2.34s4.48.77,6,2.31c1.52,1.54,2.27,3.61,2.27,6.22s-.76,4.63-2.27,6.19ZM123.88,118.85c.75.91,1.78,1.36,3.11,1.36s2.36-.46,3.11-1.37c.75-.92,1.12-2.21,1.12-3.87s-.37-2.95-1.12-3.87c-.75-.92-1.78-1.37-3.11-1.37s-2.36.45-3.11,1.36c-.75.91-1.12,2.2-1.12,3.88s.37,2.98,1.12,3.88Z"/>
      <path class="st0" d="M153.05,123.11h-4.55l-4.74-7.58-2.46,2.46v5.12h-3.92v-22.49h3.92v12.95l6.63-6.76h4.74l-6.16,6.16,6.54,10.14Z"/>
      <path class="st0" d="M158.04,123.11h-3.98v-16.3h3.98v16.3ZM158.01,104.7h-3.92v-3.73h3.92v3.73Z"/>
      <path class="st0" d="M169.82,106.43c1.77,0,3.16.51,4.18,1.53,1.02,1.02,1.53,2.47,1.53,4.34v10.8h-3.98v-10.14c0-2.06-1.02-3.1-3.06-3.1-1.01,0-1.87.36-2.57,1.09s-1.06,1.73-1.06,3.02v9.13h-3.98v-16.3h3.85v2.34c1.24-1.81,2.94-2.72,5.08-2.72Z"/>
      <path class="st0" d="M190.13,109.05v-2.24h3.85v15.76c0,2.21-.7,3.95-2.1,5.21-1.4,1.26-3.38,1.9-5.95,1.9-2.27,0-4.06-.51-5.35-1.52s-2.01-2.4-2.13-4.17h3.92c.19,1.75,1.4,2.62,3.63,2.62,1.31,0,2.3-.34,2.98-1.01.68-.67,1.03-1.65,1.03-2.94v-2.05c-1.18,1.62-2.84,2.43-4.99,2.43s-3.99-.77-5.34-2.31c-1.35-1.49-2.02-3.5-2.02-6s.67-4.54,2.02-6.03c1.33-1.52,3.09-2.27,5.31-2.27s4.01.87,5.15,2.62ZM185.89,119.76c1.33,0,2.36-.44,3.1-1.33.74-.88,1.11-2.12,1.11-3.7s-.37-2.81-1.11-3.69c-.74-.88-1.77-1.33-3.1-1.33s-2.3.45-3.05,1.34c-.75.9-1.12,2.13-1.12,3.71s.37,2.78,1.12,3.66c.75.88,1.76,1.33,3.05,1.33Z"/>
      <path class="st0" d="M217.92,123.11h-3.98c-.19-.34-.34-1-.44-1.99-1.1,1.58-2.84,2.37-5.24,2.37-1.79,0-3.22-.43-4.28-1.29-1.06-.86-1.59-2.06-1.59-3.6,0-2.97,2.08-4.66,6.25-5.08l2.46-.22c.82-.1,1.41-.3,1.77-.58.36-.28.54-.71.54-1.28,0-.69-.23-1.21-.68-1.53-.45-.33-1.22-.49-2.29-.49-1.16,0-1.99.19-2.49.58s-.8,1.06-.88,2.01h-3.92c.23-3.71,2.67-5.56,7.33-5.56s6.79,1.63,6.79,4.9v8.69c0,1.43.22,2.46.66,3.1ZM209.2,120.65c1.24,0,2.25-.34,3.03-1.03.78-.68,1.17-1.67,1.17-2.95v-1.48c-.38.34-1,.56-1.86.66l-2.15.25c-1.05.13-1.81.37-2.26.74-.45.37-.68.9-.68,1.59s.24,1.24.71,1.63c.47.39,1.15.58,2.04.58Z"/>
      <path class="st0" d="M227.9,106.81v3.03h-3.22v8.81c0,.53.14.9.43,1.11s.76.32,1.44.32h1.36v3.03c-.86.08-1.56.13-2.08.13-1.77,0-3.06-.33-3.87-1-.81-.66-1.22-1.72-1.22-3.17v-9.22h-2.53v-3.03h2.53v-4.74h3.95v4.74h3.22Z"/>
      <path class="st0" d="M242.71,123.55c-4.76,0-7.24-1.87-7.45-5.62h3.88c.1,1.01.44,1.73,1,2.15.56.42,1.44.63,2.64.63,2.15,0,3.22-.65,3.22-1.96,0-.59-.23-1.04-.69-1.36-.46-.32-1.29-.58-2.5-.79l-1.86-.32c-3.56-.59-5.34-2.23-5.34-4.93,0-1.54.59-2.74,1.77-3.62,1.18-.87,2.84-1.31,4.99-1.31,4.65,0,7.05,1.84,7.2,5.53h-3.76c-.04-.97-.35-1.66-.92-2.07s-1.41-.62-2.53-.62c-1.9,0-2.84.63-2.84,1.89,0,.55.21.97.63,1.28.42.31,1.12.54,2.08.71l2.05.32c1.98.36,3.42.93,4.31,1.71.89.78,1.34,1.86,1.34,3.25,0,1.64-.63,2.91-1.9,3.79s-3.04,1.33-5.34,1.33Z"/>
      <path class="st0" d="M265.26,121.15c-1.52,1.56-3.52,2.34-6,2.34s-4.48-.78-6-2.34c-1.54-1.54-2.31-3.6-2.31-6.19s.77-4.65,2.31-6.19c1.52-1.56,3.52-2.34,6-2.34s4.48.77,6,2.31c1.52,1.54,2.27,3.61,2.27,6.22s-.76,4.63-2.27,6.19ZM256.15,118.85c.75.91,1.78,1.36,3.11,1.36s2.36-.46,3.11-1.37c.75-.92,1.12-2.21,1.12-3.87s-.37-2.95-1.12-3.87c-.75-.92-1.78-1.37-3.11-1.37s-2.36.45-3.11,1.36c-.75.91-1.12,2.2-1.12,3.88s.37,2.98,1.12,3.88Z"/>
      <path class="st0" d="M288.25,106.43c1.79,0,3.18.53,4.18,1.58,1,1.05,1.5,2.5,1.5,4.33v10.77h-3.98v-10.14c0-2.06-.94-3.1-2.81-3.1-1.01,0-1.83.36-2.45,1.09s-.93,1.78-.93,3.17v8.97h-3.95v-10.14c0-2.06-.95-3.1-2.84-3.1-.99,0-1.79.36-2.42,1.09s-.93,1.78-.93,3.17v8.97h-3.98v-16.3h3.85v2.34c1.12-1.81,2.66-2.72,4.64-2.72,2.48,0,4.17,1.01,5.05,3.03,1.22-2.02,2.91-3.03,5.05-3.03Z"/>
      <path class="st0" d="M312.16,115.24v.95h-12.19c.15,1.39.58,2.44,1.31,3.14s1.7,1.06,2.92,1.06c1.81,0,3.05-.78,3.73-2.34h3.82c-.42,1.66-1.31,2.98-2.65,3.96-1.35.98-2.99,1.47-4.93,1.47-2.42,0-4.38-.78-5.88-2.34s-2.24-3.62-2.24-6.19.74-4.63,2.21-6.19c1.5-1.56,3.44-2.34,5.84-2.34s4.42.81,5.88,2.43c1.45,1.62,2.18,3.75,2.18,6.38ZM304.07,109.53c-2.34,0-3.7,1.29-4.07,3.88h8.18c-.17-1.2-.61-2.15-1.33-2.84s-1.64-1.04-2.78-1.04Z"/>
      <path class="st0" d="M322.01,106.81v3.03h-3.22v8.81c0,.53.14.9.43,1.11s.76.32,1.44.32h1.36v3.03c-.86.08-1.56.13-2.08.13-1.77,0-3.06-.33-3.87-1-.81-.66-1.22-1.72-1.22-3.17v-9.22h-2.53v-3.03h2.53v-4.74h3.95v4.74h3.22Z"/>
      <path class="st0" d="M332.91,106.43c1.77,0,3.16.51,4.19,1.53,1.02,1.02,1.53,2.47,1.53,4.34v10.8h-3.98v-10.14c0-2.06-1.02-3.1-3.06-3.1-1.01,0-1.87.36-2.57,1.09s-1.06,1.73-1.06,3.02v9.13h-3.98v-22.49h3.98v8.37c1.24-1.71,2.9-2.56,4.96-2.56Z"/>
      <path class="st0" d="M345.45,123.11h-3.98v-16.3h3.98v16.3ZM345.42,104.7h-3.92v-3.73h3.92v3.73Z"/>
      <path class="st0" d="M357.23,106.43c1.77,0,3.16.51,4.18,1.53,1.02,1.02,1.53,2.47,1.53,4.34v10.8h-3.98v-10.14c0-2.06-1.02-3.1-3.06-3.1-1.01,0-1.87.36-2.57,1.09-.71.73-1.06,1.73-1.06,3.02v9.13h-3.98v-16.3h3.85v2.34c1.24-1.81,2.94-2.72,5.08-2.72Z"/>
      <path class="st0" d="M377.54,109.05v-2.24h3.85v15.76c0,2.21-.7,3.95-2.1,5.21s-3.38,1.9-5.95,1.9c-2.27,0-4.06-.51-5.35-1.52s-2.01-2.4-2.13-4.17h3.92c.19,1.75,1.4,2.62,3.63,2.62,1.31,0,2.3-.34,2.99-1.01.68-.67,1.03-1.65,1.03-2.94v-2.05c-1.18,1.62-2.84,2.43-4.99,2.43s-3.99-.77-5.34-2.31c-1.35-1.49-2.02-3.5-2.02-6s.67-4.54,2.02-6.03c1.33-1.52,3.1-2.27,5.31-2.27s4.01.87,5.15,2.62ZM373.3,119.76c1.33,0,2.36-.44,3.1-1.33.74-.88,1.11-2.12,1.11-3.7s-.37-2.81-1.11-3.69c-.74-.88-1.77-1.33-3.1-1.33s-2.3.45-3.05,1.34c-.75.9-1.12,2.13-1.12,3.71s.37,2.78,1.12,3.66c.75.88,1.76,1.33,3.05,1.33Z"/>
    </g>
  </g>
  <g>
    <g>
      <path class="st1" d="M10.98,170.67c-2.57,0-4.48-.45-5.73-1.34-1.25-.89-1.95-2.33-2.1-4.31h4.8c.08.86.36,1.47.84,1.83.47.36,1.24.54,2.29.54,1.83,0,2.75-.53,2.75-1.58,0-.51-.2-.89-.6-1.15-.4-.26-1.14-.48-2.21-.65l-2.12-.35c-3.66-.57-5.5-2.23-5.5-4.99,0-1.64.63-2.91,1.9-3.81,1.26-.89,3.07-1.34,5.43-1.34,4.86,0,7.39,1.86,7.58,5.59h-4.58c-.02-1.54-1.02-2.31-3-2.31-1.66,0-2.5.52-2.5,1.55,0,.46.19.82.57,1.07.38.25.98.44,1.8.57l2.43.35c1.96.3,3.4.85,4.33,1.67.93.82,1.39,1.95,1.39,3.38,0,1.69-.68,2.98-2.04,3.9-1.36.92-3.27,1.37-5.73,1.37Z"/>
      <path class="st1" d="M30.81,163v-9.1h4.93v16.3h-4.8v-2.31c-1.26,1.79-2.97,2.68-5.12,2.68-1.73,0-3.1-.52-4.12-1.56-1.02-1.04-1.53-2.52-1.53-4.44v-10.68h4.93v9.7c0,1.85.87,2.78,2.62,2.78.88,0,1.62-.29,2.21-.88.59-.59.88-1.42.88-2.49Z"/>
      <path class="st1" d="M47.93,153.52c2.19,0,3.93.77,5.21,2.31,1.26,1.54,1.9,3.61,1.9,6.22s-.63,4.69-1.9,6.22c-1.28,1.54-3.02,2.31-5.21,2.31s-3.69-.79-4.8-2.37v8.18h-4.93v-22.49h4.8v2.18c1.12-1.71,2.76-2.56,4.93-2.56ZM46.57,166.63c1.09,0,1.95-.41,2.56-1.22s.92-1.97.92-3.49c0-2.97-1.16-4.45-3.47-4.45s-3.51,1.53-3.51,4.58,1.17,4.58,3.51,4.58Z"/>
      <path class="st1" d="M72.98,162.52v.98h-12.06c.17,1.12.58,1.97,1.23,2.56.65.59,1.48.88,2.5.88,1.6,0,2.69-.61,3.28-1.83h4.67c-.44,1.69-1.38,3.02-2.81,4-1.43.98-3.15,1.47-5.15,1.47-2.53,0-4.57-.78-6.13-2.34-1.56-1.56-2.34-3.62-2.34-6.19s.77-4.65,2.31-6.19c1.52-1.56,3.55-2.34,6.1-2.34s4.57.81,6.13,2.43c1.52,1.64,2.27,3.83,2.27,6.57ZM64.51,157.15c-2.02,0-3.21,1.07-3.57,3.22h7.2c-.17-1.01-.57-1.8-1.2-2.37-.63-.57-1.44-.85-2.43-.85Z"/>
      <path class="st1" d="M84.35,153.65c.08,0,.44.02,1.07.06v4.48h-1.26c-2.88,0-4.33,1.47-4.33,4.42v7.58h-4.93v-16.3h4.8v3.03c.76-2.19,2.31-3.28,4.64-3.28Z"/>
      <path class="st1" d="M104.75,163v-9.1h4.93v16.3h-4.8v-2.31c-1.26,1.79-2.97,2.68-5.12,2.68-1.73,0-3.1-.52-4.12-1.56-1.02-1.04-1.53-2.52-1.53-4.44v-10.68h4.93v9.7c0,1.85.87,2.78,2.62,2.78.88,0,1.62-.29,2.21-.88.59-.59.88-1.42.88-2.49Z"/>
      <path class="st1" d="M117.07,170.2h-4.93v-22.49h4.93v22.49Z"/>
      <path class="st1" d="M128.97,153.9v3.6h-3.13v7.61c0,.55.14.92.41,1.12.27.2.76.3,1.45.3h1.26v3.66c-.59.08-1.35.13-2.27.13-2.04,0-3.52-.36-4.42-1.09-.91-.73-1.36-1.92-1.36-3.58v-8.15h-2.43v-3.6h2.43v-4.83h4.93v4.83h3.13Z"/>
      <path class="st1" d="M140.12,153.65c.08,0,.44.02,1.07.06v4.48h-1.26c-2.88,0-4.33,1.47-4.33,4.42v7.58h-4.93v-16.3h4.8v3.03c.76-2.19,2.31-3.28,4.64-3.28Z"/>
      <path class="st1" d="M157.65,170.2h-4.96c-.25-.48-.39-1.09-.41-1.83-1.09,1.47-2.83,2.21-5.21,2.21-1.79,0-3.23-.44-4.31-1.33-1.08-.88-1.63-2.11-1.63-3.66,0-3.03,2.13-4.73,6.38-5.08l2.56-.22c1.41-.15,2.12-.68,2.12-1.61,0-1.09-.83-1.64-2.49-1.64-1.01,0-1.72.15-2.13.46-.41.31-.66.87-.74,1.69h-4.9c.29-3.77,2.89-5.65,7.8-5.65s7.26,1.67,7.26,5.02v8.65c0,1.37.22,2.37.66,3ZM148.55,167.26c1.12,0,2-.29,2.65-.87.65-.58.98-1.45.98-2.61v-1.2c-.29.32-.84.53-1.64.63l-2.02.22c-1.58.17-2.37.82-2.37,1.96,0,.57.21,1.02.63,1.36.42.34,1.01.51,1.77.51Z"/>
      <path class="st1" d="M171.13,170.2h-4.93v-16.3h4.93v16.3ZM171.04,152.04h-4.71v-4.17h4.71v4.17Z"/>
      <path class="st1" d="M183.55,153.52c1.73,0,3.1.52,4.12,1.56,1.02,1.04,1.53,2.52,1.53,4.44v10.67h-4.93v-9.7c0-1.85-.87-2.78-2.62-2.78-.88,0-1.62.29-2.21.88s-.88,1.42-.88,2.5v9.1h-4.93v-16.3h4.8v2.31c1.26-1.79,2.97-2.68,5.12-2.68Z"/>
      <path class="st1" d="M199.37,170.58c-2.55,0-4.58-.78-6.1-2.34-1.52-1.56-2.27-3.62-2.27-6.19s.76-4.68,2.27-6.22c1.52-1.54,3.55-2.31,6.1-2.31,2.23,0,4.06.58,5.48,1.75s2.25,2.75,2.48,4.75h-4.9c-.27-1.66-1.29-2.5-3.06-2.5-2.25,0-3.38,1.51-3.38,4.52s1.13,4.48,3.38,4.48c1.9,0,2.95-.92,3.16-2.75h4.9c-.15,2.06-.96,3.72-2.43,4.96-1.47,1.22-3.35,1.83-5.62,1.83Z"/>
      <path class="st1" d="M218.35,153.65c.08,0,.44.02,1.07.06v4.48h-1.26c-2.88,0-4.33,1.47-4.33,4.42v7.58h-4.93v-16.3h4.8v3.03c.76-2.19,2.31-3.28,4.64-3.28Z"/>
      <path class="st1" d="M236.57,162.52v.98h-12.06c.17,1.12.58,1.97,1.23,2.56.65.59,1.48.88,2.5.88,1.6,0,2.69-.61,3.28-1.83h4.67c-.44,1.69-1.38,3.02-2.81,4-1.43.98-3.15,1.47-5.15,1.47-2.53,0-4.57-.78-6.13-2.34-1.56-1.56-2.34-3.62-2.34-6.19s.77-4.65,2.31-6.19c1.52-1.56,3.55-2.34,6.1-2.34s4.57.81,6.13,2.43c1.52,1.64,2.27,3.83,2.27,6.57ZM228.11,157.15c-2.02,0-3.21,1.07-3.57,3.22h7.2c-.17-1.01-.57-1.8-1.2-2.37-.63-.57-1.44-.85-2.43-.85Z"/>
      <path class="st1" d="M249.71,155.86v-8.15h4.93v22.49h-4.8v-2.12c-1.09,1.66-2.73,2.5-4.9,2.5s-3.92-.77-5.18-2.31c-1.28-1.54-1.93-3.61-1.93-6.22s.64-4.68,1.93-6.22c1.26-1.54,2.99-2.31,5.18-2.31,2.06,0,3.65.78,4.77,2.34ZM246.3,166.63c2.34,0,3.51-1.53,3.51-4.58s-1.17-4.58-3.51-4.58c-1.1,0-1.95.41-2.56,1.22-.61.81-.92,1.97-.92,3.49,0,2.97,1.16,4.45,3.47,4.45Z"/>
      <path class="st1" d="M262.03,170.2h-4.93v-16.3h4.93v16.3ZM261.93,152.04h-4.71v-4.17h4.71v4.17Z"/>
      <path class="st1" d="M274.25,153.52c2.19,0,3.93.77,5.21,2.31,1.26,1.54,1.89,3.61,1.89,6.22s-.63,4.69-1.89,6.22c-1.29,1.54-3.02,2.31-5.21,2.31s-3.81-.85-4.93-2.56v2.18h-4.8v-22.49h4.93v8.18c1.12-1.58,2.72-2.37,4.8-2.37ZM272.89,166.63c1.09,0,1.95-.41,2.56-1.22.61-.81.92-1.97.92-3.49,0-2.97-1.16-4.45-3.47-4.45s-3.51,1.53-3.51,4.58,1.17,4.58,3.51,4.58Z"/>
      <path class="st1" d="M288.08,170.2h-4.93v-22.49h4.93v22.49Z"/>
      <path class="st1" d="M306.72,162.52v.98h-12.06c.17,1.12.58,1.97,1.23,2.56s1.48.88,2.5.88c1.6,0,2.7-.61,3.29-1.83h4.67c-.44,1.69-1.38,3.02-2.81,4-1.43.98-3.15,1.47-5.15,1.47-2.53,0-4.57-.78-6.13-2.34-1.56-1.56-2.34-3.62-2.34-6.19s.77-4.65,2.31-6.19c1.52-1.56,3.55-2.34,6.1-2.34s4.57.81,6.13,2.43c1.52,1.64,2.27,3.83,2.27,6.57ZM298.25,157.15c-2.02,0-3.21,1.07-3.57,3.22h7.2c-.17-1.01-.57-1.8-1.2-2.37s-1.44-.85-2.43-.85Z"/>
      <path class="st1" d="M313.29,170.2h-5.56v-5.43h5.56v5.43Z"/>
    </g>
    <rect class="st2" x=".15" y="144.71" width="316.14" height="34.68"/>
    <g>
      <path class="st1" d="M10.98,170.67c-2.57,0-4.48-.45-5.73-1.34-1.25-.89-1.95-2.33-2.1-4.31h4.8c.08.86.36,1.47.84,1.83.47.36,1.24.54,2.29.54,1.83,0,2.75-.53,2.75-1.58,0-.51-.2-.89-.6-1.15-.4-.26-1.14-.48-2.21-.65l-2.12-.35c-3.66-.57-5.5-2.23-5.5-4.99,0-1.64.63-2.91,1.9-3.81,1.26-.89,3.07-1.34,5.43-1.34,4.86,0,7.39,1.86,7.58,5.59h-4.58c-.02-1.54-1.02-2.31-3-2.31-1.66,0-2.5.52-2.5,1.55,0,.46.19.82.57,1.07.38.25.98.44,1.8.57l2.43.35c1.96.3,3.4.85,4.33,1.67.93.82,1.39,1.95,1.39,3.38,0,1.69-.68,2.98-2.04,3.9-1.36.92-3.27,1.37-5.73,1.37Z"/>
      <path class="st1" d="M30.81,163v-9.1h4.93v16.3h-4.8v-2.31c-1.26,1.79-2.97,2.68-5.12,2.68-1.73,0-3.1-.52-4.12-1.56-1.02-1.04-1.53-2.52-1.53-4.44v-10.68h4.93v9.7c0,1.85.87,2.78,2.62,2.78.88,0,1.62-.29,2.21-.88.59-.59.88-1.42.88-2.49Z"/>
      <path class="st1" d="M47.93,153.52c2.19,0,3.93.77,5.21,2.31,1.26,1.54,1.9,3.61,1.9,6.22s-.63,4.69-1.9,6.22c-1.28,1.54-3.02,2.31-5.21,2.31s-3.69-.79-4.8-2.37v8.18h-4.93v-22.49h4.8v2.18c1.12-1.71,2.76-2.56,4.93-2.56ZM46.57,166.63c1.09,0,1.95-.41,2.56-1.22s.92-1.97.92-3.49c0-2.97-1.16-4.45-3.47-4.45s-3.51,1.53-3.51,4.58,1.17,4.58,3.51,4.58Z"/>
      <path class="st1" d="M72.98,162.52v.98h-12.06c.17,1.12.58,1.97,1.23,2.56.65.59,1.48.88,2.5.88,1.6,0,2.69-.61,3.28-1.83h4.67c-.44,1.69-1.38,3.02-2.81,4-1.43.98-3.15,1.47-5.15,1.47-2.53,0-4.57-.78-6.13-2.34-1.56-1.56-2.34-3.62-2.34-6.19s.77-4.65,2.31-6.19c1.52-1.56,3.55-2.34,6.1-2.34s4.57.81,6.13,2.43c1.52,1.64,2.27,3.83,2.27,6.57ZM64.51,157.15c-2.02,0-3.21,1.07-3.57,3.22h7.2c-.17-1.01-.57-1.8-1.2-2.37-.63-.57-1.44-.85-2.43-.85Z"/>
      <path class="st1" d="M84.35,153.65c.08,0,.44.02,1.07.06v4.48h-1.26c-2.88,0-4.33,1.47-4.33,4.42v7.58h-4.93v-16.3h4.8v3.03c.76-2.19,2.31-3.28,4.64-3.28Z"/>
      <path class="st1" d="M104.75,163v-9.1h4.93v16.3h-4.8v-2.31c-1.26,1.79-2.97,2.68-5.12,2.68-1.73,0-3.1-.52-4.12-1.56-1.02-1.04-1.53-2.52-1.53-4.44v-10.68h4.93v9.7c0,1.85.87,2.78,2.62,2.78.88,0,1.62-.29,2.21-.88.59-.59.88-1.42.88-2.49Z"/>
      <path class="st1" d="M117.07,170.2h-4.93v-22.49h4.93v22.49Z"/>
      <path class="st1" d="M128.97,153.9v3.6h-3.13v7.61c0,.55.14.92.41,1.12.27.2.76.3,1.45.3h1.26v3.66c-.59.08-1.35.13-2.27.13-2.04,0-3.52-.36-4.42-1.09-.91-.73-1.36-1.92-1.36-3.58v-8.15h-2.43v-3.6h2.43v-4.83h4.93v4.83h3.13Z"/>
      <path class="st1" d="M140.12,153.65c.08,0,.44.02,1.07.06v4.48h-1.26c-2.88,0-4.33,1.47-4.33,4.42v7.58h-4.93v-16.3h4.8v3.03c.76-2.19,2.31-3.28,4.64-3.28Z"/>
      <path class="st1" d="M157.65,170.2h-4.96c-.25-.48-.39-1.09-.41-1.83-1.09,1.47-2.83,2.21-5.21,2.21-1.79,0-3.23-.44-4.31-1.33-1.08-.88-1.63-2.11-1.63-3.66,0-3.03,2.13-4.73,6.38-5.08l2.56-.22c1.41-.15,2.12-.68,2.12-1.61,0-1.09-.83-1.64-2.49-1.64-1.01,0-1.72.15-2.13.46-.41.31-.66.87-.74,1.69h-4.9c.29-3.77,2.89-5.65,7.8-5.65s7.26,1.67,7.26,5.02v8.65c0,1.37.22,2.37.66,3ZM148.55,167.26c1.12,0,2-.29,2.65-.87.65-.58.98-1.45.98-2.61v-1.2c-.29.32-.84.53-1.64.63l-2.02.22c-1.58.17-2.37.82-2.37,1.96,0,.57.21,1.02.63,1.36.42.34,1.01.51,1.77.51Z"/>
      <path class="st1" d="M171.13,170.2h-4.93v-16.3h4.93v16.3ZM171.04,152.04h-4.71v-4.17h4.71v4.17Z"/>
      <path class="st1" d="M183.55,153.52c1.73,0,3.1.52,4.12,1.56,1.02,1.04,1.53,2.52,1.53,4.44v10.67h-4.93v-9.7c0-1.85-.87-2.78-2.62-2.78-.88,0-1.62.29-2.21.88s-.88,1.42-.88,2.5v9.1h-4.93v-16.3h4.8v2.31c1.26-1.79,2.97-2.68,5.12-2.68Z"/>
      <path class="st1" d="M199.37,170.58c-2.55,0-4.58-.78-6.1-2.34-1.52-1.56-2.27-3.62-2.27-6.19s.76-4.68,2.27-6.22c1.52-1.54,3.55-2.31,6.1-2.31,2.23,0,4.06.58,5.48,1.75s2.25,2.75,2.48,4.75h-4.9c-.27-1.66-1.29-2.5-3.06-2.5-2.25,0-3.38,1.51-3.38,4.52s1.13,4.48,3.38,4.48c1.9,0,2.95-.92,3.16-2.75h4.9c-.15,2.06-.96,3.72-2.43,4.96-1.47,1.22-3.35,1.83-5.62,1.83Z"/>
      <path class="st1" d="M218.35,153.65c.08,0,.44.02,1.07.06v4.48h-1.26c-2.88,0-4.33,1.47-4.33,4.42v7.58h-4.93v-16.3h4.8v3.03c.76-2.19,2.31-3.28,4.64-3.28Z"/>
      <path class="st1" d="M236.57,162.52v.98h-12.06c.17,1.12.58,1.97,1.23,2.56.65.59,1.48.88,2.5.88,1.6,0,2.69-.61,3.28-1.83h4.67c-.44,1.69-1.38,3.02-2.81,4-1.43.98-3.15,1.47-5.15,1.47-2.53,0-4.57-.78-6.13-2.34-1.56-1.56-2.34-3.62-2.34-6.19s.77-4.65,2.31-6.19c1.52-1.56,3.55-2.34,6.1-2.34s4.57.81,6.13,2.43c1.52,1.64,2.27,3.83,2.27,6.57ZM228.11,157.15c-2.02,0-3.21,1.07-3.57,3.22h7.2c-.17-1.01-.57-1.8-1.2-2.37-.63-.57-1.44-.85-2.43-.85Z"/>
      <path class="st1" d="M249.71,155.86v-8.15h4.93v22.49h-4.8v-2.12c-1.09,1.66-2.73,2.5-4.9,2.5s-3.92-.77-5.18-2.31c-1.28-1.54-1.93-3.61-1.93-6.22s.64-4.68,1.93-6.22c1.26-1.54,2.99-2.31,5.18-2.31,2.06,0,3.65.78,4.77,2.34ZM246.3,166.63c2.34,0,3.51-1.53,3.51-4.58s-1.17-4.58-3.51-4.58c-1.1,0-1.95.41-2.56,1.22-.61.81-.92,1.97-.92,3.49,0,2.97,1.16,4.45,3.47,4.45Z"/>
      <path class="st1" d="M262.03,170.2h-4.93v-16.3h4.93v16.3ZM261.93,152.04h-4.71v-4.17h4.71v4.17Z"/>
      <path class="st1" d="M274.25,153.52c2.19,0,3.93.77,5.21,2.31,1.26,1.54,1.89,3.61,1.89,6.22s-.63,4.69-1.89,6.22c-1.29,1.54-3.02,2.31-5.21,2.31s-3.81-.85-4.93-2.56v2.18h-4.8v-22.49h4.93v8.18c1.12-1.58,2.72-2.37,4.8-2.37ZM272.89,166.63c1.09,0,1.95-.41,2.56-1.22.61-.81.92-1.97.92-3.49,0-2.97-1.16-4.45-3.47-4.45s-3.51,1.53-3.51,4.58,1.17,4.58,3.51,4.58Z"/>
      <path class="st1" d="M288.08,170.2h-4.93v-22.49h4.93v22.49Z"/>
      <path class="st1" d="M306.72,162.52v.98h-12.06c.17,1.12.58,1.97,1.23,2.56s1.48.88,2.5.88c1.6,0,2.7-.61,3.29-1.83h4.67c-.44,1.69-1.38,3.02-2.81,4-1.43.98-3.15,1.47-5.15,1.47-2.53,0-4.57-.78-6.13-2.34-1.56-1.56-2.34-3.62-2.34-6.19s.77-4.65,2.31-6.19c1.52-1.56,3.55-2.34,6.1-2.34s4.57.81,6.13,2.43c1.52,1.64,2.27,3.83,2.27,6.57ZM298.25,157.15c-2.02,0-3.21,1.07-3.57,3.22h7.2c-.17-1.01-.57-1.8-1.2-2.37s-1.44-.85-2.43-.85Z"/>
      <path class="st1" d="M313.29,170.2h-5.56v-5.43h5.56v5.43Z"/>
    </g>
  </g>
</svg>