<?xml version="1.0" encoding="UTF-8"?>
<svg id="Layer_1" xmlns="http://www.w3.org/2000/svg" version="1.1" viewBox="0 0 444.08 135.91">
  <!-- Generator: Adobe Illustrator 30.0.0, SVG Export Plug-In . SVG Version: 2.1.1 Build 123)  -->
  <defs>
    <style>
      .st0, .st1 {
        fill: #fff;
      }

      .st0, .st2, .st3 {
        font-size: 31.58px;
        font-weight: 700;
        letter-spacing: -.01em;
      }

      .st0, .st3 {
        font-family: HelveticaNowDisplay-Bold, 'Helvetica Now Display';
      }

      .st4, .st2, .st3 {
        fill: #231f20;
      }

      .st5 {
        fill: #32ff00;
      }

      .st2 {
        font-family: HelveticaNowDisplay-ExtraBold, 'Helvetica Now Display';
      }
    </style>
  </defs>
  <g>
    <text class="st3" transform="translate(3.73 122.37)"><tspan x="0" y="0">just click the link below.</tspan></text>
    <rect class="st4" y="92.33" width="330.22" height="43.58"/>
    <text class="st0" transform="translate(3.73 122.37)"><tspan x="0" y="0">just click the link below.</tspan></text>
  </g>
  <g>
    <text class="st3" transform="translate(3 30.03)"><tspan x="0" y="0">ah, so you are the “reader” type.</tspan></text>
    <rect class="st4" width="444.08" height="43.58"/>
    <text class="st0" transform="translate(3 30.03)"><tspan x="0" y="0">ah, so you are the “reader” type.</tspan></text>
  </g>
  <g>
    <text class="st2" transform="translate(3 76.07)"><tspan x="0" y="0">no worries. i gotchu.</tspan></text>
    <rect class="st5" y="46.04" width="295.51" height="43.84"/>
    <text class="st2" transform="translate(3 76.07)"><tspan x="0" y="0">no worries. i gotchu.</tspan></text>
  </g>
  <g>
    <g>
      <path class="st4" d="M4.52,128.65c-.13,0-.63-.02-1.52-.06v-3.13h.79c1.03,0,1.55-.47,1.55-1.42v-17.97h3.98v18.41c0,1.45-.39,2.51-1.18,3.17-.79.66-2,1-3.62,1ZM9.29,103.95h-3.92v-3.73h3.92v3.73Z"/>
      <path class="st4" d="M22.83,115.2v-9.13h3.98v16.3h-3.85v-2.37c-1.24,1.83-2.95,2.75-5.12,2.75-1.75,0-3.13-.51-4.15-1.53s-1.53-2.47-1.53-4.34v-10.8h3.98v10.14c0,2.06,1.02,3.09,3.06,3.09,1.01,0,1.87-.36,2.57-1.09.71-.73,1.06-1.73,1.06-3.02Z"/>
      <path class="st4" d="M36.07,122.81c-4.76,0-7.24-1.87-7.45-5.62h3.88c.1,1.01.44,1.73,1,2.15.56.42,1.44.63,2.64.63,2.15,0,3.22-.65,3.22-1.96,0-.59-.23-1.04-.7-1.36-.46-.32-1.29-.58-2.5-.79l-1.86-.32c-3.56-.59-5.34-2.23-5.34-4.93,0-1.54.59-2.74,1.77-3.62,1.18-.87,2.84-1.31,4.99-1.31,4.65,0,7.05,1.84,7.2,5.53h-3.76c-.04-.97-.35-1.66-.92-2.07-.57-.41-1.41-.62-2.53-.62-1.9,0-2.84.63-2.84,1.89,0,.55.21.97.63,1.28.42.31,1.12.54,2.08.71l2.05.32c1.98.36,3.42.93,4.31,1.71.89.78,1.34,1.86,1.34,3.25,0,1.64-.63,2.91-1.89,3.79-1.26.88-3.04,1.33-5.34,1.33Z"/>
      <path class="st4" d="M53.28,106.07v3.03h-3.22v8.81c0,.53.14.9.43,1.11.28.21.76.32,1.44.32h1.36v3.03c-.86.08-1.56.13-2.08.13-1.77,0-3.06-.33-3.87-1-.81-.66-1.22-1.72-1.22-3.17v-9.22h-2.53v-3.03h2.53v-4.74h3.95v4.74h3.22Z"/>
      <path class="st4" d="M69.01,122.74c-2.4,0-4.35-.78-5.84-2.34-1.47-1.54-2.21-3.6-2.21-6.19s.74-4.68,2.21-6.22c1.45-1.54,3.4-2.31,5.84-2.31,2.13,0,3.86.56,5.21,1.69,1.35,1.13,2.14,2.65,2.37,4.56h-3.98c-.19-.95-.6-1.67-1.23-2.18-.63-.5-1.42-.76-2.37-.76-1.24,0-2.22.45-2.92,1.34-.71.89-1.06,2.18-1.06,3.87s.36,2.97,1.07,3.87c.72.9,1.68,1.34,2.91,1.34.97,0,1.78-.27,2.45-.81s1.07-1.31,1.22-2.32h3.98c-.21,1.96-1.01,3.52-2.4,4.69-1.39,1.17-3.14,1.75-5.24,1.75Z"/>
      <path class="st4" d="M82.43,122.37h-3.98v-22.49h3.98v22.49Z"/>
      <path class="st4" d="M89.25,122.37h-3.98v-16.3h3.98v16.3ZM89.22,103.95h-3.92v-3.73h3.92v3.73Z"/>
      <path class="st4" d="M99.42,122.74c-2.4,0-4.35-.78-5.84-2.34-1.47-1.54-2.21-3.6-2.21-6.19s.74-4.68,2.21-6.22c1.45-1.54,3.4-2.31,5.84-2.31,2.13,0,3.86.56,5.21,1.69,1.35,1.13,2.14,2.65,2.37,4.56h-3.98c-.19-.95-.6-1.67-1.23-2.18-.63-.5-1.42-.76-2.37-.76-1.24,0-2.22.45-2.92,1.34-.71.89-1.06,2.18-1.06,3.87s.36,2.97,1.07,3.87c.72.9,1.68,1.34,2.91,1.34.97,0,1.78-.27,2.45-.81s1.07-1.31,1.22-2.32h3.98c-.21,1.96-1.01,3.52-2.4,4.69-1.39,1.17-3.14,1.75-5.24,1.75Z"/>
      <path class="st4" d="M124.53,122.37h-4.55l-4.74-7.58-2.46,2.46v5.12h-3.92v-22.49h3.92v12.95l6.63-6.76h4.74l-6.16,6.16,6.54,10.14Z"/>
      <path class="st4" d="M140.79,106.07v3.03h-3.22v8.81c0,.53.14.9.43,1.11.28.21.76.32,1.44.32h1.36v3.03c-.86.08-1.56.13-2.08.13-1.77,0-3.06-.33-3.87-1s-1.22-1.72-1.22-3.17v-9.22h-2.53v-3.03h2.53v-4.74h3.95v4.74h3.22Z"/>
      <path class="st4" d="M151.69,105.69c1.77,0,3.16.51,4.18,1.53s1.53,2.47,1.53,4.34v10.8h-3.98v-10.14c0-2.06-1.02-3.1-3.06-3.1-1.01,0-1.87.36-2.57,1.09-.71.73-1.06,1.73-1.06,3.02v9.13h-3.98v-22.49h3.98v8.37c1.24-1.71,2.89-2.56,4.96-2.56Z"/>
      <path class="st4" d="M175.63,114.5v.95h-12.19c.15,1.39.58,2.44,1.31,3.14.73.71,1.7,1.06,2.92,1.06,1.81,0,3.05-.78,3.73-2.34h3.82c-.42,1.66-1.31,2.98-2.65,3.96-1.35.98-2.99,1.47-4.93,1.47-2.42,0-4.38-.78-5.88-2.34-1.5-1.56-2.24-3.62-2.24-6.19s.74-4.63,2.21-6.19c1.5-1.56,3.44-2.34,5.84-2.34s4.42.81,5.88,2.43c1.45,1.62,2.18,3.75,2.18,6.38ZM167.54,108.79c-2.34,0-3.7,1.29-4.07,3.88h8.18c-.17-1.2-.61-2.15-1.33-2.84-.72-.7-1.64-1.04-2.78-1.04Z"/>
      <path class="st4" d="M188.23,122.37h-3.98v-22.49h3.98v22.49Z"/>
      <path class="st4" d="M195.05,122.37h-3.98v-16.3h3.98v16.3ZM195.02,103.95h-3.92v-3.73h3.92v3.73Z"/>
      <path class="st4" d="M206.83,105.69c1.77,0,3.16.51,4.18,1.53s1.53,2.47,1.53,4.34v10.8h-3.98v-10.14c0-2.06-1.02-3.1-3.06-3.1-1.01,0-1.87.36-2.57,1.09-.71.73-1.06,1.73-1.06,3.02v9.13h-3.98v-16.3h3.85v2.34c1.24-1.81,2.94-2.72,5.08-2.72Z"/>
      <path class="st4" d="M231.05,122.37h-4.55l-4.74-7.58-2.46,2.46v5.12h-3.92v-22.49h3.92v12.95l6.63-6.76h4.74l-6.16,6.16,6.54,10.14Z"/>
      <path class="st4" d="M247.86,105.69c2.23,0,4.01.77,5.34,2.31,1.31,1.56,1.96,3.63,1.96,6.22s-.65,4.63-1.96,6.19c-1.33,1.56-3.11,2.34-5.34,2.34s-4.03-.9-5.21-2.72v2.34h-3.82v-22.49h3.98v8.31c1.16-1.66,2.84-2.5,5.05-2.5ZM243.84,118.1c.72.91,1.74,1.36,3.06,1.36s2.34-.47,3.1-1.42c.74-.93,1.11-2.24,1.11-3.95s-.36-2.93-1.09-3.81c-.73-.87-1.76-1.31-3.11-1.31s-2.36.45-3.09,1.36c-.74.91-1.11,2.2-1.11,3.88s.38,3,1.14,3.88Z"/>
      <path class="st4" d="M272.65,114.5v.95h-12.19c.15,1.39.58,2.44,1.31,3.14.73.71,1.7,1.06,2.92,1.06,1.81,0,3.05-.78,3.73-2.34h3.82c-.42,1.66-1.31,2.98-2.65,3.96-1.35.98-2.99,1.47-4.93,1.47-2.42,0-4.38-.78-5.88-2.34-1.5-1.56-2.24-3.62-2.24-6.19s.74-4.63,2.21-6.19c1.5-1.56,3.44-2.34,5.84-2.34s4.42.81,5.87,2.43c1.45,1.62,2.18,3.75,2.18,6.38ZM264.56,108.79c-2.34,0-3.7,1.29-4.07,3.88h8.18c-.17-1.2-.61-2.15-1.33-2.84-.72-.7-1.64-1.04-2.78-1.04Z"/>
      <path class="st4" d="M278.81,122.37h-3.98v-22.49h3.98v22.49Z"/>
      <path class="st4" d="M295.23,120.41c-1.52,1.56-3.52,2.34-6,2.34s-4.48-.78-6-2.34c-1.54-1.54-2.31-3.6-2.31-6.19s.77-4.65,2.31-6.19c1.52-1.56,3.52-2.34,6-2.34s4.49.77,6,2.31c1.52,1.54,2.27,3.61,2.27,6.22s-.76,4.63-2.27,6.19ZM286.12,118.1c.75.91,1.78,1.36,3.11,1.36s2.36-.46,3.11-1.37c.75-.92,1.12-2.21,1.12-3.87s-.37-2.95-1.12-3.87c-.75-.92-1.78-1.37-3.11-1.37s-2.36.45-3.11,1.36c-.75.91-1.12,2.2-1.12,3.88s.37,2.98,1.12,3.88Z"/>
      <path class="st4" d="M317.08,112.16l1.83-6.1h4.26l-5.37,16.3h-4.17l-2.05-6.7c-.78-2.74-1.24-4.36-1.39-4.86-.06.23-.52,1.85-1.36,4.86l-2.02,6.7h-4.17l-5.37-16.3h4.26l1.83,6.1c.46,1.45,1,3.34,1.61,5.65.59-2.34,1.11-4.23,1.55-5.68l1.8-6.06h3.79l1.8,6.06c.44,1.45.96,3.35,1.55,5.68.55-2.08,1.08-3.97,1.61-5.65Z"/>
      <path class="st4" d="M326.02,122.37h-4.64v-4.52h4.64v4.52Z"/>
    </g>
    <rect class="st4" y="96.88" width="329.02" height="34.77"/>
    <g>
      <path class="st1" d="M4.52,128.65c-.13,0-.63-.02-1.52-.06v-3.13h.79c1.03,0,1.55-.47,1.55-1.42v-17.97h3.98v18.41c0,1.45-.39,2.51-1.18,3.17-.79.66-2,1-3.62,1ZM9.29,103.95h-3.92v-3.73h3.92v3.73Z"/>
      <path class="st1" d="M22.83,115.2v-9.13h3.98v16.3h-3.85v-2.37c-1.24,1.83-2.95,2.75-5.12,2.75-1.75,0-3.13-.51-4.15-1.53s-1.53-2.47-1.53-4.34v-10.8h3.98v10.14c0,2.06,1.02,3.09,3.06,3.09,1.01,0,1.87-.36,2.57-1.09.71-.73,1.06-1.73,1.06-3.02Z"/>
      <path class="st1" d="M36.07,122.81c-4.76,0-7.24-1.87-7.45-5.62h3.88c.1,1.01.44,1.73,1,2.15.56.42,1.44.63,2.64.63,2.15,0,3.22-.65,3.22-1.96,0-.59-.23-1.04-.7-1.36-.46-.32-1.29-.58-2.5-.79l-1.86-.32c-3.56-.59-5.34-2.23-5.34-4.93,0-1.54.59-2.74,1.77-3.62,1.18-.87,2.84-1.31,4.99-1.31,4.65,0,7.05,1.84,7.2,5.53h-3.76c-.04-.97-.35-1.66-.92-2.07-.57-.41-1.41-.62-2.53-.62-1.9,0-2.84.63-2.84,1.89,0,.55.21.97.63,1.28.42.31,1.12.54,2.08.71l2.05.32c1.98.36,3.42.93,4.31,1.71.89.78,1.34,1.86,1.34,3.25,0,1.64-.63,2.91-1.89,3.79-1.26.88-3.04,1.33-5.34,1.33Z"/>
      <path class="st1" d="M53.28,106.07v3.03h-3.22v8.81c0,.53.14.9.43,1.11.28.21.76.32,1.44.32h1.36v3.03c-.86.08-1.56.13-2.08.13-1.77,0-3.06-.33-3.87-1-.81-.66-1.22-1.72-1.22-3.17v-9.22h-2.53v-3.03h2.53v-4.74h3.95v4.74h3.22Z"/>
      <path class="st1" d="M69.01,122.74c-2.4,0-4.35-.78-5.84-2.34-1.47-1.54-2.21-3.6-2.21-6.19s.74-4.68,2.21-6.22c1.45-1.54,3.4-2.31,5.84-2.31,2.13,0,3.86.56,5.21,1.69,1.35,1.13,2.14,2.65,2.37,4.56h-3.98c-.19-.95-.6-1.67-1.23-2.18-.63-.5-1.42-.76-2.37-.76-1.24,0-2.22.45-2.92,1.34-.71.89-1.06,2.18-1.06,3.87s.36,2.97,1.07,3.87c.72.9,1.68,1.34,2.91,1.34.97,0,1.78-.27,2.45-.81s1.07-1.31,1.22-2.32h3.98c-.21,1.96-1.01,3.52-2.4,4.69-1.39,1.17-3.14,1.75-5.24,1.75Z"/>
      <path class="st1" d="M82.43,122.37h-3.98v-22.49h3.98v22.49Z"/>
      <path class="st1" d="M89.25,122.37h-3.98v-16.3h3.98v16.3ZM89.22,103.95h-3.92v-3.73h3.92v3.73Z"/>
      <path class="st1" d="M99.42,122.74c-2.4,0-4.35-.78-5.84-2.34-1.47-1.54-2.21-3.6-2.21-6.19s.74-4.68,2.21-6.22c1.45-1.54,3.4-2.31,5.84-2.31,2.13,0,3.86.56,5.21,1.69,1.35,1.13,2.14,2.65,2.37,4.56h-3.98c-.19-.95-.6-1.67-1.23-2.18-.63-.5-1.42-.76-2.37-.76-1.24,0-2.22.45-2.92,1.34-.71.89-1.06,2.18-1.06,3.87s.36,2.97,1.07,3.87c.72.9,1.68,1.34,2.91,1.34.97,0,1.78-.27,2.45-.81s1.07-1.31,1.22-2.32h3.98c-.21,1.96-1.01,3.52-2.4,4.69-1.39,1.17-3.14,1.75-5.24,1.75Z"/>
      <path class="st1" d="M124.53,122.37h-4.55l-4.74-7.58-2.46,2.46v5.12h-3.92v-22.49h3.92v12.95l6.63-6.76h4.74l-6.16,6.16,6.54,10.14Z"/>
      <path class="st1" d="M140.79,106.07v3.03h-3.22v8.81c0,.53.14.9.43,1.11.28.21.76.32,1.44.32h1.36v3.03c-.86.08-1.56.13-2.08.13-1.77,0-3.06-.33-3.87-1s-1.22-1.72-1.22-3.17v-9.22h-2.53v-3.03h2.53v-4.74h3.95v4.74h3.22Z"/>
      <path class="st1" d="M151.69,105.69c1.77,0,3.16.51,4.18,1.53s1.53,2.47,1.53,4.34v10.8h-3.98v-10.14c0-2.06-1.02-3.1-3.06-3.1-1.01,0-1.87.36-2.57,1.09-.71.73-1.06,1.73-1.06,3.02v9.13h-3.98v-22.49h3.98v8.37c1.24-1.71,2.89-2.56,4.96-2.56Z"/>
      <path class="st1" d="M175.63,114.5v.95h-12.19c.15,1.39.58,2.44,1.31,3.14.73.71,1.7,1.06,2.92,1.06,1.81,0,3.05-.78,3.73-2.34h3.82c-.42,1.66-1.31,2.98-2.65,3.96-1.35.98-2.99,1.47-4.93,1.47-2.42,0-4.38-.78-5.88-2.34-1.5-1.56-2.24-3.62-2.24-6.19s.74-4.63,2.21-6.19c1.5-1.56,3.44-2.34,5.84-2.34s4.42.81,5.88,2.43c1.45,1.62,2.18,3.75,2.18,6.38ZM167.54,108.79c-2.34,0-3.7,1.29-4.07,3.88h8.18c-.17-1.2-.61-2.15-1.33-2.84-.72-.7-1.64-1.04-2.78-1.04Z"/>
      <path class="st1" d="M188.23,122.37h-3.98v-22.49h3.98v22.49Z"/>
      <path class="st1" d="M195.05,122.37h-3.98v-16.3h3.98v16.3ZM195.02,103.95h-3.92v-3.73h3.92v3.73Z"/>
      <path class="st1" d="M206.83,105.69c1.77,0,3.16.51,4.18,1.53s1.53,2.47,1.53,4.34v10.8h-3.98v-10.14c0-2.06-1.02-3.1-3.06-3.1-1.01,0-1.87.36-2.57,1.09-.71.73-1.06,1.73-1.06,3.02v9.13h-3.98v-16.3h3.85v2.34c1.24-1.81,2.94-2.72,5.08-2.72Z"/>
      <path class="st1" d="M231.05,122.37h-4.55l-4.74-7.58-2.46,2.46v5.12h-3.92v-22.49h3.92v12.95l6.63-6.76h4.74l-6.16,6.16,6.54,10.14Z"/>
      <path class="st1" d="M247.86,105.69c2.23,0,4.01.77,5.34,2.31,1.31,1.56,1.96,3.63,1.96,6.22s-.65,4.63-1.96,6.19c-1.33,1.56-3.11,2.34-5.34,2.34s-4.03-.9-5.21-2.72v2.34h-3.82v-22.49h3.98v8.31c1.16-1.66,2.84-2.5,5.05-2.5ZM243.84,118.1c.72.91,1.74,1.36,3.06,1.36s2.34-.47,3.1-1.42c.74-.93,1.11-2.24,1.11-3.95s-.36-2.93-1.09-3.81c-.73-.87-1.76-1.31-3.11-1.31s-2.36.45-3.09,1.36c-.74.91-1.11,2.2-1.11,3.88s.38,3,1.14,3.88Z"/>
      <path class="st1" d="M272.65,114.5v.95h-12.19c.15,1.39.58,2.44,1.31,3.14.73.71,1.7,1.06,2.92,1.06,1.81,0,3.05-.78,3.73-2.34h3.82c-.42,1.66-1.31,2.98-2.65,3.96-1.35.98-2.99,1.47-4.93,1.47-2.42,0-4.38-.78-5.88-2.34-1.5-1.56-2.24-3.62-2.24-6.19s.74-4.63,2.21-6.19c1.5-1.56,3.44-2.34,5.84-2.34s4.42.81,5.87,2.43c1.45,1.62,2.18,3.75,2.18,6.38ZM264.56,108.79c-2.34,0-3.7,1.29-4.07,3.88h8.18c-.17-1.2-.61-2.15-1.33-2.84-.72-.7-1.64-1.04-2.78-1.04Z"/>
      <path class="st1" d="M278.81,122.37h-3.98v-22.49h3.98v22.49Z"/>
      <path class="st1" d="M295.23,120.41c-1.52,1.56-3.52,2.34-6,2.34s-4.48-.78-6-2.34c-1.54-1.54-2.31-3.6-2.31-6.19s.77-4.65,2.31-6.19c1.52-1.56,3.52-2.34,6-2.34s4.49.77,6,2.31c1.52,1.54,2.27,3.61,2.27,6.22s-.76,4.63-2.27,6.19ZM286.12,118.1c.75.91,1.78,1.36,3.11,1.36s2.36-.46,3.11-1.37c.75-.92,1.12-2.21,1.12-3.87s-.37-2.95-1.12-3.87c-.75-.92-1.78-1.37-3.11-1.37s-2.36.45-3.11,1.36c-.75.91-1.12,2.2-1.12,3.88s.37,2.98,1.12,3.88Z"/>
      <path class="st1" d="M317.08,112.16l1.83-6.1h4.26l-5.37,16.3h-4.17l-2.05-6.7c-.78-2.74-1.24-4.36-1.39-4.86-.06.23-.52,1.85-1.36,4.86l-2.02,6.7h-4.17l-5.37-16.3h4.26l1.83,6.1c.46,1.45,1,3.34,1.61,5.65.59-2.34,1.11-4.23,1.55-5.68l1.8-6.06h3.79l1.8,6.06c.44,1.45.96,3.35,1.55,5.68.55-2.08,1.08-3.97,1.61-5.65Z"/>
      <path class="st1" d="M326.02,122.37h-4.64v-4.52h4.64v4.52Z"/>
    </g>
  </g>
  <g>
    <g>
      <path class="st4" d="M18.54,30.04h-3.98c-.19-.34-.34-1-.44-1.99-1.09,1.58-2.84,2.37-5.24,2.37-1.79,0-3.22-.43-4.28-1.29s-1.59-2.06-1.59-3.6c0-2.97,2.08-4.66,6.25-5.08l2.46-.22c.82-.11,1.41-.3,1.77-.58.36-.28.54-.71.54-1.28,0-.7-.23-1.21-.68-1.53-.45-.33-1.22-.49-2.29-.49-1.16,0-1.99.19-2.5.58-.5.39-.8,1.06-.88,2.01h-3.92c.23-3.71,2.67-5.56,7.33-5.56s6.79,1.63,6.79,4.9v8.68c0,1.43.22,2.46.66,3.1ZM9.82,27.57c1.24,0,2.25-.34,3.03-1.03.78-.68,1.17-1.67,1.17-2.95v-1.48c-.38.34-1,.56-1.86.66l-2.15.25c-1.05.13-1.81.37-2.26.74-.45.37-.68.9-.68,1.59s.24,1.24.71,1.63,1.15.58,2.04.58Z"/>
      <path class="st4" d="M29.37,13.36c1.77,0,3.16.51,4.18,1.53,1.02,1.02,1.53,2.47,1.53,4.34v10.8h-3.98v-10.14c0-2.06-1.02-3.09-3.06-3.09-1.01,0-1.87.36-2.57,1.09-.71.73-1.06,1.73-1.06,3.02v9.13h-3.98V7.55h3.98v8.37c1.24-1.71,2.89-2.56,4.96-2.56Z"/>
      <path class="st4" d="M37.52,30.04v-4.52h4.64v4.86c0,2.97-1.36,4.51-4.07,4.61h-.57v-2.27l.54-.03c.97-.06,1.45-.77,1.45-2.12v-.54h-1.99Z"/>
      <path class="st4" d="M57.45,30.48c-4.76,0-7.24-1.87-7.45-5.62h3.88c.1,1.01.44,1.73,1,2.15.56.42,1.44.63,2.64.63,2.15,0,3.22-.65,3.22-1.96,0-.59-.23-1.04-.7-1.36s-1.29-.58-2.5-.79l-1.86-.32c-3.56-.59-5.34-2.23-5.34-4.93,0-1.54.59-2.74,1.77-3.62,1.18-.87,2.84-1.31,4.99-1.31,4.65,0,7.05,1.84,7.2,5.53h-3.76c-.04-.97-.35-1.66-.92-2.07-.57-.41-1.41-.62-2.53-.62-1.9,0-2.84.63-2.84,1.89,0,.55.21.97.63,1.28.42.31,1.12.54,2.08.71l2.05.32c1.98.36,3.42.93,4.31,1.71.89.78,1.34,1.86,1.34,3.25,0,1.64-.63,2.91-1.89,3.79-1.26.88-3.04,1.33-5.34,1.33Z"/>
      <path class="st4" d="M80,28.08c-1.52,1.56-3.52,2.34-6,2.34s-4.48-.78-6-2.34c-1.54-1.54-2.31-3.6-2.31-6.19s.77-4.65,2.31-6.19c1.52-1.56,3.52-2.34,6-2.34s4.48.77,6,2.31c1.52,1.54,2.27,3.61,2.27,6.22s-.76,4.63-2.27,6.19ZM70.89,25.77c.75.91,1.79,1.36,3.11,1.36s2.36-.46,3.11-1.37c.75-.92,1.12-2.21,1.12-3.87s-.37-2.95-1.12-3.87c-.75-.92-1.78-1.37-3.11-1.37s-2.36.45-3.11,1.36-1.12,2.2-1.12,3.88.37,2.98,1.12,3.88Z"/>
      <path class="st4" d="M100.15,17.84l1.33-4.11h4.17l-6.28,17.62c-.67,1.85-1.52,3.13-2.53,3.82-1.03.72-2.53,1.07-4.48,1.07-.65,0-1.23-.03-1.74-.09v-3.13h1.52c.86,0,1.53-.24,1.99-.73s.7-1.12.7-1.89-.25-1.87-.76-3.29l-4.74-13.39h4.3l1.33,4.07c.93,2.91,1.79,5.94,2.59,9.1.63-2.38,1.5-5.4,2.62-9.06Z"/>
      <path class="st4" d="M119.7,28.08c-1.52,1.56-3.52,2.34-6,2.34s-4.48-.78-6-2.34c-1.54-1.54-2.31-3.6-2.31-6.19s.77-4.65,2.31-6.19c1.52-1.56,3.52-2.34,6-2.34s4.49.77,6,2.31,2.27,3.61,2.27,6.22-.76,4.63-2.27,6.19ZM110.58,25.77c.75.91,1.78,1.36,3.11,1.36s2.36-.46,3.11-1.37c.75-.92,1.12-2.21,1.12-3.87s-.37-2.95-1.12-3.87c-.75-.92-1.78-1.37-3.11-1.37s-2.36.45-3.11,1.36c-.75.91-1.12,2.2-1.12,3.88s.37,2.98,1.12,3.88Z"/>
      <path class="st4" d="M134.35,22.87v-9.13h3.98v16.3h-3.85v-2.37c-1.24,1.83-2.95,2.75-5.12,2.75-1.75,0-3.13-.51-4.15-1.53-1.02-1.02-1.53-2.47-1.53-4.34v-10.8h3.98v10.14c0,2.06,1.02,3.1,3.06,3.1,1.01,0,1.87-.36,2.57-1.09s1.06-1.73,1.06-3.02Z"/>
      <path class="st4" d="M162.27,30.04h-3.98c-.19-.34-.34-1-.44-1.99-1.1,1.58-2.84,2.37-5.24,2.37-1.79,0-3.22-.43-4.28-1.29-1.06-.86-1.59-2.06-1.59-3.6,0-2.97,2.08-4.66,6.25-5.08l2.46-.22c.82-.11,1.41-.3,1.77-.58.36-.28.54-.71.54-1.28,0-.7-.23-1.21-.68-1.53-.45-.33-1.22-.49-2.29-.49-1.16,0-1.99.19-2.49.58-.51.39-.8,1.06-.88,2.01h-3.92c.23-3.71,2.67-5.56,7.33-5.56s6.79,1.63,6.79,4.9v8.68c0,1.43.22,2.46.66,3.1ZM153.55,27.57c1.24,0,2.25-.34,3.03-1.03.78-.68,1.17-1.67,1.17-2.95v-1.48c-.38.34-1,.56-1.86.66l-2.15.25c-1.05.13-1.81.37-2.26.74-.45.37-.68.9-.68,1.59s.24,1.24.71,1.63,1.15.58,2.04.58Z"/>
      <path class="st4" d="M172.98,13.49c.36,0,.68.02.98.06v3.66h-1.01c-1.52,0-2.68.38-3.49,1.15s-1.22,1.9-1.22,3.39v8.28h-3.98V13.74h3.85v2.91c.9-2.1,2.53-3.16,4.86-3.16Z"/>
      <path class="st4" d="M190.38,22.17v.95h-12.19c.15,1.39.58,2.44,1.31,3.14.73.71,1.7,1.06,2.92,1.06,1.81,0,3.05-.78,3.73-2.34h3.82c-.42,1.66-1.31,2.98-2.65,3.96s-2.99,1.47-4.93,1.47c-2.42,0-4.38-.78-5.88-2.34-1.5-1.56-2.24-3.62-2.24-6.19s.74-4.63,2.21-6.19c1.5-1.56,3.44-2.34,5.84-2.34s4.42.81,5.88,2.43c1.45,1.62,2.18,3.75,2.18,6.38ZM182.29,16.45c-2.34,0-3.7,1.29-4.07,3.88h8.18c-.17-1.2-.61-2.15-1.33-2.84-.72-.69-1.64-1.04-2.78-1.04Z"/>
      <path class="st4" d="M207.5,13.74v3.03h-3.22v8.81c0,.53.14.89.43,1.11.28.21.76.32,1.44.32h1.36v3.03c-.86.08-1.56.13-2.08.13-1.77,0-3.06-.33-3.87-1-.81-.66-1.22-1.72-1.22-3.17v-9.22h-2.53v-3.03h2.53v-4.74h3.95v4.74h3.22Z"/>
      <path class="st4" d="M218.39,13.36c1.77,0,3.16.51,4.18,1.53,1.02,1.02,1.53,2.47,1.53,4.34v10.8h-3.98v-10.14c0-2.06-1.02-3.09-3.06-3.09-1.01,0-1.87.36-2.57,1.09-.71.73-1.06,1.73-1.06,3.02v9.13h-3.98V7.55h3.98v8.37c1.24-1.71,2.89-2.56,4.96-2.56Z"/>
      <path class="st4" d="M242.33,22.17v.95h-12.19c.15,1.39.58,2.44,1.31,3.14.73.71,1.7,1.06,2.92,1.06,1.81,0,3.05-.78,3.73-2.34h3.82c-.42,1.66-1.31,2.98-2.65,3.96-1.35.98-2.99,1.47-4.93,1.47-2.42,0-4.38-.78-5.87-2.34-1.5-1.56-2.24-3.62-2.24-6.19s.74-4.63,2.21-6.19c1.49-1.56,3.44-2.34,5.84-2.34s4.42.81,5.87,2.43c1.45,1.62,2.18,3.75,2.18,6.38ZM234.25,16.45c-2.34,0-3.7,1.29-4.07,3.88h8.18c-.17-1.2-.61-2.15-1.33-2.84-.72-.69-1.64-1.04-2.78-1.04Z"/>
      <path class="st4" d="M250.54,16.49v-4.55c0-2.82,1.27-4.27,3.82-4.36l.54-.03v2.18h-.5c-.91.08-1.36.76-1.36,2.02v.51h1.86v4.23h-4.36ZM260.62,9.73h-.51c-.91.08-1.36.76-1.36,2.02v.51h1.86v4.23h-4.33v-4.55c0-2.8,1.26-4.25,3.79-4.36l.54-.03v2.18Z"/>
      <path class="st4" d="M271.26,13.49c.36,0,.68.02.98.06v3.66h-1.01c-1.52,0-2.68.38-3.49,1.15-.81.77-1.22,1.9-1.22,3.39v8.28h-3.98V13.74h3.85v2.91c.91-2.1,2.53-3.16,4.86-3.16Z"/>
      <path class="st4" d="M288.66,22.17v.95h-12.19c.15,1.39.58,2.44,1.31,3.14.73.71,1.7,1.06,2.92,1.06,1.81,0,3.05-.78,3.73-2.34h3.82c-.42,1.66-1.31,2.98-2.65,3.96-1.35.98-2.99,1.47-4.93,1.47-2.42,0-4.38-.78-5.87-2.34-1.5-1.56-2.24-3.62-2.24-6.19s.74-4.63,2.21-6.19c1.49-1.56,3.44-2.34,5.84-2.34s4.42.81,5.87,2.43c1.45,1.62,2.18,3.75,2.18,6.38ZM280.58,16.45c-2.34,0-3.7,1.29-4.07,3.88h8.18c-.17-1.2-.61-2.15-1.33-2.84-.72-.69-1.64-1.04-2.78-1.04Z"/>
      <path class="st4" d="M305.34,30.04h-3.98c-.19-.34-.34-1-.44-1.99-1.09,1.58-2.84,2.37-5.24,2.37-1.79,0-3.22-.43-4.28-1.29s-1.59-2.06-1.59-3.6c0-2.97,2.08-4.66,6.25-5.08l2.46-.22c.82-.11,1.41-.3,1.77-.58.36-.28.54-.71.54-1.28,0-.7-.23-1.21-.68-1.53-.45-.33-1.22-.49-2.29-.49-1.16,0-1.99.19-2.5.58-.5.39-.8,1.06-.88,2.01h-3.92c.23-3.71,2.67-5.56,7.33-5.56s6.79,1.63,6.79,4.9v8.68c0,1.43.22,2.46.66,3.1ZM296.62,27.57c1.24,0,2.25-.34,3.03-1.03.78-.68,1.17-1.67,1.17-2.95v-1.48c-.38.34-1,.56-1.86.66l-2.15.25c-1.05.13-1.81.37-2.26.74-.45.37-.68.9-.68,1.59s.24,1.24.71,1.63,1.15.58,2.04.58Z"/>
      <path class="st4" d="M318.79,15.85V7.55h3.98v22.49h-3.85v-2.27c-1.2,1.77-2.92,2.65-5.15,2.65s-4.03-.78-5.34-2.34c-1.33-1.56-1.99-3.62-1.99-6.19s.66-4.68,1.99-6.22c1.28-1.54,3.06-2.31,5.34-2.31s3.86.83,5.02,2.5ZM310.52,22.01c0,1.68.37,2.96,1.11,3.82.74.86,1.76,1.29,3.06,1.29s2.34-.45,3.1-1.36c.74-.91,1.11-2.2,1.11-3.88s-.37-2.98-1.11-3.88c-.74-.91-1.77-1.36-3.1-1.36s-2.3.47-3.05,1.42c-.75.95-1.12,2.26-1.12,3.95Z"/>
      <path class="st4" d="M340.99,22.17v.95h-12.19c.15,1.39.58,2.44,1.31,3.14.73.71,1.7,1.06,2.92,1.06,1.81,0,3.05-.78,3.73-2.34h3.82c-.42,1.66-1.31,2.98-2.65,3.96s-2.99,1.47-4.93,1.47c-2.42,0-4.38-.78-5.88-2.34-1.5-1.56-2.24-3.62-2.24-6.19s.74-4.63,2.21-6.19c1.49-1.56,3.44-2.34,5.84-2.34s4.42.81,5.88,2.43c1.45,1.62,2.18,3.75,2.18,6.38ZM332.91,16.45c-2.34,0-3.7,1.29-4.07,3.88h8.18c-.17-1.2-.61-2.15-1.33-2.84-.71-.69-1.64-1.04-2.78-1.04Z"/>
      <path class="st4" d="M351.89,13.49c.36,0,.68.02.98.06v3.66h-1.01c-1.52,0-2.68.38-3.49,1.15s-1.22,1.9-1.22,3.39v8.28h-3.98V13.74h3.85v2.91c.91-2.1,2.53-3.16,4.86-3.16Z"/>
      <path class="st4" d="M356.28,11.78h-1.86v-4.23h4.36v4.58c0,2.78-1.27,4.23-3.82,4.36h-.54v-2.18h.5c.91-.06,1.36-.74,1.36-2.02v-.5ZM360.16,11.78v-4.23h4.33v4.58c0,2.78-1.27,4.23-3.82,4.36h-.5v-2.18h.5c.91-.06,1.36-.74,1.36-2.02v-.5h-1.86Z"/>
      <path class="st4" d="M381.86,13.74v3.03h-3.22v8.81c0,.53.14.89.43,1.11.28.21.76.32,1.44.32h1.36v3.03c-.86.08-1.56.13-2.08.13-1.77,0-3.06-.33-3.87-1-.81-.66-1.22-1.72-1.22-3.17v-9.22h-2.53v-3.03h2.53v-4.74h3.95v4.74h3.22Z"/>
      <path class="st4" d="M393.14,17.84l1.33-4.11h4.17l-6.29,17.62c-.67,1.85-1.52,3.13-2.53,3.82-1.03.72-2.53,1.07-4.48,1.07-.65,0-1.23-.03-1.74-.09v-3.13h1.52c.86,0,1.53-.24,1.99-.73.46-.48.69-1.12.69-1.89s-.25-1.87-.76-3.29l-4.74-13.39h4.29l1.33,4.07c.93,2.91,1.79,5.94,2.59,9.1.63-2.38,1.5-5.4,2.62-9.06Z"/>
      <path class="st4" d="M408.8,13.36c2.23,0,4.01.77,5.34,2.31,1.31,1.56,1.96,3.63,1.96,6.22s-.65,4.63-1.96,6.19c-1.33,1.56-3.11,2.34-5.34,2.34s-3.9-.83-5.05-2.5v8.31h-3.98V13.74h3.82v2.34c1.18-1.81,2.92-2.72,5.21-2.72ZM404.79,25.77c.71.91,1.74,1.36,3.06,1.36s2.34-.47,3.09-1.42c.74-.93,1.11-2.24,1.11-3.95s-.36-2.93-1.09-3.81c-.73-.87-1.76-1.31-3.11-1.31s-2.36.45-3.1,1.36-1.11,2.2-1.11,3.88.38,3,1.14,3.88Z"/>
      <path class="st4" d="M433.59,22.17v.95h-12.19c.15,1.39.58,2.44,1.31,3.14.73.71,1.7,1.06,2.92,1.06,1.81,0,3.05-.78,3.73-2.34h3.82c-.42,1.66-1.31,2.98-2.65,3.96s-2.99,1.47-4.93,1.47c-2.42,0-4.38-.78-5.87-2.34-1.5-1.56-2.24-3.62-2.24-6.19s.74-4.63,2.21-6.19c1.5-1.56,3.44-2.34,5.84-2.34s4.42.81,5.88,2.43c1.45,1.62,2.18,3.75,2.18,6.38ZM425.51,16.45c-2.34,0-3.7,1.29-4.07,3.88h8.18c-.17-1.2-.61-2.15-1.33-2.84-.72-.69-1.64-1.04-2.78-1.04Z"/>
      <path class="st4" d="M439.15,30.04h-4.64v-4.52h4.64v4.52Z"/>
    </g>
    <rect class="st4" y="4.55" width="442.15" height="34.71"/>
    <g>
      <path class="st1" d="M18.54,30.04h-3.98c-.19-.34-.34-1-.44-1.99-1.09,1.58-2.84,2.37-5.24,2.37-1.79,0-3.22-.43-4.28-1.29s-1.59-2.06-1.59-3.6c0-2.97,2.08-4.66,6.25-5.08l2.46-.22c.82-.11,1.41-.3,1.77-.58.36-.28.54-.71.54-1.28,0-.7-.23-1.21-.68-1.53-.45-.33-1.22-.49-2.29-.49-1.16,0-1.99.19-2.5.58-.5.39-.8,1.06-.88,2.01h-3.92c.23-3.71,2.67-5.56,7.33-5.56s6.79,1.63,6.79,4.9v8.68c0,1.43.22,2.46.66,3.1ZM9.82,27.57c1.24,0,2.25-.34,3.03-1.03.78-.68,1.17-1.67,1.17-2.95v-1.48c-.38.34-1,.56-1.86.66l-2.15.25c-1.05.13-1.81.37-2.26.74-.45.37-.68.9-.68,1.59s.24,1.24.71,1.63,1.15.58,2.04.58Z"/>
      <path class="st1" d="M29.37,13.36c1.77,0,3.16.51,4.18,1.53,1.02,1.02,1.53,2.47,1.53,4.34v10.8h-3.98v-10.14c0-2.06-1.02-3.09-3.06-3.09-1.01,0-1.87.36-2.57,1.09-.71.73-1.06,1.73-1.06,3.02v9.13h-3.98V7.55h3.98v8.37c1.24-1.71,2.89-2.56,4.96-2.56Z"/>
      <path class="st1" d="M37.52,30.04v-4.52h4.64v4.86c0,2.97-1.36,4.51-4.07,4.61h-.57v-2.27l.54-.03c.97-.06,1.45-.77,1.45-2.12v-.54h-1.99Z"/>
      <path class="st1" d="M57.45,30.48c-4.76,0-7.24-1.87-7.45-5.62h3.88c.1,1.01.44,1.73,1,2.15.56.42,1.44.63,2.64.63,2.15,0,3.22-.65,3.22-1.96,0-.59-.23-1.04-.7-1.36s-1.29-.58-2.5-.79l-1.86-.32c-3.56-.59-5.34-2.23-5.34-4.93,0-1.54.59-2.74,1.77-3.62,1.18-.87,2.84-1.31,4.99-1.31,4.65,0,7.05,1.84,7.2,5.53h-3.76c-.04-.97-.35-1.66-.92-2.07-.57-.41-1.41-.62-2.53-.62-1.9,0-2.84.63-2.84,1.89,0,.55.21.97.63,1.28.42.31,1.12.54,2.08.71l2.05.32c1.98.36,3.42.93,4.31,1.71.89.78,1.34,1.86,1.34,3.25,0,1.64-.63,2.91-1.89,3.79-1.26.88-3.04,1.33-5.34,1.33Z"/>
      <path class="st1" d="M80,28.08c-1.52,1.56-3.52,2.34-6,2.34s-4.48-.78-6-2.34c-1.54-1.54-2.31-3.6-2.31-6.19s.77-4.65,2.31-6.19c1.52-1.56,3.52-2.34,6-2.34s4.48.77,6,2.31c1.52,1.54,2.27,3.61,2.27,6.22s-.76,4.63-2.27,6.19ZM70.89,25.77c.75.91,1.79,1.36,3.11,1.36s2.36-.46,3.11-1.37c.75-.92,1.12-2.21,1.12-3.87s-.37-2.95-1.12-3.87c-.75-.92-1.78-1.37-3.11-1.37s-2.36.45-3.11,1.36-1.12,2.2-1.12,3.88.37,2.98,1.12,3.88Z"/>
      <path class="st1" d="M100.15,17.84l1.33-4.11h4.17l-6.28,17.62c-.67,1.85-1.52,3.13-2.53,3.82-1.03.72-2.53,1.07-4.48,1.07-.65,0-1.23-.03-1.74-.09v-3.13h1.52c.86,0,1.53-.24,1.99-.73s.7-1.12.7-1.89-.25-1.87-.76-3.29l-4.74-13.39h4.3l1.33,4.07c.93,2.91,1.79,5.94,2.59,9.1.63-2.38,1.5-5.4,2.62-9.06Z"/>
      <path class="st1" d="M119.7,28.08c-1.52,1.56-3.52,2.34-6,2.34s-4.48-.78-6-2.34c-1.54-1.54-2.31-3.6-2.31-6.19s.77-4.65,2.31-6.19c1.52-1.56,3.52-2.34,6-2.34s4.49.77,6,2.31,2.27,3.61,2.27,6.22-.76,4.63-2.27,6.19ZM110.58,25.77c.75.91,1.78,1.36,3.11,1.36s2.36-.46,3.11-1.37c.75-.92,1.12-2.21,1.12-3.87s-.37-2.95-1.12-3.87c-.75-.92-1.78-1.37-3.11-1.37s-2.36.45-3.11,1.36c-.75.91-1.12,2.2-1.12,3.88s.37,2.98,1.12,3.88Z"/>
      <path class="st1" d="M134.35,22.87v-9.13h3.98v16.3h-3.85v-2.37c-1.24,1.83-2.95,2.75-5.12,2.75-1.75,0-3.13-.51-4.15-1.53-1.02-1.02-1.53-2.47-1.53-4.34v-10.8h3.98v10.14c0,2.06,1.02,3.1,3.06,3.1,1.01,0,1.87-.36,2.57-1.09s1.06-1.73,1.06-3.02Z"/>
      <path class="st1" d="M162.27,30.04h-3.98c-.19-.34-.34-1-.44-1.99-1.1,1.58-2.84,2.37-5.24,2.37-1.79,0-3.22-.43-4.28-1.29-1.06-.86-1.59-2.06-1.59-3.6,0-2.97,2.08-4.66,6.25-5.08l2.46-.22c.82-.11,1.41-.3,1.77-.58.36-.28.54-.71.54-1.28,0-.7-.23-1.21-.68-1.53-.45-.33-1.22-.49-2.29-.49-1.16,0-1.99.19-2.49.58-.51.39-.8,1.06-.88,2.01h-3.92c.23-3.71,2.67-5.56,7.33-5.56s6.79,1.63,6.79,4.9v8.68c0,1.43.22,2.46.66,3.1ZM153.55,27.57c1.24,0,2.25-.34,3.03-1.03.78-.68,1.17-1.67,1.17-2.95v-1.48c-.38.34-1,.56-1.86.66l-2.15.25c-1.05.13-1.81.37-2.26.74-.45.37-.68.9-.68,1.59s.24,1.24.71,1.63,1.15.58,2.04.58Z"/>
      <path class="st1" d="M172.98,13.49c.36,0,.68.02.98.06v3.66h-1.01c-1.52,0-2.68.38-3.49,1.15s-1.22,1.9-1.22,3.39v8.28h-3.98V13.74h3.85v2.91c.9-2.1,2.53-3.16,4.86-3.16Z"/>
      <path class="st1" d="M190.38,22.17v.95h-12.19c.15,1.39.58,2.44,1.31,3.14.73.71,1.7,1.06,2.92,1.06,1.81,0,3.05-.78,3.73-2.34h3.82c-.42,1.66-1.31,2.98-2.65,3.96s-2.99,1.47-4.93,1.47c-2.42,0-4.38-.78-5.88-2.34-1.5-1.56-2.24-3.62-2.24-6.19s.74-4.63,2.21-6.19c1.5-1.56,3.44-2.34,5.84-2.34s4.42.81,5.88,2.43c1.45,1.62,2.18,3.75,2.18,6.38ZM182.29,16.45c-2.34,0-3.7,1.29-4.07,3.88h8.18c-.17-1.2-.61-2.15-1.33-2.84-.72-.69-1.64-1.04-2.78-1.04Z"/>
      <path class="st1" d="M207.5,13.74v3.03h-3.22v8.81c0,.53.14.89.43,1.11.28.21.76.32,1.44.32h1.36v3.03c-.86.08-1.56.13-2.08.13-1.77,0-3.06-.33-3.87-1-.81-.66-1.22-1.72-1.22-3.17v-9.22h-2.53v-3.03h2.53v-4.74h3.95v4.74h3.22Z"/>
      <path class="st1" d="M218.39,13.36c1.77,0,3.16.51,4.18,1.53,1.02,1.02,1.53,2.47,1.53,4.34v10.8h-3.98v-10.14c0-2.06-1.02-3.09-3.06-3.09-1.01,0-1.87.36-2.57,1.09-.71.73-1.06,1.73-1.06,3.02v9.13h-3.98V7.55h3.98v8.37c1.24-1.71,2.89-2.56,4.96-2.56Z"/>
      <path class="st1" d="M242.33,22.17v.95h-12.19c.15,1.39.58,2.44,1.31,3.14.73.71,1.7,1.06,2.92,1.06,1.81,0,3.05-.78,3.73-2.34h3.82c-.42,1.66-1.31,2.98-2.65,3.96-1.35.98-2.99,1.47-4.93,1.47-2.42,0-4.38-.78-5.87-2.34-1.5-1.56-2.24-3.62-2.24-6.19s.74-4.63,2.21-6.19c1.49-1.56,3.44-2.34,5.84-2.34s4.42.81,5.87,2.43c1.45,1.62,2.18,3.75,2.18,6.38ZM234.25,16.45c-2.34,0-3.7,1.29-4.07,3.88h8.18c-.17-1.2-.61-2.15-1.33-2.84-.72-.69-1.64-1.04-2.78-1.04Z"/>
      <path class="st1" d="M250.54,16.49v-4.55c0-2.82,1.27-4.27,3.82-4.36l.54-.03v2.18h-.5c-.91.08-1.36.76-1.36,2.02v.51h1.86v4.23h-4.36ZM260.62,9.73h-.51c-.91.08-1.36.76-1.36,2.02v.51h1.86v4.23h-4.33v-4.55c0-2.8,1.26-4.25,3.79-4.36l.54-.03v2.18Z"/>
      <path class="st1" d="M271.26,13.49c.36,0,.68.02.98.06v3.66h-1.01c-1.52,0-2.68.38-3.49,1.15-.81.77-1.22,1.9-1.22,3.39v8.28h-3.98V13.74h3.85v2.91c.91-2.1,2.53-3.16,4.86-3.16Z"/>
      <path class="st1" d="M288.66,22.17v.95h-12.19c.15,1.39.58,2.44,1.31,3.14.73.71,1.7,1.06,2.92,1.06,1.81,0,3.05-.78,3.73-2.34h3.82c-.42,1.66-1.31,2.98-2.65,3.96-1.35.98-2.99,1.47-4.93,1.47-2.42,0-4.38-.78-5.87-2.34-1.5-1.56-2.24-3.62-2.24-6.19s.74-4.63,2.21-6.19c1.49-1.56,3.44-2.34,5.84-2.34s4.42.81,5.87,2.43c1.45,1.62,2.18,3.75,2.18,6.38ZM280.58,16.45c-2.34,0-3.7,1.29-4.07,3.88h8.18c-.17-1.2-.61-2.15-1.33-2.84-.72-.69-1.64-1.04-2.78-1.04Z"/>
      <path class="st1" d="M305.34,30.04h-3.98c-.19-.34-.34-1-.44-1.99-1.09,1.58-2.84,2.37-5.24,2.37-1.79,0-3.22-.43-4.28-1.29s-1.59-2.06-1.59-3.6c0-2.97,2.08-4.66,6.25-5.08l2.46-.22c.82-.11,1.41-.3,1.77-.58.36-.28.54-.71.54-1.28,0-.7-.23-1.21-.68-1.53-.45-.33-1.22-.49-2.29-.49-1.16,0-1.99.19-2.5.58-.5.39-.8,1.06-.88,2.01h-3.92c.23-3.71,2.67-5.56,7.33-5.56s6.79,1.63,6.79,4.9v8.68c0,1.43.22,2.46.66,3.1ZM296.62,27.57c1.24,0,2.25-.34,3.03-1.03.78-.68,1.17-1.67,1.17-2.95v-1.48c-.38.34-1,.56-1.86.66l-2.15.25c-1.05.13-1.81.37-2.26.74-.45.37-.68.9-.68,1.59s.24,1.24.71,1.63,1.15.58,2.04.58Z"/>
      <path class="st1" d="M318.79,15.85V7.55h3.98v22.49h-3.85v-2.27c-1.2,1.77-2.92,2.65-5.15,2.65s-4.03-.78-5.34-2.34c-1.33-1.56-1.99-3.62-1.99-6.19s.66-4.68,1.99-6.22c1.28-1.54,3.06-2.31,5.34-2.31s3.86.83,5.02,2.5ZM310.52,22.01c0,1.68.37,2.96,1.11,3.82.74.86,1.76,1.29,3.06,1.29s2.34-.45,3.1-1.36c.74-.91,1.11-2.2,1.11-3.88s-.37-2.98-1.11-3.88c-.74-.91-1.77-1.36-3.1-1.36s-2.3.47-3.05,1.42c-.75.95-1.12,2.26-1.12,3.95Z"/>
      <path class="st1" d="M340.99,22.17v.95h-12.19c.15,1.39.58,2.44,1.31,3.14.73.71,1.7,1.06,2.92,1.06,1.81,0,3.05-.78,3.73-2.34h3.82c-.42,1.66-1.31,2.98-2.65,3.96s-2.99,1.47-4.93,1.47c-2.42,0-4.38-.78-5.88-2.34-1.5-1.56-2.24-3.62-2.24-6.19s.74-4.63,2.21-6.19c1.49-1.56,3.44-2.34,5.84-2.34s4.42.81,5.88,2.43c1.45,1.62,2.18,3.75,2.18,6.38ZM332.91,16.45c-2.34,0-3.7,1.29-4.07,3.88h8.18c-.17-1.2-.61-2.15-1.33-2.84-.71-.69-1.64-1.04-2.78-1.04Z"/>
      <path class="st1" d="M351.89,13.49c.36,0,.68.02.98.06v3.66h-1.01c-1.52,0-2.68.38-3.49,1.15s-1.22,1.9-1.22,3.39v8.28h-3.98V13.74h3.85v2.91c.91-2.1,2.53-3.16,4.86-3.16Z"/>
      <path class="st1" d="M356.28,11.78h-1.86v-4.23h4.36v4.58c0,2.78-1.27,4.23-3.82,4.36h-.54v-2.18h.5c.91-.06,1.36-.74,1.36-2.02v-.5ZM360.16,11.78v-4.23h4.33v4.58c0,2.78-1.27,4.23-3.82,4.36h-.5v-2.18h.5c.91-.06,1.36-.74,1.36-2.02v-.5h-1.86Z"/>
      <path class="st1" d="M381.86,13.74v3.03h-3.22v8.81c0,.53.14.89.43,1.11.28.21.76.32,1.44.32h1.36v3.03c-.86.08-1.56.13-2.08.13-1.77,0-3.06-.33-3.87-1-.81-.66-1.22-1.72-1.22-3.17v-9.22h-2.53v-3.03h2.53v-4.74h3.95v4.74h3.22Z"/>
      <path class="st1" d="M393.14,17.84l1.33-4.11h4.17l-6.29,17.62c-.67,1.85-1.52,3.13-2.53,3.82-1.03.72-2.53,1.07-4.48,1.07-.65,0-1.23-.03-1.74-.09v-3.13h1.52c.86,0,1.53-.24,1.99-.73.46-.48.69-1.12.69-1.89s-.25-1.87-.76-3.29l-4.74-13.39h4.29l1.33,4.07c.93,2.91,1.79,5.94,2.59,9.1.63-2.38,1.5-5.4,2.62-9.06Z"/>
      <path class="st1" d="M408.8,13.36c2.23,0,4.01.77,5.34,2.31,1.31,1.56,1.96,3.63,1.96,6.22s-.65,4.63-1.96,6.19c-1.33,1.56-3.11,2.34-5.34,2.34s-3.9-.83-5.05-2.5v8.31h-3.98V13.74h3.82v2.34c1.18-1.81,2.92-2.72,5.21-2.72ZM404.79,25.77c.71.91,1.74,1.36,3.06,1.36s2.34-.47,3.09-1.42c.74-.93,1.11-2.24,1.11-3.95s-.36-2.93-1.09-3.81c-.73-.87-1.76-1.31-3.11-1.31s-2.36.45-3.1,1.36-1.11,2.2-1.11,3.88.38,3,1.14,3.88Z"/>
      <path class="st1" d="M433.59,22.17v.95h-12.19c.15,1.39.58,2.44,1.31,3.14.73.71,1.7,1.06,2.92,1.06,1.81,0,3.05-.78,3.73-2.34h3.82c-.42,1.66-1.31,2.98-2.65,3.96s-2.99,1.47-4.93,1.47c-2.42,0-4.38-.78-5.87-2.34-1.5-1.56-2.24-3.62-2.24-6.19s.74-4.63,2.21-6.19c1.5-1.56,3.44-2.34,5.84-2.34s4.42.81,5.88,2.43c1.45,1.62,2.18,3.75,2.18,6.38ZM425.51,16.45c-2.34,0-3.7,1.29-4.07,3.88h8.18c-.17-1.2-.61-2.15-1.33-2.84-.72-.69-1.64-1.04-2.78-1.04Z"/>
      <path class="st1" d="M439.15,30.04h-4.64v-4.52h4.64v4.52Z"/>
    </g>
  </g>
  <g>
    <g>
      <path class="st4" d="M12.92,59.4c1.73,0,3.1.52,4.12,1.56,1.02,1.04,1.53,2.52,1.53,4.44v10.67h-4.93v-9.7c0-1.85-.87-2.78-2.62-2.78-.88,0-1.62.29-2.21.88s-.88,1.42-.88,2.5v9.1H3v-16.3h4.8v2.31c1.26-1.79,2.97-2.68,5.12-2.68Z"/>
      <path class="st4" d="M28.93,76.45c-2.59,0-4.66-.78-6.22-2.34-1.56-1.56-2.34-3.62-2.34-6.19s.78-4.66,2.34-6.22,3.61-2.31,6.22-2.31,4.68.77,6.22,2.31c1.54,1.54,2.31,3.61,2.31,6.22s-.77,4.65-2.31,6.19-3.63,2.34-6.22,2.34ZM28.93,72.5c1.14,0,2.01-.39,2.62-1.17.61-.78.92-1.92.92-3.41s-.31-2.63-.92-3.41c-.61-.78-1.48-1.17-2.62-1.17s-2.04.39-2.65,1.17c-.61.78-.92,1.92-.92,3.41s.31,2.63.92,3.41c.61.78,1.5,1.17,2.65,1.17Z"/>
      <path class="st4" d="M65.06,65.02l1.52-5.24h5.27l-5.31,16.3h-5.18l-1.8-6.13c-.42-1.37-.83-2.83-1.23-4.39-.38,1.52-.77,2.98-1.17,4.39l-1.8,6.13h-5.18l-5.34-16.3h5.31l1.52,5.24c.53,1.83,1.03,3.66,1.52,5.5.4-1.66.87-3.51,1.42-5.53l1.48-5.21h4.55l1.48,5.21c.55,2.02,1.02,3.86,1.42,5.53.48-1.83.99-3.66,1.52-5.5Z"/>
      <path class="st4" d="M80.12,76.45c-2.59,0-4.66-.78-6.22-2.34-1.56-1.56-2.34-3.62-2.34-6.19s.78-4.66,2.34-6.22,3.61-2.31,6.22-2.31,4.68.77,6.22,2.31c1.54,1.54,2.31,3.61,2.31,6.22s-.77,4.65-2.31,6.19-3.63,2.34-6.22,2.34ZM80.12,72.5c1.14,0,2.01-.39,2.62-1.17.61-.78.92-1.92.92-3.41s-.31-2.63-.92-3.41c-.61-.78-1.48-1.17-2.62-1.17s-2.04.39-2.65,1.17c-.61.78-.92,1.92-.92,3.41s.31,2.63.92,3.41c.61.78,1.5,1.17,2.65,1.17Z"/>
      <path class="st4" d="M99.89,59.52c.08,0,.44.02,1.07.06v4.49h-1.26c-2.88,0-4.33,1.47-4.33,4.42v7.58h-4.93v-16.3h4.8v3.03c.76-2.19,2.31-3.28,4.64-3.28Z"/>
      <path class="st4" d="M112.02,59.52c.08,0,.44.02,1.07.06v4.49h-1.26c-2.88,0-4.33,1.47-4.33,4.42v7.58h-4.93v-16.3h4.8v3.03c.76-2.19,2.31-3.28,4.64-3.28Z"/>
      <path class="st4" d="M119.63,76.07h-4.93v-16.3h4.93v16.3ZM119.54,57.91h-4.71v-4.17h4.71v4.17Z"/>
      <path class="st4" d="M138.27,68.4v.98h-12.06c.17,1.12.58,1.97,1.23,2.56.65.59,1.48.88,2.5.88,1.6,0,2.7-.61,3.29-1.83h4.67c-.44,1.69-1.38,3.02-2.81,4-1.43.98-3.15,1.47-5.15,1.47-2.53,0-4.57-.78-6.13-2.34-1.56-1.56-2.34-3.62-2.34-6.19s.77-4.65,2.31-6.19c1.52-1.56,3.55-2.34,6.1-2.34s4.57.81,6.13,2.43c1.52,1.64,2.27,3.83,2.27,6.57ZM129.8,63.03c-2.02,0-3.21,1.07-3.57,3.22h7.2c-.17-1.01-.57-1.8-1.2-2.37s-1.44-.85-2.43-.85Z"/>
      <path class="st4" d="M147.11,76.55c-2.57,0-4.48-.45-5.73-1.34-1.25-.89-1.95-2.33-2.1-4.31h4.8c.08.86.36,1.47.84,1.83.47.36,1.24.54,2.29.54,1.83,0,2.75-.53,2.75-1.58,0-.51-.2-.89-.6-1.15-.4-.26-1.14-.48-2.21-.65l-2.12-.35c-3.66-.57-5.5-2.23-5.5-4.99,0-1.64.63-2.91,1.89-3.81,1.26-.89,3.07-1.34,5.43-1.34,4.86,0,7.39,1.86,7.58,5.59h-4.58c-.02-1.54-1.02-2.31-3-2.31-1.66,0-2.5.52-2.5,1.55,0,.46.19.82.57,1.07s.98.44,1.8.57l2.43.35c1.96.29,3.4.85,4.33,1.67s1.39,1.95,1.39,3.38c0,1.69-.68,2.99-2.04,3.9-1.36.92-3.27,1.37-5.73,1.37Z"/>
      <path class="st4" d="M161.51,76.07h-5.56v-5.43h5.56v5.43Z"/>
      <path class="st4" d="M175.53,76.07h-4.93v-16.3h4.93v16.3ZM175.44,57.91h-4.71v-4.17h4.71v4.17Z"/>
      <path class="st4" d="M196.35,61.92v-2.15h4.8v15.79c0,2.21-.73,3.94-2.2,5.2-1.46,1.25-3.51,1.88-6.14,1.88-2.42,0-4.32-.53-5.69-1.59-1.37-1.06-2.11-2.52-2.21-4.37h4.86c.13,1.52,1.17,2.27,3.13,2.27,1.07,0,1.89-.28,2.46-.84s.85-1.34.85-2.35v-2.34c-1.03,1.54-2.59,2.31-4.67,2.31s-3.88-.76-5.21-2.27-1.99-3.48-1.99-5.91.65-4.37,1.96-5.91c1.3-1.5,3.02-2.24,5.15-2.24s3.82.84,4.9,2.53ZM192.81,71.78c1.12,0,1.98-.36,2.59-1.09.61-.73.92-1.77.92-3.14s-.3-2.41-.9-3.13c-.6-.72-1.47-1.07-2.61-1.07s-1.95.37-2.56,1.12c-.61.75-.92,1.79-.92,3.14s.31,2.35.92,3.08,1.46,1.09,2.56,1.09Z"/>
      <path class="st4" d="M211.5,76.45c-2.59,0-4.66-.78-6.22-2.34-1.56-1.56-2.34-3.62-2.34-6.19s.78-4.66,2.34-6.22c1.54-1.54,3.61-2.31,6.22-2.31s4.68.77,6.22,2.31c1.54,1.54,2.31,3.61,2.31,6.22s-.77,4.65-2.31,6.19c-1.56,1.56-3.63,2.34-6.22,2.34ZM211.5,72.5c1.14,0,2.01-.39,2.62-1.17.61-.78.92-1.92.92-3.41s-.3-2.63-.92-3.41c-.61-.78-1.48-1.17-2.62-1.17s-2.04.39-2.65,1.17c-.61.78-.92,1.92-.92,3.41s.3,2.63.92,3.41c.61.78,1.49,1.17,2.65,1.17Z"/>
      <path class="st4" d="M230.52,59.78v3.6h-3.13v7.61c0,.55.14.92.41,1.12.27.2.76.3,1.45.3h1.26v3.66c-.59.08-1.35.13-2.27.13-2.04,0-3.52-.36-4.42-1.09s-1.36-1.92-1.36-3.58v-8.15h-2.43v-3.6h2.43v-4.83h4.93v4.83h3.13Z"/>
      <path class="st4" d="M239.61,76.45c-2.55,0-4.58-.78-6.1-2.34-1.52-1.56-2.27-3.62-2.27-6.19s.76-4.68,2.27-6.22c1.52-1.54,3.55-2.31,6.1-2.31,2.23,0,4.06.58,5.48,1.75,1.42,1.17,2.25,2.75,2.48,4.75h-4.9c-.27-1.66-1.29-2.5-3.06-2.5-2.25,0-3.38,1.5-3.38,4.52s1.13,4.49,3.38,4.49c1.9,0,2.95-.92,3.16-2.75h4.9c-.15,2.06-.96,3.72-2.43,4.96-1.47,1.22-3.35,1.83-5.62,1.83Z"/>
      <path class="st4" d="M259.07,59.4c1.73,0,3.1.52,4.12,1.56,1.02,1.04,1.53,2.52,1.53,4.44v10.67h-4.93v-9.7c0-1.85-.87-2.78-2.62-2.78-.88,0-1.62.29-2.21.88s-.88,1.42-.88,2.5v9.1h-4.93v-22.49h4.93v8.34c1.24-1.68,2.91-2.53,4.99-2.53Z"/>
      <path class="st4" d="M277.42,68.87v-9.1h4.93v16.3h-4.8v-2.31c-1.26,1.79-2.97,2.68-5.12,2.68-1.73,0-3.1-.52-4.12-1.56-1.02-1.04-1.53-2.52-1.53-4.44v-10.68h4.93v9.7c0,1.85.87,2.78,2.62,2.78.88,0,1.62-.29,2.21-.88s.88-1.42.88-2.49Z"/>
      <path class="st4" d="M290.02,76.07h-5.56v-5.43h5.56v5.43Z"/>
    </g>
    <rect class="st5" y="50.59" width="293.02" height="35.06"/>
    <g>
      <path class="st4" d="M12.92,59.4c1.73,0,3.1.52,4.12,1.56,1.02,1.04,1.53,2.52,1.53,4.44v10.67h-4.93v-9.7c0-1.85-.87-2.78-2.62-2.78-.88,0-1.62.29-2.21.88s-.88,1.42-.88,2.5v9.1H3v-16.3h4.8v2.31c1.26-1.79,2.97-2.68,5.12-2.68Z"/>
      <path class="st4" d="M28.93,76.45c-2.59,0-4.66-.78-6.22-2.34-1.56-1.56-2.34-3.62-2.34-6.19s.78-4.66,2.34-6.22,3.61-2.31,6.22-2.31,4.68.77,6.22,2.31c1.54,1.54,2.31,3.61,2.31,6.22s-.77,4.65-2.31,6.19-3.63,2.34-6.22,2.34ZM28.93,72.5c1.14,0,2.01-.39,2.62-1.17.61-.78.92-1.92.92-3.41s-.31-2.63-.92-3.41c-.61-.78-1.48-1.17-2.62-1.17s-2.04.39-2.65,1.17c-.61.78-.92,1.92-.92,3.41s.31,2.63.92,3.41c.61.78,1.5,1.17,2.65,1.17Z"/>
      <path class="st4" d="M65.06,65.02l1.52-5.24h5.27l-5.31,16.3h-5.18l-1.8-6.13c-.42-1.37-.83-2.83-1.23-4.39-.38,1.52-.77,2.98-1.17,4.39l-1.8,6.13h-5.18l-5.34-16.3h5.31l1.52,5.24c.53,1.83,1.03,3.66,1.52,5.5.4-1.66.87-3.51,1.42-5.53l1.48-5.21h4.55l1.48,5.21c.55,2.02,1.02,3.86,1.42,5.53.48-1.83.99-3.66,1.52-5.5Z"/>
      <path class="st4" d="M80.12,76.45c-2.59,0-4.66-.78-6.22-2.34-1.56-1.56-2.34-3.62-2.34-6.19s.78-4.66,2.34-6.22,3.61-2.31,6.22-2.31,4.68.77,6.22,2.31c1.54,1.54,2.31,3.61,2.31,6.22s-.77,4.65-2.31,6.19-3.63,2.34-6.22,2.34ZM80.12,72.5c1.14,0,2.01-.39,2.62-1.17.61-.78.92-1.92.92-3.41s-.31-2.63-.92-3.41c-.61-.78-1.48-1.17-2.62-1.17s-2.04.39-2.65,1.17c-.61.78-.92,1.92-.92,3.41s.31,2.63.92,3.41c.61.78,1.5,1.17,2.65,1.17Z"/>
      <path class="st4" d="M99.89,59.52c.08,0,.44.02,1.07.06v4.49h-1.26c-2.88,0-4.33,1.47-4.33,4.42v7.58h-4.93v-16.3h4.8v3.03c.76-2.19,2.31-3.28,4.64-3.28Z"/>
      <path class="st4" d="M112.02,59.52c.08,0,.44.02,1.07.06v4.49h-1.26c-2.88,0-4.33,1.47-4.33,4.42v7.58h-4.93v-16.3h4.8v3.03c.76-2.19,2.31-3.28,4.64-3.28Z"/>
      <path class="st4" d="M119.63,76.07h-4.93v-16.3h4.93v16.3ZM119.54,57.91h-4.71v-4.17h4.71v4.17Z"/>
      <path class="st4" d="M138.27,68.4v.98h-12.06c.17,1.12.58,1.97,1.23,2.56.65.59,1.48.88,2.5.88,1.6,0,2.7-.61,3.29-1.83h4.67c-.44,1.69-1.38,3.02-2.81,4-1.43.98-3.15,1.47-5.15,1.47-2.53,0-4.57-.78-6.13-2.34-1.56-1.56-2.34-3.62-2.34-6.19s.77-4.65,2.31-6.19c1.52-1.56,3.55-2.34,6.1-2.34s4.57.81,6.13,2.43c1.52,1.64,2.27,3.83,2.27,6.57ZM129.8,63.03c-2.02,0-3.21,1.07-3.57,3.22h7.2c-.17-1.01-.57-1.8-1.2-2.37s-1.44-.85-2.43-.85Z"/>
      <path class="st4" d="M147.11,76.55c-2.57,0-4.48-.45-5.73-1.34-1.25-.89-1.95-2.33-2.1-4.31h4.8c.08.86.36,1.47.84,1.83.47.36,1.24.54,2.29.54,1.83,0,2.75-.53,2.75-1.58,0-.51-.2-.89-.6-1.15-.4-.26-1.14-.48-2.21-.65l-2.12-.35c-3.66-.57-5.5-2.23-5.5-4.99,0-1.64.63-2.91,1.89-3.81,1.26-.89,3.07-1.34,5.43-1.34,4.86,0,7.39,1.86,7.58,5.59h-4.58c-.02-1.54-1.02-2.31-3-2.31-1.66,0-2.5.52-2.5,1.55,0,.46.19.82.57,1.07s.98.44,1.8.57l2.43.35c1.96.29,3.4.85,4.33,1.67s1.39,1.95,1.39,3.38c0,1.69-.68,2.99-2.04,3.9-1.36.92-3.27,1.37-5.73,1.37Z"/>
      <path class="st4" d="M161.51,76.07h-5.56v-5.43h5.56v5.43Z"/>
      <path class="st4" d="M175.53,76.07h-4.93v-16.3h4.93v16.3ZM175.44,57.91h-4.71v-4.17h4.71v4.17Z"/>
      <path class="st4" d="M196.35,61.92v-2.15h4.8v15.79c0,2.21-.73,3.94-2.2,5.2-1.46,1.25-3.51,1.88-6.14,1.88-2.42,0-4.32-.53-5.69-1.59-1.37-1.06-2.11-2.52-2.21-4.37h4.86c.13,1.52,1.17,2.27,3.13,2.27,1.07,0,1.89-.28,2.46-.84s.85-1.34.85-2.35v-2.34c-1.03,1.54-2.59,2.31-4.67,2.31s-3.88-.76-5.21-2.27-1.99-3.48-1.99-5.91.65-4.37,1.96-5.91c1.3-1.5,3.02-2.24,5.15-2.24s3.82.84,4.9,2.53ZM192.81,71.78c1.12,0,1.98-.36,2.59-1.09.61-.73.92-1.77.92-3.14s-.3-2.41-.9-3.13c-.6-.72-1.47-1.07-2.61-1.07s-1.95.37-2.56,1.12c-.61.75-.92,1.79-.92,3.14s.31,2.35.92,3.08,1.46,1.09,2.56,1.09Z"/>
      <path class="st4" d="M211.5,76.45c-2.59,0-4.66-.78-6.22-2.34-1.56-1.56-2.34-3.62-2.34-6.19s.78-4.66,2.34-6.22c1.54-1.54,3.61-2.31,6.22-2.31s4.68.77,6.22,2.31c1.54,1.54,2.31,3.61,2.31,6.22s-.77,4.65-2.31,6.19c-1.56,1.56-3.63,2.34-6.22,2.34ZM211.5,72.5c1.14,0,2.01-.39,2.62-1.17.61-.78.92-1.92.92-3.41s-.3-2.63-.92-3.41c-.61-.78-1.48-1.17-2.62-1.17s-2.04.39-2.65,1.17c-.61.78-.92,1.92-.92,3.41s.3,2.63.92,3.41c.61.78,1.49,1.17,2.65,1.17Z"/>
      <path class="st4" d="M230.52,59.78v3.6h-3.13v7.61c0,.55.14.92.41,1.12.27.2.76.3,1.45.3h1.26v3.66c-.59.08-1.35.13-2.27.13-2.04,0-3.52-.36-4.42-1.09s-1.36-1.92-1.36-3.58v-8.15h-2.43v-3.6h2.43v-4.83h4.93v4.83h3.13Z"/>
      <path class="st4" d="M239.61,76.45c-2.55,0-4.58-.78-6.1-2.34-1.52-1.56-2.27-3.62-2.27-6.19s.76-4.68,2.27-6.22c1.52-1.54,3.55-2.31,6.1-2.31,2.23,0,4.06.58,5.48,1.75,1.42,1.17,2.25,2.75,2.48,4.75h-4.9c-.27-1.66-1.29-2.5-3.06-2.5-2.25,0-3.38,1.5-3.38,4.52s1.13,4.49,3.38,4.49c1.9,0,2.95-.92,3.16-2.75h4.9c-.15,2.06-.96,3.72-2.43,4.96-1.47,1.22-3.35,1.83-5.62,1.83Z"/>
      <path class="st4" d="M259.07,59.4c1.73,0,3.1.52,4.12,1.56,1.02,1.04,1.53,2.52,1.53,4.44v10.67h-4.93v-9.7c0-1.85-.87-2.78-2.62-2.78-.88,0-1.62.29-2.21.88s-.88,1.42-.88,2.5v9.1h-4.93v-22.49h4.93v8.34c1.24-1.68,2.91-2.53,4.99-2.53Z"/>
      <path class="st4" d="M277.42,68.87v-9.1h4.93v16.3h-4.8v-2.31c-1.26,1.79-2.97,2.68-5.12,2.68-1.73,0-3.1-.52-4.12-1.56-1.02-1.04-1.53-2.52-1.53-4.44v-10.68h4.93v9.7c0,1.85.87,2.78,2.62,2.78.88,0,1.62-.29,2.21-.88s.88-1.42.88-2.49Z"/>
      <path class="st4" d="M290.02,76.07h-5.56v-5.43h5.56v5.43Z"/>
    </g>
  </g>
</svg>