<?xml version="1.0" encoding="utf-8"?>
<!-- Generator: Adobe Illustrator 25.3.1, SVG Export Plug-In . SVG Version: 6.00 Build 0)  -->
<svg version="1.1" id="Layer_1" xmlns="http://www.w3.org/2000/svg" xmlns:xlink="http://www.w3.org/1999/xlink" x="0px" y="0px"
	 viewBox="0 0 426.3 136.9" style="enable-background:new 0 0 426.3 136.9;" xml:space="preserve">
<style type="text/css">
	.st0{fill:#231F20;}
	.st1{font-family:'HelveticaNowDisplay-Bd';}
	.st2{font-size:31.5827px;}
	.st3{fill:#FFFFFF;}
	.st4{letter-spacing:-1;}
	.st5{fill:#07FF00;}
	.st6{font-family:'HelveticaNowDisplay-XBd';}
	.st7{fill:#32FF00;}
</style>
<text transform="matrix(1 0 0 1 5 30.034)"><tspan x="0" y="0" class="st0 st1 st2">h</tspan><tspan x="17.5" y="0" class="st0 st1 st2">e</tspan><tspan x="35.1" y="0" class="st0 st1 st2">l</tspan><tspan x="41.9" y="0" class="st0 st1 st2">lo</tspan><tspan x="66.8" y="0" class="st0 st1 st2">!</tspan></text>
<rect class="st0" width="83.2" height="43.1"/>
<g>
	<path class="st3" d="M21.3,19.2V30h-4V19.9c0-2.1-1-3.1-3.1-3.1c-1.7,0-3.6,1.2-3.6,4.1V30h-4V7.5h4v8.4c1.1-1.5,2.7-2.6,5-2.6
		C19,13.4,21.3,15.3,21.3,19.2z"/>
	<path class="st3" d="M23.4,21.9c0-5.1,3.2-8.5,8.1-8.5c5,0,8.1,3.6,8.1,8.8v0.9H27.3c0.3,2.9,1.9,4.2,4.2,4.2
		c1.9,0,3.1-0.9,3.7-2.3h3.9c-0.9,3.3-3.7,5.4-7.6,5.4C26.7,30.4,23.4,27.1,23.4,21.9z M35.5,20.3c-0.3-2.3-1.7-3.9-4.1-3.9
		c-2.1,0-3.7,1.2-4.1,3.9H35.5z"/>
	<path class="st3" d="M41.7,30V7.5h4V30H41.7z"/>
	<path class="st3" d="M48.5,30V7.5h4V30H48.5z"/>
	<path class="st3" d="M54.6,21.9c0-5.2,3.3-8.5,8.3-8.5s8.3,3.3,8.3,8.5c0,5.2-3.3,8.5-8.3,8.5S54.6,27.1,54.6,21.9z M67.2,21.9
		c0-3.4-1.7-5.2-4.2-5.2c-2.6,0-4.2,1.8-4.2,5.2s1.6,5.2,4.2,5.2C65.5,27.1,67.2,25.3,67.2,21.9z"/>
	<path class="st3" d="M73,30v-4.4h4.5V30H73z M74.1,23.2l-1-9.9V7.5h4.3v5.8l-1.1,9.9H74.1z"/>
</g>
<text transform="matrix(1 0 0 1 5 76.8641)"><tspan x="0" y="0" class="st0 st1 st2 st4">m</tspan><tspan x="26.4" y="0" class="st0 st1 st2">y</tspan><tspan x="42.5" y="0" class="st0 st1 st2"> na</tspan><tspan x="83.1" y="0" class="st0 st1 st2">m</tspan><tspan x="110.3" y="0" class="st0 st1 st2">e </tspan><tspan x="134.3" y="0" class="st0 st1 st2">is</tspan><tspan x="156.5" y="0" class="st0 st1 st2"> d</tspan><tspan x="181.4" y="0" class="st0 st1 st2">e</tspan><tspan x="199" y="0" class="st0 st1 st2">nn</tspan><tspan x="234" y="0" class="st0 st1 st2">i</tspan><tspan x="240.8" y="0" class="st0 st1 st2">s</tspan></text>
<rect y="46.8" class="st0" width="266" height="43.1"/>
<g>
	<path class="st3" d="M30.9,66.1v10.8h-4V66.7c0-2.1-0.9-3.1-2.8-3.1c-1.7,0-3.4,1.2-3.4,4.3v9h-3.9V66.7c0-2.1-0.9-3.1-2.8-3.1
		c-1.7,0-3.3,1.2-3.3,4.3v9h-4V60.6h3.9v2.3c1-1.6,2.5-2.7,4.6-2.7c2.5,0,4.2,1.2,5.1,3c1.1-1.7,2.8-3,5.1-3
		C28.8,60.2,30.9,62.5,30.9,66.1z"/>
	<path class="st3" d="M43.6,60.6h4.2l-6.3,17.6c-1.3,3.6-3.1,4.9-7,4.9c-0.8,0-1.2,0-1.7-0.1v-3.1h1.5c2,0,2.7-1.3,2.7-2.6
		c0-1-0.4-2.2-0.8-3.3l-4.7-13.4h4.3l1.3,4.1c0.9,2.8,1.8,5.9,2.6,9.1c0.9-3.2,1.7-6.2,2.6-9.1L43.6,60.6z"/>
	<path class="st3" d="M70.2,66.1v10.8h-4V66.7c0-2.1-1-3.1-3.1-3.1c-1.7,0-3.6,1.2-3.6,4.1v9.1h-4V60.6h3.9v2.3
		c1-1.5,2.8-2.7,5.1-2.7C67.9,60.2,70.2,62.2,70.2,66.1z"/>
	<path class="st3" d="M83.7,76.9c-0.3-0.4-0.4-1.2-0.4-2c-1.1,1.5-2.8,2.4-5.2,2.4c-3.5,0-5.9-1.7-5.9-4.9c0-2.7,1.6-4.6,6.3-5.1
		l2.5-0.2c1.5-0.2,2.3-0.7,2.3-1.9c0-1.3-0.7-2-3-2c-2.3,0-3.2,0.6-3.4,2.6h-3.9c0.2-3.4,2.2-5.6,7.3-5.6c4.9,0,6.8,2,6.8,4.9v8.7
		c0,1.2,0.2,2.5,0.7,3.1H83.7z M83.2,70.4v-1.5c-0.4,0.4-1,0.6-1.9,0.7l-2.1,0.3c-2.2,0.3-2.9,1-2.9,2.3c0,1.4,0.9,2.2,2.7,2.2
		C81.1,74.4,83.2,73.3,83.2,70.4z"/>
	<path class="st3" d="M114,66.1v10.8h-4V66.7c0-2.1-0.9-3.1-2.8-3.1c-1.7,0-3.4,1.2-3.4,4.3v9h-3.9V66.7c0-2.1-0.9-3.1-2.8-3.1
		c-1.7,0-3.3,1.2-3.3,4.3v9h-4V60.6h3.9v2.3c1-1.6,2.5-2.7,4.6-2.7c2.5,0,4.2,1.2,5.1,3c1.1-1.7,2.8-3,5.1-3
		C111.9,60.2,114,62.5,114,66.1z"/>
	<path class="st3" d="M116.1,68.7c0-5.1,3.2-8.5,8.1-8.5c5,0,8.1,3.6,8.1,8.8v0.9h-12.2c0.3,2.9,1.9,4.2,4.2,4.2
		c1.9,0,3.1-0.9,3.7-2.3h3.9c-0.9,3.3-3.7,5.4-7.6,5.4C119.5,77.2,116.1,73.9,116.1,68.7z M128.3,67.2c-0.3-2.3-1.7-3.9-4.1-3.9
		c-2.1,0-3.7,1.2-4.1,3.9H128.3z"/>
	<path class="st3" d="M140.9,58.7v-3.7h3.9v3.7H140.9z M140.9,76.9V60.6h4v16.3H140.9z"/>
	<path class="st3" d="M146.7,71.7h3.9c0.2,2.1,1.3,2.8,3.6,2.8c2.3,0,3.2-0.7,3.2-2c0-1.2-0.7-1.7-3.2-2.1l-1.9-0.3
		c-3.5-0.6-5.3-2.1-5.3-4.9c0-3.1,2.4-4.9,6.8-4.9c5,0,7.1,2.2,7.2,5.5h-3.8c-0.1-2.1-1.4-2.7-3.4-2.7c-1.9,0-2.8,0.7-2.8,1.9
		c0,1.2,0.9,1.7,2.7,2l2.1,0.3c3.9,0.7,5.7,2.1,5.7,5c0,3.3-2.7,5.1-7.2,5.1C149.5,77.3,146.9,75.6,146.7,71.7z"/>
	<path class="st3" d="M181.2,54.4h4v22.5h-3.9v-2.3c-1.1,1.6-2.8,2.7-5.1,2.7c-4.5,0-7.3-3.3-7.3-8.5c0-5.2,2.8-8.5,7.3-8.5
		c2.2,0,3.9,0.9,5,2.5V54.4z M181.3,68.7c0-3.4-1.6-5.2-4.2-5.2c-2.6,0-4.2,1.9-4.2,5.4s1.6,5.1,4.2,5.1
		C179.7,74,181.3,72.2,181.3,68.7z"/>
	<path class="st3" d="M187.3,68.7c0-5.1,3.2-8.5,8.1-8.5c5,0,8.1,3.6,8.1,8.8v0.9h-12.2c0.3,2.9,1.9,4.2,4.2,4.2
		c1.9,0,3.1-0.9,3.7-2.3h3.9c-0.9,3.3-3.7,5.4-7.6,5.4C190.6,77.2,187.3,73.9,187.3,68.7z M199.4,67.2c-0.3-2.3-1.7-3.9-4.1-3.9
		c-2.1,0-3.7,1.2-4.1,3.9H199.4z"/>
	<path class="st3" d="M220.3,66.1v10.8h-4V66.7c0-2.1-1-3.1-3.1-3.1c-1.7,0-3.6,1.2-3.6,4.1v9.1h-4V60.6h3.9v2.3
		c1-1.5,2.8-2.7,5.1-2.7C218,60.2,220.3,62.2,220.3,66.1z"/>
	<path class="st3" d="M237.8,66.1v10.8h-4V66.7c0-2.1-1-3.1-3.1-3.1c-1.7,0-3.6,1.2-3.6,4.1v9.1h-4V60.6h3.9v2.3
		c1-1.5,2.8-2.7,5.1-2.7C235.5,60.2,237.8,62.2,237.8,66.1z"/>
	<path class="st3" d="M240.6,58.7v-3.7h3.9v3.7H240.6z M240.6,76.9V60.6h4v16.3H240.6z"/>
	<path class="st3" d="M246.4,71.7h3.9c0.2,2.1,1.3,2.8,3.6,2.8c2.3,0,3.2-0.7,3.2-2c0-1.2-0.7-1.7-3.2-2.1l-1.9-0.3
		c-3.5-0.6-5.3-2.1-5.3-4.9c0-3.1,2.4-4.9,6.8-4.9c5,0,7.1,2.2,7.2,5.5H257c-0.1-2.1-1.4-2.7-3.4-2.7c-1.9,0-2.8,0.7-2.8,1.9
		c0,1.2,0.9,1.7,2.7,2l2.1,0.3c3.9,0.7,5.7,2.1,5.7,5c0,3.3-2.7,5.1-7.2,5.1C249.2,77.3,246.7,75.6,246.4,71.7z"/>
</g>
<text transform="matrix(1 0 0 1 5 123.6297)"><tspan x="0" y="0" class="st5 st6 st2">a</tspan><tspan x="17.3" y="0" class="st5 st6 st2">n</tspan><tspan x="35.3" y="0" class="st5 st6 st2">d</tspan><tspan x="53.9" y="0" class="st5 st6 st2"> </tspan><tspan x="61" y="0" class="st5 st6 st2">i</tspan><tspan x="68.4" y="0" class="st5 st6 st2"> </tspan><tspan x="75.4" y="0" class="st5 st6 st2">ma</tspan><tspan x="120.4" y="0" class="st5 st6 st2 st4">k</tspan><tspan x="137.1" y="0" class="st5 st6 st2">e </tspan><tspan x="162.2" y="0" class="st5 st6 st2">e</tspan><tspan x="179.6" y="0" class="st5 st6 st2">f</tspan><tspan x="190.9" y="0" class="st5 st6 st2 st4">f</tspan><tspan x="201.4" y="0" class="st5 st6 st2">e</tspan><tspan x="219.5" y="0" class="st5 st6 st2">c</tspan><tspan x="236.5" y="0" class="st5 st6 st2">t</tspan><tspan x="247.7" y="0" class="st5 st6 st2">i</tspan><tspan x="255" y="0" class="st5 st6 st2 st4">v</tspan><tspan x="271.5" y="0" class="st5 st6 st2">e</tspan><tspan x="289.5" y="0" class="st5 st6 st2"> </tspan><tspan x="296.6" y="0" class="st5 st6 st2">d</tspan><tspan x="315.2" y="0" class="st5 st6 st2">e</tspan><tspan x="333.3" y="0" class="st5 st6 st2">si</tspan><tspan x="356.8" y="0" class="st5 st6 st2">g</tspan><tspan x="375.4" y="0" class="st5 st6 st2">n</tspan><tspan x="393.5" y="0" class="st5 st6 st2">s</tspan><tspan x="409.5" y="0" class="st5 st6 st2">.</tspan></text>
<rect y="93.6" class="st7" width="426.3" height="43.3"/>
<g>
	<path class="st0" d="M17.2,123.6c-0.2-0.4-0.4-1.1-0.4-1.8c-1,1.4-2.8,2.2-5.2,2.2c-3.4,0-5.9-1.7-5.9-5c0-2.8,1.7-4.7,6.4-5.1
		l2.6-0.2c1.4-0.2,2.1-0.6,2.1-1.6c0-1-0.5-1.6-2.5-1.6c-1.9,0-2.7,0.5-2.9,2.1H6.4c0.3-3.6,2.6-5.7,7.8-5.7c5.1,0,7.3,1.9,7.3,5
		v8.7c0,1.2,0.2,2.4,0.7,3H17.2z M16.7,117.2V116c-0.3,0.4-0.9,0.5-1.6,0.6l-2,0.2c-1.7,0.2-2.4,0.8-2.4,2c0,1.1,0.9,1.9,2.4,1.9
		C14.9,120.7,16.7,119.8,16.7,117.2z"/>
	<path class="st0" d="M39.3,113v10.7h-4.9v-9.7c0-1.8-0.8-2.8-2.6-2.8c-1.5,0-3.1,1-3.1,3.4v9.1h-4.9v-16.3h4.8v2.3
		c1.1-1.5,2.7-2.7,5.1-2.7C36.8,107,39.3,108.9,39.3,113z"/>
	<path class="st0" d="M53,101.1h4.9v22.5h-4.8v-2.1c-1,1.5-2.6,2.5-4.9,2.5c-4.4,0-7.1-3.3-7.1-8.5c0-5.2,2.7-8.5,7.1-8.5
		c2.2,0,3.7,0.9,4.8,2.3V101.1z M53.1,115.5c0-3.1-1.3-4.6-3.5-4.6c-2.2,0-3.5,1.6-3.5,4.7c0,3.1,1.3,4.5,3.5,4.5
		C51.8,120.1,53.1,118.6,53.1,115.5z"/>
	<path class="st0" d="M67.4,123.6v-16.3h4.9v16.3H67.4z M67.5,105.7v-4.2h4.7v4.2H67.5z"/>
	<path class="st0" d="M107.1,113v10.6h-4.9v-9.7c0-1.8-0.7-2.7-2.4-2.7c-1.5,0-2.8,1-2.8,3.5v9H92v-9.7c0-1.8-0.7-2.7-2.4-2.7
		c-1.5,0-2.8,1-2.8,3.5v9h-4.9v-16.3h4.8v2.3c1-1.5,2.5-2.7,4.6-2.7c2.4,0,4.2,1,5.1,2.9c1.1-1.6,2.8-2.9,5.1-2.9
		C104.9,107,107.1,109.1,107.1,113z"/>
	<path class="st0" d="M120.3,123.6c-0.2-0.4-0.4-1.1-0.4-1.8c-1,1.4-2.8,2.2-5.2,2.2c-3.4,0-5.9-1.7-5.9-5c0-2.8,1.7-4.7,6.4-5.1
		l2.6-0.2c1.4-0.2,2.1-0.6,2.1-1.6c0-1-0.5-1.6-2.5-1.6c-1.9,0-2.7,0.5-2.9,2.1h-4.9c0.3-3.6,2.6-5.7,7.8-5.7c5.1,0,7.3,1.9,7.3,5
		v8.7c0,1.2,0.2,2.4,0.7,3H120.3z M119.8,117.2V116c-0.3,0.4-0.9,0.5-1.6,0.6l-2,0.2c-1.7,0.2-2.4,0.8-2.4,2c0,1.1,0.9,1.9,2.4,1.9
		C118.1,120.7,119.8,119.8,119.8,117.2z"/>
	<path class="st0" d="M138.1,123.6l-4.2-6.7l-2.2,2.3v4.5h-4.8v-22.5h4.8v12.6l6-6.4h5.7l-6.1,6.3l6.5,10H138.1z"/>
	<path class="st0" d="M142.8,115.5c0-5.1,3.3-8.5,8.4-8.5c5.1,0,8.4,3.5,8.4,9v1h-12.1c0.3,2.4,1.8,3.4,3.7,3.4
		c1.6,0,2.7-0.7,3.3-1.8h4.7c-0.9,3.4-4,5.5-8,5.5C146.2,124,142.8,120.7,142.8,115.5z M154.8,113.8c-0.3-2-1.6-3.2-3.7-3.2
		c-1.8,0-3.2,1-3.6,3.2H154.8z"/>
	<path class="st0" d="M167.9,115.5c0-5.1,3.3-8.5,8.4-8.5c5.1,0,8.4,3.5,8.4,9v1h-12.1c0.3,2.4,1.8,3.4,3.7,3.4
		c1.6,0,2.7-0.7,3.3-1.8h4.7c-0.9,3.4-4,5.5-8,5.5C171.3,124,167.9,120.7,167.9,115.5z M179.9,113.8c-0.3-2-1.6-3.2-3.7-3.2
		c-1.8,0-3.2,1-3.6,3.2H179.9z"/>
	<path class="st0" d="M192.3,106.5v0.8h3.2v3.7h-3.2v12.6h-4.9V111H185v-3.7h2.4v-0.9c0-2.9,1.5-5.4,5.9-5.4c0.8,0,1.6,0.1,2.3,0.1
		v3.7h-1.3C192.9,104.8,192.3,105.4,192.3,106.5z"/>
	<path class="st0" d="M203.6,106.5v0.8h3.2v3.7h-3.2v12.6h-4.9V111h-2.4v-3.7h2.4v-0.9c0-2.9,1.5-5.4,5.9-5.4c0.8,0,1.6,0.1,2.3,0.1
		v3.7h-1.3C204.2,104.8,203.6,105.4,203.6,106.5z"/>
	<path class="st0" d="M207.2,115.5c0-5.1,3.3-8.5,8.4-8.5c5.1,0,8.4,3.5,8.4,9v1h-12.1c0.3,2.4,1.8,3.4,3.7,3.4
		c1.6,0,2.7-0.7,3.3-1.8h4.7c-0.9,3.4-4,5.5-8,5.5C210.6,124,207.2,120.7,207.2,115.5z M219.2,113.8c-0.3-2-1.6-3.2-3.7-3.2
		c-1.8,0-3.2,1-3.6,3.2H219.2z"/>
	<path class="st0" d="M225.3,115.5c0-5.2,3.3-8.5,8.4-8.5c4.5,0,7.5,2.5,8,6.5h-4.9c-0.3-1.7-1.5-2.5-3.1-2.5
		c-2.1,0-3.4,1.4-3.4,4.5s1.3,4.5,3.4,4.5c1.6,0,2.9-0.8,3.2-2.7h4.9c-0.3,4.2-3.5,6.8-8.1,6.8C228.6,124,225.3,120.7,225.3,115.5z"
		/>
	<path class="st0" d="M252.4,111h-3.1v7.5c0,1.2,0.6,1.5,1.9,1.5h1.3v3.7c-0.8,0.1-1.5,0.1-2.3,0.1c-4.1,0-5.8-1.3-5.8-4.7V111h-2.4
		v-3.7h2.4v-4.8h4.9v4.8h3.1V111z"/>
	<path class="st0" d="M254.1,123.6v-16.3h4.9v16.3H254.1z M254.2,105.7v-4.2h4.7v4.2H254.2z"/>
	<path class="st0" d="M272.4,107.3h5.1l-5.8,16.3h-5.9l-5.8-16.3h5.3l0.9,2.5c0.9,3.1,1.8,6.4,2.7,9.6c0.9-3.2,1.8-6.5,2.7-9.6
		L272.4,107.3z"/>
	<path class="st0" d="M277.2,115.5c0-5.1,3.3-8.5,8.4-8.5c5.1,0,8.4,3.5,8.4,9v1H282c0.3,2.4,1.8,3.4,3.7,3.4c1.6,0,2.7-0.7,3.3-1.8
		h4.7c-0.9,3.4-4,5.5-8,5.5C280.6,124,277.2,120.7,277.2,115.5z M289.2,113.8c-0.3-2-1.6-3.2-3.7-3.2c-1.8,0-3.2,1-3.6,3.2H289.2z"
		/>
	<path class="st0" d="M314.2,101.1h4.9v22.5h-4.8v-2.1c-1,1.5-2.6,2.5-4.9,2.5c-4.4,0-7.1-3.3-7.1-8.5c0-5.2,2.7-8.5,7.1-8.5
		c2.2,0,3.7,0.9,4.8,2.3V101.1z M314.3,115.5c0-3.1-1.3-4.6-3.5-4.6c-2.2,0-3.5,1.6-3.5,4.7c0,3.1,1.3,4.5,3.5,4.5
		C313,120.1,314.3,118.6,314.3,115.5z"/>
	<path class="st0" d="M320.9,115.5c0-5.1,3.3-8.5,8.4-8.5c5.1,0,8.4,3.5,8.4,9v1h-12.1c0.3,2.4,1.8,3.4,3.7,3.4
		c1.6,0,2.7-0.7,3.3-1.8h4.7c-0.9,3.4-4,5.5-8,5.5C324.3,124,320.9,120.7,320.9,115.5z M332.9,113.8c-0.3-2-1.6-3.2-3.7-3.2
		c-1.8,0-3.2,1-3.6,3.2H332.9z"/>
	<path class="st0" d="M338.7,118.4h4.8c0.2,1.8,1.1,2.4,3.1,2.4c2,0,2.7-0.6,2.7-1.6c0-1-0.6-1.5-2.8-1.8l-2.1-0.3
		c-3.4-0.5-5.5-2.1-5.5-5c0-3.3,2.6-5.1,7.3-5.1c5.5,0,7.4,2.4,7.6,5.6h-4.6c-0.1-1.8-1.2-2.3-3-2.3c-1.8,0-2.5,0.6-2.5,1.5
		c0,1,0.8,1.4,2.4,1.6l2.4,0.3c3.9,0.6,5.7,2.1,5.7,5.1c0,3.4-2.9,5.3-7.8,5.3C341.6,124.1,339,122.5,338.7,118.4z"/>
	<path class="st0" d="M355.8,123.6v-16.3h4.9v16.3H355.8z M355.9,105.7v-4.2h4.7v4.2H355.9z"/>
	<path class="st0" d="M374.6,107.3h4.8v15.8c0,4.4-3,7.1-8.3,7.1c-5.1,0-7.7-2.5-7.9-6h4.9c0.1,1.5,1.2,2.3,3.1,2.3
		c2.2,0,3.3-1.2,3.3-3.2V121c-1,1.4-2.5,2.3-4.7,2.3c-4.3,0-7.2-3.4-7.2-8.2c0-4.8,2.8-8.1,7.1-8.1c2.3,0,3.9,1,4.9,2.5V107.3z
		 M374.5,115.1c0-2.7-1.3-4.2-3.5-4.2c-2.2,0-3.5,1.6-3.5,4.3c0,2.7,1.3,4.2,3.5,4.2C373.2,119.3,374.5,117.8,374.5,115.1z"/>
	<path class="st0" d="M397.4,113v10.7h-4.9v-9.7c0-1.8-0.8-2.8-2.6-2.8c-1.5,0-3.1,1-3.1,3.4v9.1h-4.9v-16.3h4.8v2.3
		c1.1-1.5,2.7-2.7,5.1-2.7C395,107,397.4,108.9,397.4,113z"/>
	<path class="st0" d="M398.9,118.4h4.8c0.2,1.8,1.1,2.4,3.1,2.4c2,0,2.7-0.6,2.7-1.6c0-1-0.6-1.5-2.8-1.8l-2.1-0.3
		c-3.4-0.5-5.5-2.1-5.5-5c0-3.3,2.6-5.1,7.3-5.1c5.5,0,7.4,2.4,7.6,5.6h-4.6c-0.1-1.8-1.2-2.3-3-2.3c-1.8,0-2.5,0.6-2.5,1.5
		c0,1,0.8,1.4,2.4,1.6l2.4,0.3c3.9,0.6,5.7,2.1,5.7,5.1c0,3.4-2.9,5.3-7.8,5.3C401.8,124.1,399.2,122.5,398.9,118.4z"/>
	<path class="st0" d="M415.6,123.6v-5.4h5.6v5.4H415.6z"/>
</g>
</svg>
