<?xml version="1.0" encoding="utf-8"?>
<!-- Generator: Adobe Illustrator 25.3.1, SVG Export Plug-In . SVG Version: 6.00 Build 0)  -->
<svg version="1.1" id="Layer_1" xmlns="http://www.w3.org/2000/svg" xmlns:xlink="http://www.w3.org/1999/xlink" x="0px" y="0px"
	 viewBox="0 0 266 183.7" style="enable-background:new 0 0 266 183.7;" xml:space="preserve">
<style type="text/css">
	.st0{fill:#231F20;}
	.st1{font-family:'HelveticaNowDisplay-Bd';}
	.st2{font-size:31.5827px;}
	.st3{fill:#FFFFFF;}
	.st4{letter-spacing:-1;}
	.st5{fill:#07FF00;}
	.st6{font-family:'HelveticaNowDisplay-XBd';}
	.st7{fill:#32FF00;}
</style>
<text transform="matrix(1 0 0 1 5.0005 30.0343)"><tspan x="0" y="0" class="st0 st1 st2">h</tspan><tspan x="17.5" y="0" class="st0 st1 st2">e</tspan><tspan x="35.1" y="0" class="st0 st1 st2">l</tspan><tspan x="41.9" y="0" class="st0 st1 st2">lo</tspan><tspan x="66.8" y="0" class="st0 st1 st2">!</tspan></text>
<rect class="st0" width="83.2" height="43.1"/>
<g>
	<path class="st3" d="M21.3,19.2V30h-4V19.9c0-2.1-1-3.1-3.1-3.1c-1.7,0-3.6,1.2-3.6,4.1V30h-4V7.5h4v8.4c1.1-1.5,2.7-2.6,5-2.6
		C19,13.4,21.3,15.3,21.3,19.2z"/>
	<path class="st3" d="M23.4,21.9c0-5.1,3.2-8.5,8.1-8.5c5,0,8.1,3.6,8.1,8.8v0.9H27.3c0.3,2.9,1.9,4.2,4.2,4.2
		c1.9,0,3.1-0.9,3.7-2.3h3.9c-0.9,3.3-3.7,5.4-7.6,5.4C26.7,30.4,23.4,27.1,23.4,21.9z M35.5,20.3c-0.3-2.3-1.7-3.9-4.1-3.9
		c-2.1,0-3.7,1.2-4.1,3.9H35.5z"/>
	<path class="st3" d="M41.7,30V7.5h4V30H41.7z"/>
	<path class="st3" d="M48.5,30V7.5h4V30H48.5z"/>
	<path class="st3" d="M54.6,21.9c0-5.2,3.3-8.5,8.3-8.5s8.3,3.3,8.3,8.5c0,5.2-3.3,8.5-8.3,8.5S54.6,27.1,54.6,21.9z M67.2,21.9
		c0-3.4-1.7-5.2-4.2-5.2c-2.6,0-4.2,1.8-4.2,5.2s1.6,5.2,4.2,5.2C65.5,27.1,67.2,25.3,67.2,21.9z"/>
	<path class="st3" d="M73,30v-4.4h4.5V30H73z M74.1,23.2l-1-9.9V7.5h4.3v5.8l-1.1,9.9H74.1z"/>
</g>
<text transform="matrix(1 0 0 1 5 76.8644)"><tspan x="0" y="0" class="st0 st1 st2 st4">m</tspan><tspan x="26.4" y="0" class="st0 st1 st2">y</tspan><tspan x="42.5" y="0" class="st0 st1 st2"> na</tspan><tspan x="83.1" y="0" class="st0 st1 st2">m</tspan><tspan x="110.3" y="0" class="st0 st1 st2">e </tspan><tspan x="134.3" y="0" class="st0 st1 st2">is</tspan><tspan x="156.5" y="0" class="st0 st1 st2"> d</tspan><tspan x="181.4" y="0" class="st0 st1 st2">e</tspan><tspan x="199" y="0" class="st0 st1 st2">nn</tspan><tspan x="234" y="0" class="st0 st1 st2">i</tspan><tspan x="240.8" y="0" class="st0 st1 st2">s</tspan></text>
<rect y="46.8" class="st0" width="266" height="43.1"/>
<g>
	<path class="st3" d="M30.9,66.1v10.8h-4V66.7c0-2.1-0.9-3.1-2.8-3.1c-1.7,0-3.4,1.2-3.4,4.3v9h-3.9V66.7c0-2.1-0.9-3.1-2.8-3.1
		c-1.7,0-3.3,1.2-3.3,4.3v9h-4V60.6h3.9v2.3c1-1.6,2.5-2.7,4.6-2.7c2.5,0,4.2,1.2,5.1,3c1.1-1.7,2.8-3,5.1-3
		C28.8,60.2,30.9,62.5,30.9,66.1z"/>
	<path class="st3" d="M43.6,60.6h4.2l-6.3,17.6c-1.3,3.6-3.1,4.9-7,4.9c-0.8,0-1.2,0-1.7-0.1v-3.1h1.5c2,0,2.7-1.3,2.7-2.6
		c0-1-0.4-2.2-0.8-3.3l-4.7-13.4h4.3l1.3,4.1c0.9,2.8,1.8,5.9,2.6,9.1c0.9-3.2,1.7-6.2,2.6-9.1L43.6,60.6z"/>
	<path class="st3" d="M70.2,66.1v10.8h-4V66.7c0-2.1-1-3.1-3.1-3.1c-1.7,0-3.6,1.2-3.6,4.1v9.1h-4V60.6h3.9v2.3
		c1-1.5,2.8-2.7,5.1-2.7C67.9,60.2,70.2,62.2,70.2,66.1z"/>
	<path class="st3" d="M83.7,76.9c-0.3-0.4-0.4-1.2-0.4-2c-1.1,1.5-2.8,2.4-5.2,2.4c-3.5,0-5.9-1.7-5.9-4.9c0-2.7,1.6-4.6,6.3-5.1
		l2.5-0.2c1.5-0.2,2.3-0.7,2.3-1.9c0-1.3-0.7-2-3-2c-2.3,0-3.2,0.6-3.4,2.6h-3.9c0.2-3.4,2.2-5.6,7.3-5.6c4.9,0,6.8,2,6.8,4.9v8.7
		c0,1.2,0.2,2.5,0.7,3.1H83.7z M83.2,70.4v-1.5c-0.4,0.4-1,0.6-1.9,0.7l-2.1,0.3c-2.2,0.3-2.9,1-2.9,2.3c0,1.4,0.9,2.2,2.7,2.2
		C81.1,74.4,83.2,73.3,83.2,70.4z"/>
	<path class="st3" d="M114,66.1v10.8h-4V66.7c0-2.1-0.9-3.1-2.8-3.1c-1.7,0-3.4,1.2-3.4,4.3v9h-3.9V66.7c0-2.1-0.9-3.1-2.8-3.1
		c-1.7,0-3.3,1.2-3.3,4.3v9h-4V60.6h3.9v2.3c1-1.6,2.5-2.7,4.6-2.7c2.5,0,4.2,1.2,5.1,3c1.1-1.7,2.8-3,5.1-3
		C111.9,60.2,114,62.5,114,66.1z"/>
	<path class="st3" d="M116.1,68.7c0-5.1,3.2-8.5,8.1-8.5c5,0,8.1,3.6,8.1,8.8v0.9h-12.2c0.3,2.9,1.9,4.2,4.2,4.2
		c1.9,0,3.1-0.9,3.7-2.3h3.9c-0.9,3.3-3.7,5.4-7.6,5.4C119.5,77.2,116.1,73.9,116.1,68.7z M128.3,67.2c-0.3-2.3-1.7-3.9-4.1-3.9
		c-2.1,0-3.7,1.2-4.1,3.9H128.3z"/>
	<path class="st3" d="M140.9,58.7v-3.7h3.9v3.7H140.9z M140.9,76.9V60.6h4v16.3H140.9z"/>
	<path class="st3" d="M146.7,71.7h3.9c0.2,2.1,1.3,2.8,3.6,2.8c2.3,0,3.2-0.7,3.2-2c0-1.2-0.7-1.7-3.2-2.1l-1.9-0.3
		c-3.5-0.6-5.3-2.1-5.3-4.9c0-3.1,2.4-4.9,6.8-4.9c5,0,7.1,2.2,7.2,5.5h-3.8c-0.1-2.1-1.4-2.7-3.4-2.7c-1.9,0-2.8,0.7-2.8,1.9
		c0,1.2,0.9,1.7,2.7,2l2.1,0.3c3.9,0.7,5.7,2.1,5.7,5c0,3.3-2.7,5.1-7.2,5.1C149.5,77.3,146.9,75.6,146.7,71.7z"/>
	<path class="st3" d="M181.2,54.4h4v22.5h-3.9v-2.3c-1.1,1.6-2.8,2.7-5.1,2.7c-4.5,0-7.3-3.3-7.3-8.5c0-5.2,2.8-8.5,7.3-8.5
		c2.2,0,3.9,0.9,5,2.5V54.4z M181.3,68.7c0-3.4-1.6-5.2-4.2-5.2c-2.6,0-4.2,1.9-4.2,5.4s1.6,5.1,4.2,5.1
		C179.7,74,181.3,72.2,181.3,68.7z"/>
	<path class="st3" d="M187.3,68.7c0-5.1,3.2-8.5,8.1-8.5c5,0,8.1,3.6,8.1,8.8v0.9h-12.2c0.3,2.9,1.9,4.2,4.2,4.2
		c1.9,0,3.1-0.9,3.7-2.3h3.9c-0.9,3.3-3.7,5.4-7.6,5.4C190.6,77.2,187.3,73.9,187.3,68.7z M199.4,67.2c-0.3-2.3-1.7-3.9-4.1-3.9
		c-2.1,0-3.7,1.2-4.1,3.9H199.4z"/>
	<path class="st3" d="M220.3,66.1v10.8h-4V66.7c0-2.1-1-3.1-3.1-3.1c-1.7,0-3.6,1.2-3.6,4.1v9.1h-4V60.6h3.9v2.3
		c1-1.5,2.8-2.7,5.1-2.7C218,60.2,220.3,62.2,220.3,66.1z"/>
	<path class="st3" d="M237.8,66.1v10.8h-4V66.7c0-2.1-1-3.1-3.1-3.1c-1.7,0-3.6,1.2-3.6,4.1v9.1h-4V60.6h3.9v2.3
		c1-1.5,2.8-2.7,5.1-2.7C235.5,60.2,237.8,62.2,237.8,66.1z"/>
	<path class="st3" d="M240.6,58.7v-3.7h3.9v3.7H240.6z M240.6,76.9V60.6h4v16.3H240.6z"/>
	<path class="st3" d="M246.4,71.7h3.9c0.2,2.1,1.3,2.8,3.6,2.8c2.3,0,3.2-0.7,3.2-2c0-1.2-0.7-1.7-3.2-2.1l-1.9-0.3
		c-3.5-0.6-5.3-2.1-5.3-4.9c0-3.1,2.4-4.9,6.8-4.9c5,0,7.1,2.2,7.2,5.5H257c-0.1-2.1-1.4-2.7-3.4-2.7c-1.9,0-2.8,0.7-2.8,1.9
		c0,1.2,0.9,1.7,2.7,2l2.1,0.3c3.9,0.7,5.7,2.1,5.7,5c0,3.3-2.7,5.1-7.2,5.1C249.2,77.3,246.7,75.6,246.4,71.7z"/>
</g>
<text transform="matrix(1 0 0 1 5 123.6935)"><tspan x="0" y="0" class="st0 st1 st2">an</tspan><tspan x="34.1" y="0" class="st0 st1 st2">d</tspan><tspan x="52.6" y="0" class="st0 st1 st2"> </tspan><tspan x="59.1" y="0" class="st0 st1 st2">i</tspan><tspan x="65.9" y="0" class="st0 st1 st2"> </tspan><tspan x="72.4" y="0" class="st0 st1 st2">m</tspan><tspan x="99.5" y="0" class="st0 st1 st2">a</tspan><tspan x="116.1" y="0" class="st0 st1 st2 st4">k</tspan><tspan x="131.9" y="0" class="st0 st1 st2">e</tspan></text>
<rect y="93.7" class="st0" width="159.3" height="43.1"/>
<g>
	<path class="st3" d="M17.3,123.7c-0.3-0.4-0.4-1.2-0.4-2c-1.1,1.5-2.8,2.4-5.2,2.4c-3.5,0-5.9-1.7-5.9-4.9c0-2.7,1.6-4.6,6.3-5.1
		l2.5-0.2c1.5-0.2,2.3-0.7,2.3-1.9c0-1.3-0.7-2-3-2c-2.3,0-3.2,0.6-3.4,2.6H6.5c0.2-3.4,2.2-5.6,7.3-5.6c4.9,0,6.8,2,6.8,4.9v8.7
		c0,1.2,0.2,2.5,0.7,3.1H17.3z M16.8,117.2v-1.5c-0.4,0.4-1,0.6-1.9,0.7l-2.1,0.3c-2.2,0.3-2.9,1-2.9,2.3c0,1.4,0.9,2.2,2.7,2.2
		C14.7,121.2,16.8,120.1,16.8,117.2z"/>
	<path class="st3" d="M37.9,112.9v10.8h-4v-10.1c0-2.1-1-3.1-3.1-3.1c-1.7,0-3.6,1.2-3.6,4.1v9.1h-4v-16.3h3.9v2.3
		c1-1.5,2.8-2.7,5.1-2.7C35.6,107,37.9,109,37.9,112.9z"/>
	<path class="st3" d="M52.4,101.2h4v22.5h-3.9v-2.3c-1.1,1.6-2.8,2.7-5.1,2.7c-4.5,0-7.3-3.3-7.3-8.5c0-5.2,2.8-8.5,7.3-8.5
		c2.2,0,3.9,0.9,5,2.5V101.2z M52.5,115.5c0-3.4-1.6-5.2-4.2-5.2c-2.6,0-4.2,1.9-4.2,5.4s1.6,5.1,4.2,5.1
		C50.9,120.8,52.5,119,52.5,115.5z"/>
	<path class="st3" d="M65.7,105.5v-3.7h3.9v3.7H65.7z M65.7,123.7v-16.3h4v16.3H65.7z"/>
	<path class="st3" d="M103.3,112.9v10.8h-4v-10.1c0-2.1-0.9-3.1-2.8-3.1c-1.7,0-3.4,1.2-3.4,4.3v9h-3.9v-10.1c0-2.1-0.9-3.1-2.8-3.1
		c-1.7,0-3.3,1.2-3.3,4.3v9h-4v-16.3h3.9v2.3c1-1.6,2.5-2.7,4.6-2.7c2.5,0,4.2,1.2,5.1,3c1.1-1.7,2.8-3,5.1-3
		C101.2,107,103.3,109.3,103.3,112.9z"/>
	<path class="st3" d="M116.8,123.7c-0.3-0.4-0.4-1.2-0.4-2c-1.1,1.5-2.8,2.4-5.2,2.4c-3.5,0-5.9-1.7-5.9-4.9c0-2.7,1.6-4.6,6.3-5.1
		l2.5-0.2c1.5-0.2,2.3-0.7,2.3-1.9c0-1.3-0.7-2-3-2c-2.3,0-3.2,0.6-3.4,2.6H106c0.2-3.4,2.2-5.6,7.3-5.6c4.9,0,6.8,2,6.8,4.9v8.7
		c0,1.2,0.2,2.5,0.7,3.1H116.8z M116.3,117.2v-1.5c-0.4,0.4-1,0.6-1.9,0.7l-2.1,0.3c-2.2,0.3-2.9,1-2.9,2.3c0,1.4,0.9,2.2,2.7,2.2
		C114.2,121.2,116.3,120.1,116.3,117.2z"/>
	<path class="st3" d="M133.8,123.7l-4.7-7.6l-2.5,2.5v5.1h-3.9v-22.5h3.9v13l6.6-6.8h4.7l-6.2,6.2l6.5,10.1H133.8z"/>
	<path class="st3" d="M137.7,115.5c0-5.1,3.2-8.5,8.1-8.5c5,0,8.1,3.6,8.1,8.8v0.9h-12.2c0.3,2.9,1.9,4.2,4.2,4.2
		c1.9,0,3.1-0.9,3.7-2.3h3.9c-0.9,3.3-3.7,5.4-7.6,5.4C141.1,124.1,137.7,120.8,137.7,115.5z M149.9,114c-0.3-2.3-1.7-3.9-4.1-3.9
		c-2.1,0-3.7,1.2-4.1,3.9H149.9z"/>
</g>
<text transform="matrix(1 0 0 1 5 170.4591)"><tspan x="0" y="0" class="st5 st6 st2">e</tspan><tspan x="17.5" y="0" class="st5 st6 st2">f</tspan><tspan x="28.7" y="0" class="st5 st6 st2 st4">f</tspan><tspan x="39.3" y="0" class="st5 st6 st2">e</tspan><tspan x="57.4" y="0" class="st5 st6 st2">c</tspan><tspan x="74.3" y="0" class="st5 st6 st2">t</tspan><tspan x="85.5" y="0" class="st5 st6 st2">i</tspan><tspan x="92.8" y="0" class="st5 st6 st2 st4">v</tspan><tspan x="109.3" y="0" class="st5 st6 st2">e</tspan><tspan x="127.3" y="0" class="st5 st6 st2"> </tspan><tspan x="134.4" y="0" class="st5 st6 st2">d</tspan><tspan x="153" y="0" class="st5 st6 st2">e</tspan><tspan x="171.1" y="0" class="st5 st6 st2">si</tspan><tspan x="194.6" y="0" class="st5 st6 st2">gn</tspan><tspan x="231.2" y="0" class="st5 st6 st2">s</tspan><tspan x="247.3" y="0" class="st5 st6 st2">.</tspan></text>
<rect y="140.4" class="st7" width="264.3" height="43.3"/>
<g>
	<path class="st0" d="M5.8,162.3c0-5.1,3.3-8.5,8.4-8.5c5.1,0,8.4,3.5,8.4,9v1H10.5c0.3,2.4,1.8,3.4,3.7,3.4c1.6,0,2.7-0.7,3.3-1.8
		h4.7c-0.9,3.4-4,5.5-8,5.5C9.2,170.8,5.8,167.5,5.8,162.3z M17.8,160.6c-0.3-2-1.6-3.2-3.7-3.2c-1.8,0-3.2,1-3.6,3.2H17.8z"/>
	<path class="st0" d="M30.2,153.4v0.8h3.2v3.7h-3.2v12.6h-4.9v-12.6h-2.4v-3.7h2.4v-0.9c0-2.9,1.5-5.4,5.9-5.4
		c0.8,0,1.6,0.1,2.3,0.1v3.7h-1.3C30.7,151.6,30.2,152.3,30.2,153.4z"/>
	<path class="st0" d="M41.4,153.4v0.8h3.2v3.7h-3.2v12.6h-4.9v-12.6h-2.4v-3.7h2.4v-0.9c0-2.9,1.5-5.4,5.9-5.4
		c0.8,0,1.6,0.1,2.3,0.1v3.7h-1.3C42,151.6,41.4,152.3,41.4,153.4z"/>
	<path class="st0" d="M45,162.3c0-5.1,3.3-8.5,8.4-8.5c5.1,0,8.4,3.5,8.4,9v1H49.8c0.3,2.4,1.8,3.4,3.7,3.4c1.6,0,2.7-0.7,3.3-1.8
		h4.7c-0.9,3.4-4,5.5-8,5.5C48.4,170.8,45,167.5,45,162.3z M57,160.6c-0.3-2-1.6-3.2-3.7-3.2c-1.8,0-3.2,1-3.6,3.2H57z"/>
	<path class="st0" d="M63.1,162.3c0-5.2,3.3-8.5,8.4-8.5c4.5,0,7.5,2.5,8,6.5h-4.9c-0.3-1.7-1.5-2.5-3.1-2.5c-2.1,0-3.4,1.4-3.4,4.5
		s1.3,4.5,3.4,4.5c1.6,0,2.9-0.8,3.2-2.7h4.9c-0.3,4.2-3.5,6.8-8.1,6.8C66.4,170.8,63.1,167.5,63.1,162.3z"/>
	<path class="st0" d="M90.2,157.9h-3.1v7.5c0,1.2,0.6,1.5,1.9,1.5h1.3v3.7c-0.8,0.1-1.5,0.1-2.3,0.1c-4.1,0-5.8-1.3-5.8-4.7v-8.1
		h-2.4v-3.7h2.4v-4.8h4.9v4.8h3.1V157.9z"/>
	<path class="st0" d="M91.9,170.5v-16.3h4.9v16.3H91.9z M92,152.5v-4.2h4.7v4.2H92z"/>
	<path class="st0" d="M110.2,154.2h5.1l-5.8,16.3h-5.9l-5.8-16.3h5.3l0.9,2.5c0.9,3.1,1.8,6.4,2.7,9.6c0.9-3.2,1.8-6.5,2.7-9.6
		L110.2,154.2z"/>
	<path class="st0" d="M115,162.3c0-5.1,3.3-8.5,8.4-8.5c5.1,0,8.4,3.5,8.4,9v1h-12.1c0.3,2.4,1.8,3.4,3.7,3.4c1.6,0,2.7-0.7,3.3-1.8
		h4.7c-0.9,3.4-4,5.5-8,5.5C118.4,170.8,115,167.5,115,162.3z M127,160.6c-0.3-2-1.6-3.2-3.7-3.2c-1.8,0-3.2,1-3.6,3.2H127z"/>
	<path class="st0" d="M152,148h4.9v22.5h-4.8v-2.1c-1,1.5-2.6,2.5-4.9,2.5c-4.4,0-7.1-3.3-7.1-8.5c0-5.2,2.7-8.5,7.1-8.5
		c2.2,0,3.7,0.9,4.8,2.3V148z M152.1,162.3c0-3.1-1.3-4.6-3.5-4.6c-2.2,0-3.5,1.6-3.5,4.7c0,3.1,1.3,4.5,3.5,4.5
		C150.8,166.9,152.1,165.4,152.1,162.3z"/>
	<path class="st0" d="M158.7,162.3c0-5.1,3.3-8.5,8.4-8.5c5.1,0,8.4,3.5,8.4,9v1h-12.1c0.3,2.4,1.8,3.4,3.7,3.4
		c1.6,0,2.7-0.7,3.3-1.8h4.7c-0.9,3.4-4,5.5-8,5.5C162.1,170.8,158.7,167.5,158.7,162.3z M170.7,160.6c-0.3-2-1.6-3.2-3.7-3.2
		c-1.8,0-3.2,1-3.6,3.2H170.7z"/>
	<path class="st0" d="M176.5,165.3h4.8c0.2,1.8,1.1,2.4,3.1,2.4c2,0,2.7-0.6,2.7-1.6c0-1-0.6-1.5-2.8-1.8l-2.1-0.3
		c-3.4-0.5-5.5-2.1-5.5-5c0-3.3,2.6-5.1,7.3-5.1c5.5,0,7.4,2.4,7.6,5.6h-4.6c-0.1-1.8-1.2-2.3-3-2.3c-1.8,0-2.5,0.6-2.5,1.5
		c0,1,0.8,1.4,2.4,1.6l2.4,0.3c3.9,0.6,5.7,2.1,5.7,5.1c0,3.4-2.9,5.3-7.8,5.3C179.4,170.9,176.8,169.3,176.5,165.3z"/>
	<path class="st0" d="M193.6,170.5v-16.3h4.9v16.3H193.6z M193.7,152.5v-4.2h4.7v4.2H193.7z"/>
	<path class="st0" d="M212.4,154.2h4.8V170c0,4.4-3,7.1-8.3,7.1c-5.1,0-7.7-2.5-7.9-6h4.9c0.1,1.5,1.2,2.3,3.1,2.3
		c2.2,0,3.3-1.2,3.3-3.2v-2.3c-1,1.4-2.5,2.3-4.7,2.3c-4.3,0-7.2-3.4-7.2-8.2c0-4.8,2.8-8.1,7.1-8.1c2.3,0,3.9,1,4.9,2.5V154.2z
		 M212.3,161.9c0-2.7-1.3-4.2-3.5-4.2c-2.2,0-3.5,1.6-3.5,4.3c0,2.7,1.3,4.2,3.5,4.2C211,166.2,212.3,164.7,212.3,161.9z"/>
	<path class="st0" d="M235.2,159.8v10.7h-4.9v-9.7c0-1.8-0.8-2.8-2.6-2.8c-1.5,0-3.1,1-3.1,3.4v9.1h-4.9v-16.3h4.8v2.3
		c1.1-1.5,2.7-2.7,5.1-2.7C232.8,153.8,235.2,155.7,235.2,159.8z"/>
	<path class="st0" d="M236.7,165.3h4.8c0.2,1.8,1.1,2.4,3.1,2.4c2,0,2.7-0.6,2.7-1.6c0-1-0.6-1.5-2.8-1.8l-2.1-0.3
		c-3.4-0.5-5.5-2.1-5.5-5c0-3.3,2.6-5.1,7.3-5.1c5.5,0,7.4,2.4,7.6,5.6h-4.6c-0.1-1.8-1.2-2.3-3-2.3c-1.8,0-2.5,0.6-2.5,1.5
		c0,1,0.8,1.4,2.4,1.6l2.4,0.3c3.9,0.6,5.7,2.1,5.7,5.1c0,3.4-2.9,5.3-7.8,5.3C239.5,170.9,237,169.3,236.7,165.3z"/>
	<path class="st0" d="M253.4,170.5V165h5.6v5.4H253.4z"/>
</g>
</svg>
